<?xml version="1.0" encoding="UTF-8" standalone="no"?>
<!-- Created with Inkscape (http://www.inkscape.org/) -->

<svg
   xmlns:dc="http://purl.org/dc/elements/1.1/"
   xmlns:cc="http://creativecommons.org/ns#"
   xmlns:rdf="http://www.w3.org/1999/02/22-rdf-syntax-ns#"
   xmlns:svg="http://www.w3.org/2000/svg"
   xmlns="http://www.w3.org/2000/svg"
   xmlns:sodipodi="http://sodipodi.sourceforge.net/DTD/sodipodi-0.dtd"
   xmlns:inkscape="http://www.inkscape.org/namespaces/inkscape"
   width="400"
   height="400"
   viewBox="0 0 399.99999 400.00001"
   id="svg3566"
   version="1.1"
   inkscape:version="0.91 r13725"
   sodipodi:docname="type_linux.svg">
  <sodipodi:namedview
     id="base"
     pagecolor="#ffffff"
     bordercolor="#666666"
     borderopacity="1.0"
     inkscape:pageopacity="0.0"
     inkscape:pageshadow="2"
     inkscape:zoom="0.70710678"
     inkscape:cx="256.03586"
     inkscape:cy="250.17662"
     inkscape:document-units="px"
     inkscape:current-layer="layer2"
     showgrid="false"
     units="px"
     inkscape:window-width="1280"
     inkscape:window-height="751"
     inkscape:window-x="0"
     inkscape:window-y="0"
     inkscape:window-maximized="1" />
  <defs
     id="defs3568">
    <clipPath
       clipPathUnits="userSpaceOnUse"
       id="clipPath4782">
      <ellipse
         id="circle4784"
         cy="268.35425"
         cx="252.57048"
         style="fill:#fa6800;fill-opacity:1"
         rx="316.31845"
         ry="315.71191" />
    </clipPath>
  </defs>
  <metadata
     id="metadata3571">
    <rdf:RDF>
      <cc:Work
         rdf:about="">
        <dc:format>image/svg+xml</dc:format>
        <dc:type
           rdf:resource="http://purl.org/dc/dcmitype/StillImage" />
        <dc:title />
      </cc:Work>
    </rdf:RDF>
  </metadata>
  <g
     transform="translate(0,-652.36216)"
     id="layer1"
     inkscape:groupmode="layer"
     inkscape:label="Layer 1"
     style="display:inline">
    <circle
       style="fill:#fa6800;fill-opacity:1"
       r="200"
       cx="200"
       cy="852.36218"
       id="circle3938" />
  </g>
  <g
     transform="translate(0,-652.36216)"
     style="display:inline"
     inkscape:label="Layer 2"
     id="layer2"
     inkscape:groupmode="layer">
    <g
       style="fill:#b04b00;fill-opacity:1"
       transform="matrix(0.63227419,0,0,0.63348895,40.306201,682.36274)"
       id="g6578"
       clip-path="url(#clipPath4782)">
      <g
         style="fill:#b04b00;fill-opacity:1"
         id="g6506">
        <g
           style="fill:#b04b00;fill-opacity:1"
           id="g6508">
          <g
             id="g3482"
             style="fill:#b04b00;fill-opacity:1">
            <g
               id="g3484"
               style="fill:#b04b00;fill-opacity:1">
              <path
                 id="path3486"
                 d="M456.698 412.044C450.662389143 409.567284011 445.107177673 406.447106658 440.905064847 402.244993832L794.45845544 755.798384425C798.660568266 760.000497251 804.215779737 763.120674604 810.251390593 765.597390593Z"
                 style="fill:#b04b00;fill-opacity:1" />
              <path
                 id="path3488"
                 d="M440.905064847 402.244993832C435.811248597 397.151177582 432.705726293 390.467524731 433.143 381.413L786.696390593 734.966390593C786.259116886 744.020915324 789.36463919 750.704568175 794.45845544 755.798384425Z"
                 style="fill:#b04b00;fill-opacity:1" />
              <path
                 id="path3490"
                 d="M433.143 381.413C433.796036772 367.543742838 425.016893433 357.606150058 422.199007812 354.788264437L775.752398405 708.34165503C778.570284026 711.159540651 787.349427365 721.097133431 786.696390593 734.966390593Z"
                 style="fill:#b04b00;fill-opacity:1" />
              <path
                 id="path3492"
                 d="M422.199007812 354.788264437C421.664100419 354.253357044 421.344 353.975 421.344 353.975L774.897390593 707.528390593C774.897390593 707.528390593 775.217491013 707.806747637 775.752398405 708.34165503Z"
                 style="fill:#b04b00;fill-opacity:1" />
              <path
                 id="path3494"
                 d="M421.344 353.975C421.344 353.975 432.345 317.844 422.121 288.012L775.674390593 641.565390593C785.898390593 671.397390593 774.897390593 707.528390593 774.897390593 707.528390593Z"
                 style="fill:#b04b00;fill-opacity:1" />
              <path
                 id="path3496"
                 d="M422.121 288.012C411.918 258.136 378.16 210.271 352.253 174.161L705.806390593 527.714390593C731.713390593 563.824390593 765.471390593 611.689390593 775.674390593 641.565390593Z"
                 style="fill:#b04b00;fill-opacity:1" />
              <path
                 id="path3498"
                 d="M352.253 174.161C326.39 138.03 348.349 96.398 324.815 43.032L678.368390593 396.585390593C701.902390593 449.951390593 679.943390593 491.583390593 705.806390593 527.714390593Z"
                 style="fill:#b04b00;fill-opacity:1" />
              <path
                 id="path3500"
                 d="M324.815 43.032C320.690942534 33.6972902934 315.415200672 26.091101567 309.340347293 20.0162481881L662.893737887 373.569638781C668.968591265 379.64449216 674.244333127 387.250680887 678.368390593 396.585390593Z"
                 style="fill:#b04b00;fill-opacity:1" />
              <path
                 id="path3502"
                 d="M309.340347293 20.0162481881C280.685612329 -8.63848677659 234.251007367 -3.22170255037 207.039 15.572L560.592390593 369.125390593C587.804397961 350.331688043 634.239002922 344.914903817 662.893737887 373.569638781Z"
                 style="fill:#b04b00;fill-opacity:1" />
              <path
                 id="path3504"
                 d="M207.039 15.572C174.036 38.308 184.239 94.823 185.792 121.571L539.345390593 475.124390593C537.792390593 448.376390593 527.589390593 391.861390593 560.592390593 369.125390593Z"
                 style="fill:#b04b00;fill-opacity:1" />
              <path
                 id="path3506"
                 d="M185.792 121.571C187.367 148.232 186.504 167.236 183.462 174.139L537.015390593 527.692390593C540.057390593 520.789390593 540.920390593 501.785390593 539.345390593 475.124390593Z"
                 style="fill:#b04b00;fill-opacity:1" />
              <path
                 id="path3508"
                 d="M183.462 174.139C180.356 181.042 159.13 206.366 144.98 227.548L498.533390593 581.101390593C512.683390593 559.919390593 533.909390593 534.595390593 537.015390593 527.692390593Z"
                 style="fill:#b04b00;fill-opacity:1" />
              <path
                 id="path3510"
                 d="M144.98 227.548C130.851 248.731 120.648 292.713 110.402 310.768L463.955390593 664.321390593C474.201390593 646.266390593 484.404390593 602.284390593 498.533390593 581.101390593Z"
                 style="fill:#b04b00;fill-opacity:1" />
              <path
                 id="path3512"
                 d="M110.402 310.768C100.199 328.823 107.274 345.303 107.274 345.303L460.827390593 698.856390593C460.827390593 698.856390593 453.752390593 682.376390593 463.955390593 664.321390593Z"
                 style="fill:#b04b00;fill-opacity:1" />
              <path
                 id="path3514"
                 d="M107.274 345.303C107.274 345.303 100.199 347.633 94.698 359.475L448.251390593 713.028390593C453.752390593 701.186390593 460.827390593 698.856390593 460.827390593 698.856390593Z"
                 style="fill:#b04b00;fill-opacity:1" />
              <path
                 id="path3516"
                 d="M94.698 359.475C89.197 371.209 78.218 376.71 58.589 380.593L412.142390593 734.146390593C431.771390593 730.263390593 442.750390593 724.762390593 448.251390593 713.028390593Z"
                 style="fill:#b04b00;fill-opacity:1" />
              <path
                 id="path3518"
                 d="M58.589 380.593C38.96 384.519 38.96 397.138 43.662 411.267L397.215390593 764.820390593C392.513390593 750.691390593 392.513390593 738.072390593 412.142390593 734.146390593Z"
                 style="fill:#b04b00;fill-opacity:1" />
              <path
                 id="path3520"
                 d="M43.662 411.267C48.386 425.374 43.684 433.269 38.183 451.281L391.736390593 804.834390593C397.237390593 786.822390593 401.939390593 778.927390593 397.215390593 764.820390593Z"
                 style="fill:#b04b00;fill-opacity:1" />
              <path
                 id="path3522"
                 d="M38.183 451.281C36.5170789434 456.735748241 37.87609047 461.046941184 41.3217735569 464.492624271L394.87516415 818.046014864C391.429481063 814.600331777 390.070469537 810.289138834 391.736390593 804.834390593Z"
                 style="fill:#b04b00;fill-opacity:1" />
              <path
                 id="path3524"
                 d="M41.3217735569 464.492624271C49.2540021577 472.424852871 68.2446710696 475.7702604 86.847 477.921L440.400390593 831.474390593C421.798061663 829.323650993 402.807392751 825.978243465 394.87516415 818.046014864Z"
                 style="fill:#b04b00;fill-opacity:1" />
              <path
                 id="path3526"
                 d="M86.847 477.921C113.552 481.092 143.384 498.37 168.536 501.498L522.089390593 855.051390593C496.937390593 851.923390593 467.105390593 834.645390593 440.400390593 831.474390593Z"
                 style="fill:#b04b00;fill-opacity:1" />
              <path
                 id="path3528"
                 d="M168.536 501.498C193.623 504.647 201.496 484.241 201.496 484.241L555.049390593 837.794390593C555.049390593 837.794390593 547.176390593 858.200390593 522.089390593 855.051390593Z"
                 style="fill:#b04b00;fill-opacity:1" />
              <path
                 id="path3530"
                 d="M201.496 484.241C201.496 484.241 229.754 477.921 259.565 477.187L613.118390593 830.740390593C583.307390593 831.474390593 555.049390593 837.794390593 555.049390593 837.794390593Z"
                 style="fill:#b04b00;fill-opacity:1" />
              <path
                 id="path3532"
                 d="M259.565 477.187C289.419 476.389 317.634 483.464 317.634 483.464L671.187390593 837.017390593C671.187390593 837.017390593 642.972390593 829.942390593 613.118390593 830.740390593Z"
                 style="fill:#b04b00;fill-opacity:1" />
              <path
                 id="path3534"
                 d="M317.634 483.464C317.634 483.464 320.721086254 490.509133763 326.559360731 496.34740824L680.112751324 849.900798833C674.274476847 844.062524356 671.187390593 837.017390593 671.187390593 837.017390593Z"
                 style="fill:#b04b00;fill-opacity:1" />
              <path
                 id="path3536"
                 d="M326.559360731 496.34740824C328.514557713 498.302605222 330.778309506 500.122448964 333.338 501.497L686.891390593 855.050390593C684.331700099 853.675839558 682.067948306 851.855995815 680.112751324 849.900798833Z"
                 style="fill:#b04b00;fill-opacity:1" />
              <path
                 id="path3538"
                 d="M333.338 501.497C343.563 506.998 365.543 507.796 379.672 492.912L733.225390593 846.465390593C719.096390593 861.349390593 697.116390593 860.551390593 686.891390593 855.050390593Z"
                 style="fill:#b04b00;fill-opacity:1" />
              <path
                 id="path3540"
                 d="M379.672 492.912C393.822 477.963 431.507 459.154 452.689 447.355L806.242390593 800.908390593C785.060390593 812.707390593 747.375390593 831.516390593 733.225390593 846.465390593Z"
                 style="fill:#b04b00;fill-opacity:1" />
              <path
                 id="path3542"
                 d="M452.689 447.355C470.079619104 437.678991818 470.631942178 423.839480901 462.935561304 416.143100028L816.488951898 769.696490621C824.185332771 777.392871495 823.633009697 791.232382412 806.242390593 800.908390593Z"
                 style="fill:#b04b00;fill-opacity:1" />
              <path
                 id="path3544"
                 d="M462.935561304 416.143100028C461.230211607 414.437750331 459.119876376 413.034009082 456.698 412.044L810.251390593 765.597390593C812.673266969 766.587399675 814.7836022 767.991140924 816.488951898 769.696490621Z"
                 style="fill:#b04b00;fill-opacity:1" />
              <path
                 id="path3546"
                 d="M272.958 65.812C278.796716862 65.812 284.148456126 68.3244130163 288.337045832 72.5130027229L641.890436426 426.066393316C637.701846719 421.87780361 632.350107455 419.365390593 626.511390593 419.365390593Z"
                 style="fill:#b04b00;fill-opacity:1" />
              <path
                 id="path3548"
                 d="M288.337045832 72.5130027229C293.804416294 77.9803731846 297.29 86.3036315622 297.29 95.623L650.843390593 449.176390593C650.843390593 439.857022155 647.357806887 431.533763778 641.890436426 426.066393316Z"
                 style="fill:#b04b00;fill-opacity:1" />
              <path
                 id="path3550"
                 d="M297.29 95.623C297.29 107.314 291.833 117.388 283.873 122.284L637.426390593 475.837390593C645.386390593 470.941390593 650.843390593 460.867390593 650.843390593 449.176390593Z"
                 style="fill:#b04b00;fill-opacity:1" />
              <path
                 id="path3552"
                 d="M283.873 122.284C281.845 121.4 279.71 120.494 277.445 119.523L630.998390593 473.076390593C633.263390593 474.047390593 635.398390593 474.953390593 637.426390593 475.837390593Z"
                 style="fill:#b04b00;fill-opacity:1" />
              <path
                 id="path3554"
                 d="M277.445 119.523C282.234 117.15 285.642 111.046 285.642 103.927L639.195390593 457.480390593C639.195390593 464.599390593 635.787390593 470.703390593 630.998390593 473.076390593Z"
                 style="fill:#b04b00;fill-opacity:1" />
              <path
                 id="path3556"
                 d="M285.642 103.927C285.642 98.4797790434 283.66283186 93.6347936347 280.591566139 90.563527914L634.144956732 444.116918507C637.216222453 447.188184228 639.195390593 452.033169637 639.195390593 457.480390593Z"
                 style="fill:#b04b00;fill-opacity:1" />
              <path
                 id="path3558"
                 d="M280.591566139 90.563527914C278.433378201 88.4053399763 275.735921603 87.123 272.807 87.123L626.360390593 440.676390593C629.289312197 440.676390593 631.986768794 441.95873057 634.144956732 444.116918507Z"
                 style="fill:#b04b00;fill-opacity:1" />
              <path
                 id="path3560"
                 d="M272.807 87.123C265.797 87.123 260.037 94.673 260.037 103.927L613.590390593 457.480390593C613.590390593 448.226390593 619.350390593 440.676390593 626.360390593 440.676390593Z"
                 style="fill:#b04b00;fill-opacity:1" />
              <path
                 id="path3562"
                 d="M260.037 103.927C260.037 107.357 260.857 110.657 262.259 113.353L615.812390593 466.906390593C614.410390593 464.210390593 613.590390593 460.910390593 613.590390593 457.480390593Z"
                 style="fill:#b04b00;fill-opacity:1" />
              <path
                 id="path3564"
                 d="M262.259 113.353C258.074 111.692 254.213 110.139 251.193 108.996L604.746390593 462.549390593C607.766390593 463.692390593 611.627390593 465.245390593 615.812390593 466.906390593Z"
                 style="fill:#b04b00;fill-opacity:1" />
              <path
                 id="path3566"
                 d="M251.193 108.996C249.554 104.984 248.626 100.454 248.626 95.622L602.179390593 449.175390593C602.179390593 454.007390593 603.107390593 458.537390593 604.746390593 462.549390593Z"
                 style="fill:#b04b00;fill-opacity:1" />
              <path
                 id="path3568"
                 d="M248.626 95.622C248.626 79.164 259.498 65.812 272.958 65.812L626.511390593 419.365390593C613.051390593 419.365390593 602.179390593 432.717390593 602.179390593 449.175390593Z"
                 style="fill:#b04b00;fill-opacity:1" />
              <path
                 id="path3570"
                 d="M271.211 128.669C275.463868315 130.141389773 280.018232032 132.432010116 282.598917672 135.012695756L636.152308265 488.566086349C633.571622625 485.985400709 629.017258908 483.694780366 624.764390593 482.222390593Z"
                 style="fill:#b04b00;fill-opacity:1" />
              <path
                 id="path3572"
                 d="M282.598917672 135.012695756C284.102067475 136.515845559 284.935624694 138.11740329 284.65 139.713L638.203390593 493.266390593C638.489015287 491.670793884 637.655458068 490.069236152 636.152308265 488.566086349Z"
                 style="fill:#b04b00;fill-opacity:1" />
              <path
                 id="path3574"
                 d="M284.65 139.713C283.852 144.07 280.314 144.07 271.211 149.636L624.764390593 503.189390593C633.867390593 497.623390593 637.405390593 497.623390593 638.203390593 493.266390593Z"
                 style="fill:#b04b00;fill-opacity:1" />
              <path
                 id="path3576"
                 d="M271.211 149.636C262.087 155.158 242.328 167.41 236.007 168.208L589.560390593 521.761390593C595.881390593 520.963390593 615.640390593 508.711390593 624.764390593 503.189390593Z"
                 style="fill:#b04b00;fill-opacity:1" />
              <path
                 id="path3578"
                 d="M236.007 168.208C229.644 169.006 226.106 165.447 219.376 161.111L572.929390593 514.664390593C579.659390593 519.000390593 583.197390593 522.559390593 589.560390593 521.761390593Z"
                 style="fill:#b04b00;fill-opacity:1" />
              <path
                 id="path3580"
                 d="M219.376 161.111C216.273740969 159.102598425 211.911027565 155.824393187 208.421722526 152.335088148L561.975113119 505.888478741C565.464418159 509.377783781 569.827131562 512.655989018 572.929390593 514.664390593Z"
                 style="fill:#b04b00;fill-opacity:1" />
              <path
                 id="path3582"
                 d="M208.421722526 152.335088148C204.341375038 148.25474066 201.455383481 143.885721445 203.176 140.921L556.729390593 494.474390593C555.008774074 497.439112039 557.894765631 501.808131253 561.975113119 505.888478741Z"
                 style="fill:#b04b00;fill-opacity:1" />
              <path
                 id="path3584"
                 d="M203.176 140.921C203.176 140.921 213.034 133.371 217.37 129.424L570.923390593 482.977390593C566.587390593 486.924390593 556.729390593 494.474390593 556.729390593 494.474390593Z"
                 style="fill:#b04b00;fill-opacity:1" />
              <path
                 id="path3586"
                 d="M217.37 129.424C221.727 125.455 232.815 115.985 239.545 117.215L593.098390593 470.768390593C586.368390593 469.538390593 575.280390593 479.008390593 570.923390593 482.977390593Z"
                 style="fill:#b04b00;fill-opacity:1" />
              <path
                 id="path3588"
                 d="M239.545 117.215C246.275 118.358 264.481 126.296 271.211 128.669L624.764390593 482.222390593C618.034390593 479.849390593 599.828390593 471.911390593 593.098390593 470.768390593Z"
                 style="fill:#b04b00;fill-opacity:1" />
              <path
                 id="path3590"
                 d="M210.532 70.536C214.540174069 70.536 218.265223718 72.3388678476 221.349308454 75.4229525837L574.902699047 428.976343177C571.818614311 425.892258441 568.093564662 424.089390593 564.085390593 424.089390593Z"
                 style="fill:#b04b00;fill-opacity:1" />
              <path
                 id="path3592"
                 d="M221.349308454 75.4229525837C226.431383854 80.5050279843 229.773 89.0660860061 229.773 98.772L583.326390593 452.325390593C583.326390593 442.619476599 579.984774448 434.058418578 574.902699047 428.976343177Z"
                 style="fill:#b04b00;fill-opacity:1" />
              <path
                 id="path3594"
                 d="M229.773 98.772C229.773 101.641 229.493 104.294 228.953 106.861L582.506390593 460.414390593C583.046390593 457.847390593 583.326390593 455.194390593 583.326390593 452.325390593Z"
                 style="fill:#b04b00;fill-opacity:1" />
              <path
                 id="path3596"
                 d="M228.953 106.861C226.365 107.745 223.733 109.169 221.188 111.326L574.741390593 464.879390593C577.286390593 462.722390593 579.918390593 461.298390593 582.506390593 460.414390593Z"
                 style="fill:#b04b00;fill-opacity:1" />
              <path
                 id="path3598"
                 d="M221.188 111.326C219.894 112.383 218.75 113.375 217.65 114.367L571.203390593 467.920390593C572.303390593 466.928390593 573.447390593 465.936390593 574.741390593 464.879390593Z"
                 style="fill:#b04b00;fill-opacity:1" />
              <path
                 id="path3600"
                 d="M217.65 114.367C219.333 111.218 220.001 106.731 219.246 102.007L572.799390593 455.560390593C573.554390593 460.284390593 572.886390593 464.771390593 571.203390593 467.920390593Z"
                 style="fill:#b04b00;fill-opacity:1" />
              <path
                 id="path3602"
                 d="M219.246 102.007C218.490604504 97.4873584082 216.539527439 93.6169136577 214.033466142 91.110852361L567.586856736 444.664242954C570.092918032 447.170304251 572.043995097 451.040749001 572.799390593 455.560390593Z"
                 style="fill:#b04b00;fill-opacity:1" />
              <path
                 id="path3604"
                 d="M214.033466142 91.110852361C211.815338183 88.8927244019 209.162429324 87.7434698132 206.519 88.159L560.072390593 441.712390593C562.715819917 441.296860407 565.368728777 442.446114995 567.586856736 444.664242954Z"
                 style="fill:#b04b00;fill-opacity:1" />
              <path
                 id="path3606"
                 d="M206.519 88.159C200.911 89.13 197.524 96.787 198.948 105.351L552.501390593 458.904390593C551.077390593 450.340390593 554.464390593 442.683390593 560.072390593 441.712390593Z"
                 style="fill:#b04b00;fill-opacity:1" />
              <path
                 id="path3608"
                 d="M198.948 105.351C199.715498627 109.899690825 201.669836865 113.784857342 204.174042649 116.289063126L557.727433242 469.84245372C555.223227458 467.338247935 553.26888922 463.453081418 552.501390593 458.904390593Z"
                 style="fill:#b04b00;fill-opacity:1" />
              <path
                 id="path3610"
                 d="M204.174042649 116.289063126C206.384604072 118.499624549 209.02363827 119.634101228 211.653 119.199L565.206390593 472.752390593C562.577028864 473.187491821 559.937994665 472.053015143 557.727433242 469.84245372Z"
                 style="fill:#b04b00;fill-opacity:1" />
              <path
                 id="path3612"
                 d="M211.653 119.199C211.977 119.134 212.279 119.048 212.602 118.94L566.155390593 472.493390593C565.832390593 472.601390593 565.530390593 472.687390593 565.206390593 472.752390593Z"
                 style="fill:#b04b00;fill-opacity:1" />
              <path
                 id="path3614"
                 d="M212.602 118.94C209.863 121.572 207.339 123.837 204.772 125.756L558.325390593 479.309390593C560.892390593 477.390390593 563.416390593 475.125390593 566.155390593 472.493390593Z"
                 style="fill:#b04b00;fill-opacity:1" />
              <path
                 id="path3616"
                 d="M204.772 125.756C202.978558459 124.924064851 201.295540512 123.712368563 199.767608892 122.184436943L553.320999485 475.737827536C554.848931105 477.265759156 556.531949053 478.477455445 558.325390593 479.309390593Z"
                 style="fill:#b04b00;fill-opacity:1" />
              <path
                 id="path3618"
                 d="M199.767608892 122.184436943C194.680109364 117.096937415 191.312 108.503442692 191.312 98.749L544.865390593 452.302390593C544.865390593 462.056833285 548.233499957 470.650328008 553.320999485 475.737827536Z"
                 style="fill:#b04b00;fill-opacity:1" />
              <path
                 id="path3620"
                 d="M191.312 98.749C191.313 83.155 199.919 70.536 210.532 70.536L564.085390593 424.089390593C553.472390593 424.089390593 544.866390593 436.708390593 544.865390593 452.302390593Z"
                 style="fill:#b04b00;fill-opacity:1" />
              <path
                 id="path3622"
                 d="M189.803 467.244C187.301 478.504 174.121 486.679 174.121 486.679L527.674390593 840.232390593C527.674390593 840.232390593 540.854390593 832.057390593 543.356390593 820.797390593Z"
                 style="fill:#b04b00;fill-opacity:1" />
              <path
                 id="path3624"
                 d="M174.121 486.679C174.121 486.679 174.121 486.679 174.121 486.679L527.674390593 840.232390593C527.674390593 840.232390593 527.674390593 840.232390593 527.674390593 840.232390593Z"
                 style="fill:#b04b00;fill-opacity:1" />
              <path
                 id="path3626"
                 d="M174.121 486.679C162.171 490.432 128.952 476.023 113.895 469.703L467.448390593 823.256390593C482.505390593 829.576390593 515.724390593 843.985390593 527.674390593 840.232390593Z"
                 style="fill:#b04b00;fill-opacity:1" />
              <path
                 id="path3628"
                 d="M113.895 469.703C98.970763649 463.514926211 61.1348774656 461.556831898 55.6624735687 456.084428001L409.215864162 809.637818594C414.688268059 815.110222491 452.524154242 817.068316805 467.448390593 823.256390593Z"
                 style="fill:#b04b00;fill-opacity:1" />
              <path
                 id="path3630"
                 d="M55.6624735687 456.084428001C55.6218588659 456.043813298 55.5830268108 456.00300502 55.546 455.962L409.099390593 809.515390593C409.136417404 809.556395613 409.175249459 809.597203891 409.215864162 809.637818594Z"
                 style="fill:#b04b00;fill-opacity:1" />
              <path
                 id="path3632"
                 d="M55.546 455.962C50.563 450.267 58.048 437.735 59.968 425.849L413.521390593 779.402390593C411.601390593 791.288390593 404.116390593 803.820390593 409.099390593 809.515390593Z"
                 style="fill:#b04b00;fill-opacity:1" />
              <path
                 id="path3634"
                 d="M59.968 425.849C61.823 413.877 56.215 406.392 58.07 398.217L411.623390593 751.770390593C409.768390593 759.945390593 415.376390593 767.430390593 413.521390593 779.402390593Z"
                 style="fill:#b04b00;fill-opacity:1" />
              <path
                 id="path3636"
                 d="M58.07 398.217C59.968 390.085 84.429 390.085 93.813 384.455L447.366390593 738.008390593C437.982390593 743.638390593 413.521390593 743.638390593 411.623390593 751.770390593Z"
                 style="fill:#b04b00;fill-opacity:1" />
              <path
                 id="path3638"
                 d="M93.813 384.455C103.239 378.782 105.116 362.474 112.644 358.096L466.197390593 711.649390593C458.669390593 716.027390593 456.792390593 732.335390593 447.366390593 738.008390593Z"
                 style="fill:#b04b00;fill-opacity:1" />
              <path
                 id="path3640"
                 d="M112.644 358.096C117.077751006 355.491583561 123.681603873 359.86090878 129.515840534 365.69514544L483.069231127 719.248536033C477.234994466 713.414299373 470.6311416 709.044974155 466.197390593 711.649390593Z"
                 style="fill:#b04b00;fill-opacity:1" />
              <path
                 id="path3642"
                 d="M129.515840534 365.69514544C133.587467671 369.766772577 137.284258095 374.551875581 139.607 378.178L493.160390593 731.731390593C490.837648688 728.105266175 487.140858264 723.32016317 483.069231127 719.248536033Z"
                 style="fill:#b04b00;fill-opacity:1" />
              <path
                 id="path3644"
                 d="M139.607 378.178C145.237 386.914 166.57 424.577 175.35 433.982L528.903390593 787.535390593C520.123390593 778.130390593 498.790390593 740.467390593 493.160390593 731.731390593Z"
                 style="fill:#b04b00;fill-opacity:1" />
              <path
                 id="path3646"
                 d="M175.35 433.982C184.151 443.387 192.305 455.984 189.803 467.244L543.356390593 820.797390593C545.858390593 809.537390593 537.704390593 796.940390593 528.903390593 787.535390593Z"
                 style="fill:#b04b00;fill-opacity:1" />
              <path
                 id="path3648"
                 d="M328.654 357.837C326.389 368.903 326.389 408.895 326.389 408.895L679.942390593 762.448390593C679.942390593 762.448390593 679.942390593 722.456390593 682.207390593 711.390390593Z"
                 style="fill:#b04b00;fill-opacity:1" />
              <path
                 id="path3650"
                 d="M326.389 408.895C326.389 408.895 302.057 442.61 264.33 448.132L617.883390593 801.685390593C655.610390593 796.163390593 679.942390593 762.448390593 679.942390593 762.448390593Z"
                 style="fill:#b04b00;fill-opacity:1" />
              <path
                 id="path3652"
                 d="M264.33 448.132C226.646 453.654 207.793 449.685 207.793 449.685L561.346390593 803.238390593C561.346390593 803.238390593 580.199390593 807.207390593 617.883390593 801.685390593Z"
                 style="fill:#b04b00;fill-opacity:1" />
              <path
                 id="path3654"
                 d="M207.793 449.685C207.793 449.685 207.793 449.685 207.793 449.685L561.346390593 803.238390593C561.346390593 803.238390593 561.346390593 803.238390593 561.346390593 803.238390593Z"
                 style="fill:#b04b00;fill-opacity:1" />
              <path
                 id="path3656"
                 d="M207.793 449.685L186.61 425.375L540.163390593 778.928390593L561.346390593 803.238390593Z"
                 style="fill:#b04b00;fill-opacity:1" />
              <path
                 id="path3658"
                 d="M186.61 425.375C186.61 425.375 203.068 422.981 200.739 406.501L554.292390593 760.054390593C556.621390593 776.534390593 540.163390593 778.928390593 540.163390593 778.928390593Z"
                 style="fill:#b04b00;fill-opacity:1" />
              <path
                 id="path3660"
                 d="M200.739 406.501C200.187632796 402.671867461 197.180304889 398.50267301 192.779565054 394.101933176L546.332955647 747.655323769C550.733695482 752.056063604 553.74102339 756.225258054 554.292390593 760.054390593Z"
                 style="fill:#b04b00;fill-opacity:1" />
              <path
                 id="path3662"
                 d="M192.779565054 394.101933176C181.173003069 382.495371191 159.873951906 369.278193503 148.375586385 356.441209081L501.928976978 709.994599674C513.427342499 722.831584096 534.726393663 736.048761784 546.332955647 747.655323769Z"
                 style="fill:#b04b00;fill-opacity:1" />
              <path
                 id="path3664"
                 d="M148.375586385 356.441209081C145.470117611 353.197490892 143.19042161 349.978048004 141.851 346.815L495.404390593 700.368390593C496.743812204 703.531438597 499.023508204 706.750881485 501.928976978 709.994599674Z"
                 style="fill:#b04b00;fill-opacity:1" />
              <path
                 id="path3666"
                 d="M141.851 346.815C133.244 326.431 140.298 291.853 151.299 274.574L504.852390593 628.127390593C493.851390593 645.406390593 486.797390593 679.984390593 495.404390593 700.368390593Z"
                 style="fill:#b04b00;fill-opacity:1" />
              <path
                 id="path3668"
                 d="M151.299 274.574C162.279 257.317 169.311 219.655 180.312 207.057L533.865390593 560.610390593C522.864390593 573.208390593 515.832390593 610.870390593 504.852390593 628.127390593Z"
                 style="fill:#b04b00;fill-opacity:1" />
              <path
                 id="path3670"
                 d="M180.312 207.057C191.313 194.546 199.92 167.841 195.994 156.042L549.547390593 509.595390593C553.473390593 521.394390593 544.866390593 548.099390593 533.865390593 560.610390593Z"
                 style="fill:#b04b00;fill-opacity:1" />
              <path
                 id="path3672"
                 d="M195.994 156.042C195.994 156.042 198.241298256 158.739998191 201.832638347 162.331338282L555.38602894 515.884728875C551.794688849 512.293388784 549.547390593 509.595390593 549.547390593 509.595390593Z"
                 style="fill:#b04b00;fill-opacity:1" />
              <path
                 id="path3674"
                 d="M201.832638347 162.331338282C209.868299813 170.366999748 224.632844383 182.875136001 236.008 179.64L589.561390593 533.193390593C578.186234977 536.428526594 563.421690406 523.920390341 555.38602894 515.884728875Z"
                 style="fill:#b04b00;fill-opacity:1" />
              <path
                 id="path3676"
                 d="M236.008 179.64C252.488 174.916 289.439 147.413 294.896 152.159L648.449390593 505.712390593C642.992390593 500.966390593 606.041390593 528.469390593 589.561390593 533.193390593Z"
                 style="fill:#b04b00;fill-opacity:1" />
              <path
                 id="path3678"
                 d="M294.896 152.159C294.932308716 152.190305416 294.970445729 152.225953211 295.010386573 152.265894055L648.563777166 505.819284648C648.523836322 505.779343804 648.48569931 505.74369601 648.449390593 505.712390593Z"
                 style="fill:#b04b00;fill-opacity:1" />
              <path
                 id="path3680"
                 d="M295.010386573 152.265894055C300.997535207 158.253042689 347.517013833 260.705568003 352.166 293.469L705.719390593 647.022390593C701.070404427 614.258958596 654.5509258 511.806433283 648.563777166 505.819284648Z"
                 style="fill:#b04b00;fill-opacity:1" />
              <path
                 id="path3682"
                 d="M352.166 293.469C356.89 326.429 349.017 351.538 349.017 351.538L702.570390593 705.091390593C702.570390593 705.091390593 710.443390593 679.982390593 705.719390593 647.022390593Z"
                 style="fill:#b04b00;fill-opacity:1" />
              <path
                 id="path3684"
                 d="M349.017 351.538C349.017 351.538 330.983 346.836 328.654 357.837L682.207390593 711.390390593C684.536390593 700.389390593 702.570390593 705.091390593 702.570390593 705.091390593Z"
                 style="fill:#b04b00;fill-opacity:1" />
              <path
                 id="path3686"
                 d="M449.148 431.803C441.814 438.533 401.002 455.013 388.771 467.869L742.324390593 821.422390593C754.555390593 808.566390593 795.367390593 792.086390593 802.701390593 785.356390593Z"
                 style="fill:#b04b00;fill-opacity:1" />
              <path
                 id="path3688"
                 d="M388.771 467.869C376.605 480.617 360.707 490.993 350.979 487.973L704.532390593 841.526390593C714.260390593 844.546390593 730.158390593 834.170390593 742.324390593 821.422390593Z"
                 style="fill:#b04b00;fill-opacity:1" />
              <path
                 id="path3690"
                 d="M350.979 487.973C348.364750633 487.149456725 345.841147471 485.591194604 343.627342924 483.377390057L697.180733517 836.93078065C699.394538065 839.144585198 701.918141227 840.702847318 704.532390593 841.526390593Z"
                 style="fill:#b04b00;fill-opacity:1" />
              <path
                 id="path3692"
                 d="M343.627342924 483.377390057C337.548217114 477.298264247 333.805146946 466.275980152 336.936 451.95L690.489390593 805.503390593C687.35853754 819.829370745 691.101607707 830.85165484 697.180733517 836.93078065Z"
                 style="fill:#b04b00;fill-opacity:1" />
              <path
                 id="path3694"
                 d="M336.936 451.95C341.185 432.472 344.874 411.117 344.27 398.907L697.823390593 752.460390593C698.427390593 764.670390593 694.738390593 786.025390593 690.489390593 805.503390593Z"
                 style="fill:#b04b00;fill-opacity:1" />
              <path
                 id="path3696"
                 d="M344.27 398.907C343.666 386.698 341.185 370.196 344.27 367.759L697.823390593 721.312390593C694.738390593 723.749390593 697.219390593 740.251390593 697.823390593 752.460390593Z"
                 style="fill:#b04b00;fill-opacity:1" />
              <path
                 id="path3698"
                 d="M344.27 367.759C347.312 365.386 352.165 366.573 352.165 366.573L705.718390593 720.126390593C705.718390593 720.126390593 700.865390593 718.939390593 697.823390593 721.312390593Z"
                 style="fill:#b04b00;fill-opacity:1" />
              <path
                 id="path3700"
                 d="M352.165 366.573C352.165 366.573 350.366403388 383.961687792 359.003305843 392.598590246L712.556696436 746.15198084C703.919793982 737.515078385 705.718390593 720.126390593 705.718390593 720.126390593Z"
                 style="fill:#b04b00;fill-opacity:1" />
              <path
                 id="path3702"
                 d="M359.003305843 392.598590246C360.330850406 393.926134809 361.90493952 395.046913506 363.77 395.866L717.323390593 749.419390593C715.458330114 748.600304099 713.884240999 747.479525402 712.556696436 746.15198084Z"
                 style="fill:#b04b00;fill-opacity:1" />
              <path
                 id="path3704"
                 d="M363.77 395.866C377.769 401.906 397.917 393.428 404.021 387.281L757.574390593 740.834390593C751.470390593 746.981390593 731.322390593 755.459390593 717.323390593 749.419390593Z"
                 style="fill:#b04b00;fill-opacity:1" />
              <path
                 id="path3706"
                 d="M404.021 387.281C410.147 381.22 414.418 372.074 414.418 372.074L767.971390593 725.627390593C767.971390593 725.627390593 763.700390593 734.773390593 757.574390593 740.834390593Z"
                 style="fill:#b04b00;fill-opacity:1" />
              <path
                 id="path3708"
                 d="M414.418 372.074C414.418 372.074 415.238304476 372.490018298 416.246535368 373.49824919L769.799925961 727.051639783C768.791695069 726.043408892 767.971390593 725.627390593 767.971390593 725.627390593Z"
                 style="fill:#b04b00;fill-opacity:1" />
              <path
                 id="path3710"
                 d="M416.246535368 373.49824919C417.983867184 375.235581006 420.279197942 378.73133513 419.897 384.887L773.450390593 738.440390593C773.832588535 732.284725723 771.537257777 728.788971599 769.799925961 727.051639783Z"
                 style="fill:#b04b00;fill-opacity:1" />
              <path
                 id="path3712"
                 d="M419.897 384.887C419.398021425 392.941703824 422.623336134 403.940626309 428.941473867 410.258764042L782.49486446 763.812154635C776.176726728 757.494016902 772.951412018 746.495094417 773.450390593 738.440390593Z"
                 style="fill:#b04b00;fill-opacity:1" />
              <path
                 id="path3714"
                 d="M428.941473867 410.258764042C430.271270092 411.588560266 431.738074681 412.711003319 433.336 413.555L786.889390593 767.108390593C785.291465275 766.264393912 783.824660685 765.14195086 782.49486446 763.812154635Z"
                 style="fill:#b04b00;fill-opacity:1" />
              <path
                 id="path3716"
                 d="M433.336 413.555C438.455032709 416.253361351 445.114883876 419.562574138 448.680967488 423.12865775L802.234358082 776.682048344C798.668274469 773.115964731 792.008423303 769.806751945 786.889390593 767.108390593Z"
                 style="fill:#b04b00;fill-opacity:1" />
              <path
                 id="path3718"
                 d="M448.680967488 423.12865775C451.47165376 425.919344023 452.367700176 428.867339367 449.148 431.803L802.701390593 785.356390593C805.92109077 782.420729961 805.025044354 779.472734616 802.234358082 776.682048344Z"
                 style="fill:#b04b00;fill-opacity:1" />
            </g>
            <path
               inkscape:connector-curvature="0"
               style="fill:#b04b00;fill-opacity:1"
               d="m 456.698,412.044 c -13.352,-5.479 -24.353,-14.107 -23.555,-30.631 0.777,-16.502 -11.799,-27.438 -11.799,-27.438 0,0 11.001,-36.131 0.777,-65.963 C 411.918,258.136 378.16,210.271 352.253,174.161 326.39,138.03 348.349,96.398 324.815,43.032 301.238,-10.334 240.02,-7.206 207.039,15.572 c -33.003,22.736 -22.8,79.251 -21.247,105.999 1.575,26.661 0.712,45.665 -2.33,52.568 -3.106,6.903 -24.332,32.227 -38.482,53.409 -14.129,21.183 -24.332,65.165 -34.578,83.22 -10.203,18.055 -3.128,34.535 -3.128,34.535 0,0 -7.075,2.33 -12.576,14.172 -5.501,11.734 -16.48,17.235 -36.109,21.118 -19.629,3.926 -19.629,16.545 -14.927,30.674 4.724,14.107 0.022,22.002 -5.479,40.014 -5.501,18.012 21.981,23.555 48.664,26.64 26.705,3.171 56.537,20.449 81.689,23.577 25.087,3.149 32.96,-17.257 32.96,-17.257 0,0 28.258,-6.32 58.069,-7.054 29.854,-0.798 58.069,6.277 58.069,6.277 0,0 5.501,12.554 15.704,18.033 10.225,5.501 32.205,6.299 46.334,-8.585 14.15,-14.949 51.835,-33.758 73.017,-45.557 21.244,-11.82 17.361,-29.853 4.009,-35.311 z M 272.958,65.812 c 13.46,0 24.332,13.352 24.332,29.811 0,11.691 -5.457,21.765 -13.417,26.661 -2.028,-0.884 -4.163,-1.79 -6.428,-2.761 4.789,-2.373 8.197,-8.477 8.197,-15.596 0,-9.275 -5.738,-16.804 -12.835,-16.804 -7.01,0 -12.77,7.55 -12.77,16.804 0,3.43 0.82,6.73 2.222,9.426 -4.185,-1.661 -8.046,-3.214 -11.066,-4.357 -1.639,-4.012 -2.567,-8.542 -2.567,-13.374 0,-16.458 10.872,-29.81 24.332,-29.81 z m -1.747,62.857 c 6.73,2.33 14.215,6.709 13.439,11.044 -0.798,4.357 -4.336,4.357 -13.439,9.923 -9.124,5.522 -28.883,17.774 -35.204,18.572 -6.363,0.798 -9.901,-2.761 -16.631,-7.097 -6.73,-4.357 -19.392,-14.69 -16.2,-20.19 0,0 9.858,-7.55 14.194,-11.497 4.357,-3.969 15.445,-13.439 22.175,-12.209 6.73,1.143 24.936,9.081 31.666,11.454 z M 210.532,70.536 c 10.613,0 19.241,12.64 19.241,28.236 0,2.869 -0.28,5.522 -0.82,8.089 -2.588,0.884 -5.22,2.308 -7.765,4.465 -1.294,1.057 -2.438,2.049 -3.538,3.041 1.683,-3.149 2.351,-7.636 1.596,-12.36 -1.424,-8.52 -7.097,-14.733 -12.727,-13.848 -5.608,0.971 -8.995,8.628 -7.571,17.192 1.445,8.564 7.097,14.776 12.705,13.848 0.324,-0.065 0.626,-0.151 0.949,-0.259 -2.739,2.632 -5.263,4.897 -7.83,6.816 -7.765,-3.602 -13.46,-14.323 -13.46,-27.007 10e-4,-15.594 8.607,-28.213 19.22,-28.213 z m -20.729,396.708 c -2.502,11.26 -15.682,19.435 -15.682,19.435 -11.95,3.753 -45.169,-10.656 -60.226,-16.976 -15.035,-6.234 -53.323,-8.175 -58.349,-13.741 -4.983,-5.695 2.502,-18.227 4.422,-30.113 1.855,-11.972 -3.753,-19.457 -1.898,-27.632 1.898,-8.132 26.359,-8.132 35.743,-13.762 9.426,-5.673 11.303,-21.981 18.831,-26.359 7.528,-4.422 21.312,11.26 26.963,20.082 5.63,8.736 26.963,46.399 35.743,55.804 8.801,9.405 16.955,22.002 14.453,33.262 z M 328.654,357.837 c -2.265,11.066 -2.265,51.058 -2.265,51.058 0,0 -24.332,33.715 -62.059,39.237 -37.684,5.522 -56.537,1.553 -56.537,1.553 l -21.183,-24.31 c 0,0 16.458,-2.394 14.129,-18.874 -2.373,-16.48 -50.238,-39.259 -58.888,-59.686 -8.607,-20.384 -1.553,-54.962 9.448,-72.241 10.98,-17.257 18.012,-54.919 29.013,-67.517 11.001,-12.511 19.608,-39.216 15.682,-51.015 0,0 23.555,28.279 40.014,23.598 16.48,-4.724 53.431,-32.227 58.888,-27.481 5.479,4.724 52.59,108.328 57.27,141.31 4.724,32.96 -3.149,58.069 -3.149,58.069 0,0 -18.034,-4.702 -20.363,6.299 z m 120.494,73.966 c -7.334,6.73 -48.146,23.21 -60.377,36.066 -12.166,12.748 -28.064,23.124 -37.792,20.104 -9.793,-3.085 -18.314,-16.48 -14.043,-36.023 4.249,-19.478 7.938,-40.833 7.334,-53.043 -0.604,-12.209 -3.085,-28.711 0,-31.148 3.042,-2.373 7.895,-1.186 7.895,-1.186 0,0 -2.394,23.145 11.605,29.293 13.999,6.04 34.147,-2.438 40.251,-8.585 6.126,-6.061 10.397,-15.207 10.397,-15.207 0,0 6.083,3.085 5.479,12.813 -0.604,9.75 4.249,23.814 13.439,28.668 9.125,4.81 23.146,11.561 15.812,18.248 z"
               id="path6510" />
          </g>
        </g>
        <g
           style="fill:#b04b00;fill-opacity:1"
           id="g6512" />
        <g
           style="fill:#b04b00;fill-opacity:1"
           id="g6514" />
        <g
           style="fill:#b04b00;fill-opacity:1"
           id="g6516" />
        <g
           style="fill:#b04b00;fill-opacity:1"
           id="g6518" />
        <g
           style="fill:#b04b00;fill-opacity:1"
           id="g6520" />
        <g
           style="fill:#b04b00;fill-opacity:1"
           id="g6522" />
        <g
           style="fill:#b04b00;fill-opacity:1"
           id="g6524" />
        <g
           style="fill:#b04b00;fill-opacity:1"
           id="g6526" />
        <g
           style="fill:#b04b00;fill-opacity:1"
           id="g6528" />
        <g
           style="fill:#b04b00;fill-opacity:1"
           id="g6530" />
        <g
           style="fill:#b04b00;fill-opacity:1"
           id="g6532" />
        <g
           style="fill:#b04b00;fill-opacity:1"
           id="g6534" />
        <g
           style="fill:#b04b00;fill-opacity:1"
           id="g6536" />
        <g
           style="fill:#b04b00;fill-opacity:1"
           id="g6538" />
        <g
           style="fill:#b04b00;fill-opacity:1"
           id="g6540" />
      </g>
      <g
         style="fill:#b04b00;fill-opacity:1"
         id="g6542" />
      <g
         style="fill:#b04b00;fill-opacity:1"
         id="g6544" />
      <g
         style="fill:#b04b00;fill-opacity:1"
         id="g6546" />
      <g
         style="fill:#b04b00;fill-opacity:1"
         id="g6548" />
      <g
         style="fill:#b04b00;fill-opacity:1"
         id="g6550" />
      <g
         style="fill:#b04b00;fill-opacity:1"
         id="g6552" />
      <g
         style="fill:#b04b00;fill-opacity:1"
         id="g6554" />
      <g
         style="fill:#b04b00;fill-opacity:1"
         id="g6556" />
      <g
         style="fill:#b04b00;fill-opacity:1"
         id="g6558" />
      <g
         style="fill:#b04b00;fill-opacity:1"
         id="g6560" />
      <g
         style="fill:#b04b00;fill-opacity:1"
         id="g6562" />
      <g
         style="fill:#b04b00;fill-opacity:1"
         id="g6564" />
      <g
         style="fill:#b04b00;fill-opacity:1"
         id="g6566" />
      <g
         style="fill:#b04b00;fill-opacity:1"
         id="g6568" />
      <g
         style="fill:#b04b00;fill-opacity:1"
         id="g6570" />
    </g>
  </g>
  <g
     style="display:inline"
     inkscape:label="Layer 3"
     id="layer3"
     inkscape:groupmode="layer">
    <g
       id="g3370"
       transform="matrix(0.63227419,0,0,0.63348895,40.306201,30.00058)"
       style="display:inline;fill:#ffffff">
      <g
         id="g3372"
         style="fill:#ffffff">
        <g
           id="g3374"
           style="fill:#ffffff">
          <path
             id="path3376"
             d="m 456.698,412.044 c -13.352,-5.479 -24.353,-14.107 -23.555,-30.631 0.777,-16.502 -11.799,-27.438 -11.799,-27.438 0,0 11.001,-36.131 0.777,-65.963 C 411.918,258.136 378.16,210.271 352.253,174.161 326.39,138.03 348.349,96.398 324.815,43.032 301.238,-10.334 240.02,-7.206 207.039,15.572 c -33.003,22.736 -22.8,79.251 -21.247,105.999 1.575,26.661 0.712,45.665 -2.33,52.568 -3.106,6.903 -24.332,32.227 -38.482,53.409 -14.129,21.183 -24.332,65.165 -34.578,83.22 -10.203,18.055 -3.128,34.535 -3.128,34.535 0,0 -7.075,2.33 -12.576,14.172 -5.501,11.734 -16.48,17.235 -36.109,21.118 -19.629,3.926 -19.629,16.545 -14.927,30.674 4.724,14.107 0.022,22.002 -5.479,40.014 -5.501,18.012 21.981,23.555 48.664,26.64 26.705,3.171 56.537,20.449 81.689,23.577 25.087,3.149 32.96,-17.257 32.96,-17.257 0,0 28.258,-6.32 58.069,-7.054 29.854,-0.798 58.069,6.277 58.069,6.277 0,0 5.501,12.554 15.704,18.033 10.225,5.501 32.205,6.299 46.334,-8.585 14.15,-14.949 51.835,-33.758 73.017,-45.557 21.244,-11.82 17.361,-29.853 4.009,-35.311 z M 272.958,65.812 c 13.46,0 24.332,13.352 24.332,29.811 0,11.691 -5.457,21.765 -13.417,26.661 -2.028,-0.884 -4.163,-1.79 -6.428,-2.761 4.789,-2.373 8.197,-8.477 8.197,-15.596 0,-9.275 -5.738,-16.804 -12.835,-16.804 -7.01,0 -12.77,7.55 -12.77,16.804 0,3.43 0.82,6.73 2.222,9.426 -4.185,-1.661 -8.046,-3.214 -11.066,-4.357 -1.639,-4.012 -2.567,-8.542 -2.567,-13.374 0,-16.458 10.872,-29.81 24.332,-29.81 z m -1.747,62.857 c 6.73,2.33 14.215,6.709 13.439,11.044 -0.798,4.357 -4.336,4.357 -13.439,9.923 -9.124,5.522 -28.883,17.774 -35.204,18.572 -6.363,0.798 -9.901,-2.761 -16.631,-7.097 -6.73,-4.357 -19.392,-14.69 -16.2,-20.19 0,0 9.858,-7.55 14.194,-11.497 4.357,-3.969 15.445,-13.439 22.175,-12.209 6.73,1.143 24.936,9.081 31.666,11.454 z M 210.532,70.536 c 10.613,0 19.241,12.64 19.241,28.236 0,2.869 -0.28,5.522 -0.82,8.089 -2.588,0.884 -5.22,2.308 -7.765,4.465 -1.294,1.057 -2.438,2.049 -3.538,3.041 1.683,-3.149 2.351,-7.636 1.596,-12.36 -1.424,-8.52 -7.097,-14.733 -12.727,-13.848 -5.608,0.971 -8.995,8.628 -7.571,17.192 1.445,8.564 7.097,14.776 12.705,13.848 0.324,-0.065 0.626,-0.151 0.949,-0.259 -2.739,2.632 -5.263,4.897 -7.83,6.816 -7.765,-3.602 -13.46,-14.323 -13.46,-27.007 10e-4,-15.594 8.607,-28.213 19.22,-28.213 z m -20.729,396.708 c -2.502,11.26 -15.682,19.435 -15.682,19.435 -11.95,3.753 -45.169,-10.656 -60.226,-16.976 -15.035,-6.234 -53.323,-8.175 -58.349,-13.741 -4.983,-5.695 2.502,-18.227 4.422,-30.113 1.855,-11.972 -3.753,-19.457 -1.898,-27.632 1.898,-8.132 26.359,-8.132 35.743,-13.762 9.426,-5.673 11.303,-21.981 18.831,-26.359 7.528,-4.422 21.312,11.26 26.963,20.082 5.63,8.736 26.963,46.399 35.743,55.804 8.801,9.405 16.955,22.002 14.453,33.262 z M 328.654,357.837 c -2.265,11.066 -2.265,51.058 -2.265,51.058 0,0 -24.332,33.715 -62.059,39.237 -37.684,5.522 -56.537,1.553 -56.537,1.553 l -21.183,-24.31 c 0,0 16.458,-2.394 14.129,-18.874 -2.373,-16.48 -50.238,-39.259 -58.888,-59.686 -8.607,-20.384 -1.553,-54.962 9.448,-72.241 10.98,-17.257 18.012,-54.919 29.013,-67.517 11.001,-12.511 19.608,-39.216 15.682,-51.015 0,0 23.555,28.279 40.014,23.598 16.48,-4.724 53.431,-32.227 58.888,-27.481 5.479,4.724 52.59,108.328 57.27,141.31 4.724,32.96 -3.149,58.069 -3.149,58.069 0,0 -18.034,-4.702 -20.363,6.299 z m 120.494,73.966 c -7.334,6.73 -48.146,23.21 -60.377,36.066 -12.166,12.748 -28.064,23.124 -37.792,20.104 -9.793,-3.085 -18.314,-16.48 -14.043,-36.023 4.249,-19.478 7.938,-40.833 7.334,-53.043 -0.604,-12.209 -3.085,-28.711 0,-31.148 3.042,-2.373 7.895,-1.186 7.895,-1.186 0,0 -2.394,23.145 11.605,29.293 13.999,6.04 34.147,-2.438 40.251,-8.585 6.126,-6.061 10.397,-15.207 10.397,-15.207 0,0 6.083,3.085 5.479,12.813 -0.604,9.75 4.249,23.814 13.439,28.668 9.125,4.81 23.146,11.561 15.812,18.248 z"
             style="fill:#ffffff"
             inkscape:connector-curvature="0" />
        </g>
        <g
           id="g3378"
           style="fill:#ffffff" />
        <g
           id="g3380"
           style="fill:#ffffff" />
        <g
           id="g3382"
           style="fill:#ffffff" />
        <g
           id="g3384"
           style="fill:#ffffff" />
        <g
           id="g3386"
           style="fill:#ffffff" />
        <g
           id="g3388"
           style="fill:#ffffff" />
        <g
           id="g3390"
           style="fill:#ffffff" />
        <g
           id="g3392"
           style="fill:#ffffff" />
        <g
           id="g3394"
           style="fill:#ffffff" />
        <g
           id="g3396"
           style="fill:#ffffff" />
        <g
           id="g3398"
           style="fill:#ffffff" />
        <g
           id="g3400"
           style="fill:#ffffff" />
        <g
           id="g3402"
           style="fill:#ffffff" />
        <g
           id="g3404"
           style="fill:#ffffff" />
        <g
           id="g3406"
           style="fill:#ffffff" />
      </g>
      <g
         id="g3408"
         style="fill:#ffffff" />
      <g
         id="g3410"
         style="fill:#ffffff" />
      <g
         id="g3412"
         style="fill:#ffffff" />
      <g
         id="g3414"
         style="fill:#ffffff" />
      <g
         id="g3416"
         style="fill:#ffffff" />
      <g
         id="g3418"
         style="fill:#ffffff" />
      <g
         id="g3420"
         style="fill:#ffffff" />
      <g
         id="g3422"
         style="fill:#ffffff" />
      <g
         id="g3424"
         style="fill:#ffffff" />
      <g
         id="g3426"
         style="fill:#ffffff" />
      <g
         id="g3428"
         style="fill:#ffffff" />
      <g
         id="g3430"
         style="fill:#ffffff" />
      <g
         id="g3432"
         style="fill:#ffffff" />
      <g
         id="g3434"
         style="fill:#ffffff" />
      <g
         id="g3436"
         style="fill:#ffffff" />
    </g>
  </g>
</svg>
