<?xml version="1.0" encoding="UTF-8" standalone="no"?>
<!-- Created with Inkscape (http://www.inkscape.org/) -->

<svg
   xmlns:dc="http://purl.org/dc/elements/1.1/"
   xmlns:cc="http://creativecommons.org/ns#"
   xmlns:rdf="http://www.w3.org/1999/02/22-rdf-syntax-ns#"
   xmlns:svg="http://www.w3.org/2000/svg"
   xmlns="http://www.w3.org/2000/svg"
   xmlns:sodipodi="http://sodipodi.sourceforge.net/DTD/sodipodi-0.dtd"
   xmlns:inkscape="http://www.inkscape.org/namespaces/inkscape"
   width="400"
   height="400"
   viewBox="0 0 399.99999 400.00001"
   id="svg3566"
   version="1.1"
   inkscape:version="0.91 r13725"
   sodipodi:docname="type_crypto.svg">
  <sodipodi:namedview
     id="base"
     pagecolor="#ffffff"
     bordercolor="#666666"
     borderopacity="1.0"
     inkscape:pageopacity="0.0"
     inkscape:pageshadow="2"
     inkscape:zoom="0.5"
     inkscape:cx="-92"
     inkscape:cy="200"
     inkscape:document-units="px"
     inkscape:current-layer="layer2"
     showgrid="false"
     units="px"
     inkscape:window-width="1280"
     inkscape:window-height="751"
     inkscape:window-x="0"
     inkscape:window-y="0"
     inkscape:window-maximized="1" />
  <defs
     id="defs3568">
    <marker
       id="marker3425"
       orient="auto"
       refY="150"
       refX="115"
       markerHeight="300"
       markerWidth="230">
      <g
         id="g3356"
         style="fill:#ffffff"
         transform="matrix(0.61479901,0,0,0.61635435,-34.621177,0)">
        <path
           id="path3358"
           d="m 403.88,196.563 -9.484,0 0,-44.388 C 394.396,70.076 329.245,1.494 247.814,0.03 c -2.225,-0.04 -6.671,-0.04 -8.895,0 C 157.486,1.494 92.336,70.076 92.336,152.175 l 0,44.388 -9.485,0 c -14.616,0 -26.538,15.082 -26.538,33.709 l 0,222.632 c 0,18.606 11.922,33.829 26.539,33.829 l 321.028,0 c 14.616,0 26.539,-15.223 26.539,-33.829 l 0,-222.632 c 0,-18.626 -11.922,-33.709 -26.539,-33.709 z m -130.438,144.799 0,67.271 c 0,7.703 -6.449,14.222 -14.158,14.222 l -31.834,0 c -7.71,0 -14.159,-6.519 -14.159,-14.222 l 0,-67.271 c -7.477,-7.36 -11.83,-17.537 -11.83,-28.795 0,-21.334 16.491,-39.666 37.459,-40.513 2.222,-0.09 6.673,-0.09 8.895,0 20.968,0.847 37.459,19.179 37.459,40.513 -0.002,11.258 -4.355,21.435 -11.832,28.795 z m 58.444,-144.799 -84.072,0 -8.895,0 -84.072,0 0,-44.388 c 0,-48.905 39.744,-89.342 88.519,-89.342 48.775,0 88.521,40.437 88.521,89.342 l 0,44.388 z"
           inkscape:connector-curvature="0"
           style="fill:#ffffff" />
      </g>
      <g
         id="g3360"
         style="fill:#ffffff"
         transform="matrix(0.61479901,0,0,0.61635435,-34.621177,0)" />
      <g
         id="g3362"
         style="fill:#ffffff"
         transform="matrix(0.61479901,0,0,0.61635435,-34.621177,0)" />
      <g
         id="g3364"
         style="fill:#ffffff"
         transform="matrix(0.61479901,0,0,0.61635435,-34.621177,0)" />
      <g
         id="g3366"
         style="fill:#ffffff"
         transform="matrix(0.61479901,0,0,0.61635435,-34.621177,0)" />
      <g
         id="g3368"
         style="fill:#ffffff"
         transform="matrix(0.61479901,0,0,0.61635435,-34.621177,0)" />
      <g
         id="g3370"
         style="fill:#ffffff"
         transform="matrix(0.61479901,0,0,0.61635435,-34.621177,0)" />
      <g
         id="g3372"
         style="fill:#ffffff"
         transform="matrix(0.61479901,0,0,0.61635435,-34.621177,0)" />
      <g
         id="g3374"
         style="fill:#ffffff"
         transform="matrix(0.61479901,0,0,0.61635435,-34.621177,0)" />
      <g
         id="g3376"
         style="fill:#ffffff"
         transform="matrix(0.61479901,0,0,0.61635435,-34.621177,0)" />
      <g
         id="g3378"
         style="fill:#ffffff"
         transform="matrix(0.61479901,0,0,0.61635435,-34.621177,0)" />
      <g
         id="g3380"
         style="fill:#ffffff"
         transform="matrix(0.61479901,0,0,0.61635435,-34.621177,0)" />
      <g
         id="g3382"
         style="fill:#ffffff"
         transform="matrix(0.61479901,0,0,0.61635435,-34.621177,0)" />
      <g
         id="g3384"
         style="fill:#ffffff"
         transform="matrix(0.61479901,0,0,0.61635435,-34.621177,0)" />
      <g
         id="g3386"
         style="fill:#ffffff"
         transform="matrix(0.61479901,0,0,0.61635435,-34.621177,0)" />
      <g
         id="g3388"
         style="fill:#ffffff"
         transform="matrix(0.61479901,0,0,0.61635435,-34.621177,0)" />
    </marker>
    <clipPath
       clipPathUnits="userSpaceOnUse"
       id="clipPath3594">
      <ellipse
         id="circle3596"
         cy="267.70319"
         cx="243.366"
         style="display:inline;fill:#f0a30a;fill-opacity:1"
         rx="325.30957"
         ry="324.48868" />
    </clipPath>
  </defs>
  <metadata
     id="metadata3571">
    <rdf:RDF>
      <cc:Work
         rdf:about="">
        <dc:format>image/svg+xml</dc:format>
        <dc:type
           rdf:resource="http://purl.org/dc/dcmitype/StillImage" />
        <dc:title />
      </cc:Work>
    </rdf:RDF>
  </metadata>
  <g
     style="display:inline"
     transform="translate(0,-652.36216)"
     id="layer1"
     inkscape:groupmode="layer"
     inkscape:label="Layer 1">
    <circle
       style="fill:#f0a30a;fill-opacity:1"
       r="200"
       cx="200"
       cy="852.36218"
       id="circle3938" />
  </g>
  <g
     transform="translate(0,-652.36216)"
     style="display:inline"
     inkscape:label="Layer 2"
     id="layer2"
     inkscape:groupmode="layer">
    <g
       transform="matrix(0.61479901,0,0,0.61635435,50.378823,687.36216)"
       id="g5991"
       style="fill:#ffffff">
      <path
         id="path5993"
         d="m 403.88,196.563 -9.484,0 0,-44.388 C 394.396,70.076 329.245,1.494 247.814,0.03 c -2.225,-0.04 -6.671,-0.04 -8.895,0 C 157.486,1.494 92.336,70.076 92.336,152.175 l 0,44.388 -9.485,0 c -14.616,0 -26.538,15.082 -26.538,33.709 l 0,222.632 c 0,18.606 11.922,33.829 26.539,33.829 l 321.028,0 c 14.616,0 26.539,-15.223 26.539,-33.829 l 0,-222.632 c 0,-18.626 -11.922,-33.709 -26.539,-33.709 z m -130.438,144.799 0,67.271 c 0,7.703 -6.449,14.222 -14.158,14.222 l -31.834,0 c -7.71,0 -14.159,-6.519 -14.159,-14.222 l 0,-67.271 c -7.477,-7.36 -11.83,-17.537 -11.83,-28.795 0,-21.334 16.491,-39.666 37.459,-40.513 2.222,-0.09 6.673,-0.09 8.895,0 20.968,0.847 37.459,19.179 37.459,40.513 -0.002,11.258 -4.355,21.435 -11.832,28.795 z m 58.444,-144.799 -84.072,0 -8.895,0 -84.072,0 0,-44.388 c 0,-48.905 39.744,-89.342 88.519,-89.342 48.775,0 88.521,40.437 88.521,89.342 l 0,44.388 z"
         inkscape:connector-curvature="0"
         style="fill:#ffffff" />
    </g>
    <g
       transform="matrix(0.61479901,0,0,0.61635435,50.378823,687.36216)"
       id="g5995"
       style="fill:#ffffff" />
    <g
       transform="matrix(0.61479901,0,0,0.61635435,50.378823,687.36216)"
       id="g5997"
       style="fill:#ffffff" />
    <g
       transform="matrix(0.61479901,0,0,0.61635435,50.378823,687.36216)"
       id="g5999"
       style="fill:#ffffff" />
    <g
       transform="matrix(0.61479901,0,0,0.61635435,50.378823,687.36216)"
       id="g6001"
       style="fill:#ffffff" />
    <g
       transform="matrix(0.61479901,0,0,0.61635435,50.378823,687.36216)"
       id="g6003"
       style="fill:#ffffff" />
    <g
       transform="matrix(0.61479901,0,0,0.61635435,50.378823,687.36216)"
       id="g6005"
       style="fill:#ffffff" />
    <g
       transform="matrix(0.61479901,0,0,0.61635435,50.378823,687.36216)"
       id="g6007"
       style="fill:#ffffff" />
    <g
       transform="matrix(0.61479901,0,0,0.61635435,50.378823,687.36216)"
       id="g6009"
       style="fill:#ffffff" />
    <g
       transform="matrix(0.61479901,0,0,0.61635435,50.378823,687.36216)"
       id="g6011"
       style="fill:#ffffff" />
    <g
       transform="matrix(0.61479901,0,0,0.61635435,50.378823,687.36216)"
       id="g6013"
       style="fill:#ffffff" />
    <g
       transform="matrix(0.61479901,0,0,0.61635435,50.378823,687.36216)"
       id="g6015"
       style="fill:#ffffff" />
    <g
       transform="matrix(0.61479901,0,0,0.61635435,50.378823,687.36216)"
       id="g6017"
       style="fill:#ffffff" />
    <g
       transform="matrix(0.61479901,0,0,0.61635435,50.378823,687.36216)"
       id="g6019"
       style="fill:#ffffff" />
    <g
       transform="matrix(0.61479901,0,0,0.61635435,50.378823,687.36216)"
       id="g6021"
       style="fill:#ffffff" />
    <g
       transform="matrix(0.61479901,0,0,0.61635435,50.378823,687.36216)"
       id="g6023"
       style="fill:#ffffff" />
    <g
       style="fill:#b47a08;fill-opacity:1"
       id="g3611"
       transform="matrix(0.61479901,0,0,0.61635435,50.378823,687.36216)"
       clip-path="url(#clipPath3594)">
      <g
         id="g3422"
         style="fill:#b47a08;fill-opacity:1">
        <g
           id="g3424"
           style="fill:#b47a08;fill-opacity:1">
          <path
             id="path3426"
             d="M403.88 196.563L394.396 196.563L747.949390593 550.116390593L757.433390593 550.116390593Z"
             style="fill:#b47a08;fill-opacity:1" />
          <path
             id="path3428"
             d="M394.396 196.563L394.396 152.175L747.949390593 505.728390593L747.949390593 550.116390593Z"
             style="fill:#b47a08;fill-opacity:1" />
          <path
             id="path3430"
             d="M394.396 152.175C394.396 109.986921188 377.19218163 71.3681507968 349.415970005 43.591939172L702.969360598 397.145329765C730.745572223 424.92154139 747.949390593 463.540311781 747.949390593 505.728390593Z"
             style="fill:#b47a08;fill-opacity:1" />
          <path
             id="path3432"
             d="M349.415970005 43.591939172C323.139016318 17.3149854856 287.400185255 0.741696715177 247.814 0.03L601.367390593 353.583390593C640.953575848 354.295087308 676.692406912 370.868376079 702.969360598 397.145329765Z"
             style="fill:#b47a08;fill-opacity:1" />
          <path
             id="path3434"
             d="M247.814 0.03C245.589 -0.01 241.143 -0.01 238.919 0.03L592.472390593 353.583390593C594.696390593 353.543390593 599.142390593 353.543390593 601.367390593 353.583390593Z"
             style="fill:#b47a08;fill-opacity:1" />
          <path
             id="path3436"
             d="M238.919 0.03C157.486 1.494 92.336 70.076 92.336 152.175L445.889390593 505.728390593C445.889390593 423.629390593 511.039390593 355.047390593 592.472390593 353.583390593Z"
             style="fill:#b47a08;fill-opacity:1" />
          <path
             id="path3438"
             d="M92.336 152.175L92.336 196.563L445.889390593 550.116390593L445.889390593 505.728390593Z"
             style="fill:#b47a08;fill-opacity:1" />
          <path
             id="path3440"
             d="M92.336 196.563L82.851 196.563L436.404390593 550.116390593L445.889390593 550.116390593Z"
             style="fill:#b47a08;fill-opacity:1" />
          <path
             id="path3442"
             d="M82.851 196.563C68.235 196.563 56.313 211.645 56.313 230.272L409.866390593 583.825390593C409.866390593 565.198390593 421.788390593 550.116390593 436.404390593 550.116390593Z"
             style="fill:#b47a08;fill-opacity:1" />
          <path
             id="path3444"
             d="M56.313 230.272L56.313 452.904L409.866390593 806.457390593L409.866390593 583.825390593Z"
             style="fill:#b47a08;fill-opacity:1" />
          <path
             id="path3446"
             d="M56.313 452.904C56.313 463.680649403 60.312545047 473.322383449 66.5187489044 479.528587306L420.072139498 833.0819779C413.86593564 826.875774042 409.866390593 817.234039997 409.866390593 806.457390593Z"
             style="fill:#b47a08;fill-opacity:1" />
          <path
             id="path3448"
             d="M66.5187489044 479.528587306C71.0276221224 484.037460524 76.7012089825 486.733 82.852 486.733L436.405390593 840.286390593C430.254599576 840.286390593 424.581012716 837.590851118 420.072139498 833.0819779Z"
             style="fill:#b47a08;fill-opacity:1" />
          <path
             id="path3450"
             d="M82.852 486.733L403.88 486.733L757.433390593 840.286390593L436.405390593 840.286390593Z"
             style="fill:#b47a08;fill-opacity:1" />
          <path
             id="path3452"
             d="M403.88 486.733C418.496 486.733 430.419 471.51 430.419 452.904L783.972390593 806.457390593C783.972390593 825.063390593 772.049390593 840.286390593 757.433390593 840.286390593Z"
             style="fill:#b47a08;fill-opacity:1" />
          <path
             id="path3454"
             d="M430.419 452.904L430.419 230.272L783.972390593 583.825390593L783.972390593 806.457390593Z"
             style="fill:#b47a08;fill-opacity:1" />
          <path
             id="path3456"
             d="M430.419 230.272C430.419 219.519628583 426.446001184 209.947959633 420.275069519 203.777027969L773.828460113 557.330418562C779.999391777 563.501350226 783.972390593 573.073019176 783.972390593 583.825390593Z"
             style="fill:#b47a08;fill-opacity:1" />
          <path
             id="path3458"
             d="M420.275069519 203.777027969C415.756287378 199.258245827 410.058934232 196.563 403.88 196.563L757.433390593 550.116390593C763.612324825 550.116390593 769.309677972 552.811636421 773.828460113 557.330418562Z"
             style="fill:#b47a08;fill-opacity:1" />
          <path
             id="path3460"
             d="M273.442 341.362L273.442 408.633L626.995390593 762.186390593L626.995390593 694.915390593Z"
             style="fill:#b47a08;fill-opacity:1" />
          <path
             id="path3462"
             d="M273.442 408.633C273.442 416.336 266.993 422.855 259.284 422.855L612.837390593 776.408390593C620.546390593 776.408390593 626.995390593 769.889390593 626.995390593 762.186390593Z"
             style="fill:#b47a08;fill-opacity:1" />
          <path
             id="path3464"
             d="M259.284 422.855L227.45 422.855L581.003390593 776.408390593L612.837390593 776.408390593Z"
             style="fill:#b47a08;fill-opacity:1" />
          <path
             id="path3466"
             d="M227.45 422.855C223.611632208 422.855 220.085800023 421.239282616 217.512645844 418.666128436L571.066036437 772.219519029C573.639190617 774.792673209 577.165022802 776.408390593 581.003390593 776.408390593Z"
             style="fill:#b47a08;fill-opacity:1" />
          <path
             id="path3468"
             d="M217.512645844 418.666128436C214.917191958 416.070674551 213.291 412.501117108 213.291 408.633L566.844390593 762.186390593C566.844390593 766.054507701 568.470582551 769.624065144 571.066036437 772.219519029Z"
             style="fill:#b47a08;fill-opacity:1" />
          <path
             id="path3470"
             d="M213.291 408.633L213.291 341.362L566.844390593 694.915390593L566.844390593 762.186390593Z"
             style="fill:#b47a08;fill-opacity:1" />
          <path
             id="path3472"
             d="M213.291 341.362C213.217344313 341.289496877 213.143991785 341.216720387 213.070943588 341.143672191L566.624334182 694.697062784C566.697382378 694.77011098 566.770734907 694.84288747 566.844390593 694.915390593Z"
             style="fill:#b47a08;fill-opacity:1" />
          <path
             id="path3474"
             d="M213.070943588 341.143672191C205.728659896 333.801388498 201.461 323.714097804 201.461 312.567L555.014390593 666.120390593C555.014390593 677.267488397 559.282050489 687.354779092 566.624334182 694.697062784Z"
             style="fill:#b47a08;fill-opacity:1" />
          <path
             id="path3476"
             d="M201.461 312.567C201.461 291.233 217.952 272.901 238.92 272.054L592.473390593 625.607390593C571.505390593 626.454390593 555.014390593 644.786390593 555.014390593 666.120390593Z"
             style="fill:#b47a08;fill-opacity:1" />
          <path
             id="path3478"
             d="M238.92 272.054C241.142 271.964 245.593 271.964 247.815 272.054L601.368390593 625.607390593C599.146390593 625.517390593 594.695390593 625.517390593 592.473390593 625.607390593Z"
             style="fill:#b47a08;fill-opacity:1" />
          <path
             id="path3480"
             d="M247.815 272.054C257.6811099 272.452540399 266.556011394 276.722262162 273.188136484 283.354387252L626.741527077 636.907777845C620.109401987 630.275652755 611.234500493 626.005930992 601.368390593 625.607390593Z"
             style="fill:#b47a08;fill-opacity:1" />
          <path
             id="path3482"
             d="M273.188136484 283.354387252C280.65096881 290.817219577 285.274 301.271324523 285.274 312.567L638.827390593 666.120390593C638.827390593 654.824715116 634.204359403 644.370610171 626.741527077 636.907777845Z"
             style="fill:#b47a08;fill-opacity:1" />
          <path
             id="path3484"
             d="M285.274 312.567C285.272 323.825 280.919 334.002 273.442 341.362L626.995390593 694.915390593C634.472390593 687.555390593 638.825390593 677.378390593 638.827390593 666.120390593Z"
             style="fill:#b47a08;fill-opacity:1" />
          <path
             id="path3486"
             d="M331.886 196.563L247.814 196.563L601.367390593 550.116390593L685.439390593 550.116390593Z"
             style="fill:#b47a08;fill-opacity:1" />
          <path
             id="path3488"
             d="M247.814 196.563L238.919 196.563L592.472390593 550.116390593L601.367390593 550.116390593Z"
             style="fill:#b47a08;fill-opacity:1" />
          <path
             id="path3490"
             d="M238.919 196.563L154.847 196.563L508.400390593 550.116390593L592.472390593 550.116390593Z"
             style="fill:#b47a08;fill-opacity:1" />
          <path
             id="path3492"
             d="M154.847 196.563L154.847 152.175L508.400390593 505.728390593L508.400390593 550.116390593Z"
             style="fill:#b47a08;fill-opacity:1" />
          <path
             id="path3494"
             d="M154.847 152.175C154.847 103.27 194.591 62.833 243.366 62.833L596.919390593 416.386390593C548.144390593 416.386390593 508.400390593 456.823390593 508.400390593 505.728390593Z"
             style="fill:#b47a08;fill-opacity:1" />
          <path
             id="path3496"
             d="M243.366 62.833C267.564760897 62.833 289.541075096 72.7863810043 305.543776035 88.7890819425L659.097166628 442.342472536C643.09446569 426.339771598 621.11815149 416.386390593 596.919390593 416.386390593Z"
             style="fill:#b47a08;fill-opacity:1" />
          <path
             id="path3498"
             d="M305.543776035 88.7890819425C321.796104252 105.04141016 331.887 127.53325785 331.887 152.175L685.440390593 505.728390593C685.440390593 481.086648444 675.349494846 458.594800754 659.097166628 442.342472536Z"
             style="fill:#b47a08;fill-opacity:1" />
          <path
             id="path3500"
             d="M331.887 152.175L331.887 196.563L685.440390593 550.116390593L685.440390593 505.728390593Z"
             style="fill:#b47a08;fill-opacity:1" />
        </g>
        <path
           style="fill:#b47a08;fill-opacity:1"
           inkscape:connector-curvature="0"
           d="m 403.88,196.563 -9.484,0 0,-44.388 C 394.396,70.076 329.245,1.494 247.814,0.03 c -2.225,-0.04 -6.671,-0.04 -8.895,0 C 157.486,1.494 92.336,70.076 92.336,152.175 l 0,44.388 -9.485,0 c -14.616,0 -26.538,15.082 -26.538,33.709 l 0,222.632 c 0,18.606 11.922,33.829 26.539,33.829 l 321.028,0 c 14.616,0 26.539,-15.223 26.539,-33.829 l 0,-222.632 c 0,-18.626 -11.922,-33.709 -26.539,-33.709 z m -130.438,144.799 0,67.271 c 0,7.703 -6.449,14.222 -14.158,14.222 l -31.834,0 c -7.71,0 -14.159,-6.519 -14.159,-14.222 l 0,-67.271 c -7.477,-7.36 -11.83,-17.537 -11.83,-28.795 0,-21.334 16.491,-39.666 37.459,-40.513 2.222,-0.09 6.673,-0.09 8.895,0 20.968,0.847 37.459,19.179 37.459,40.513 -0.002,11.258 -4.355,21.435 -11.832,28.795 z m 58.444,-144.799 -84.072,0 -8.895,0 -84.072,0 0,-44.388 c 0,-48.905 39.744,-89.342 88.519,-89.342 48.775,0 88.521,40.437 88.521,89.342 l 0,44.388 z"
           id="path3613" />
      </g>
    </g>
  </g>
  <g
     style="display:inline"
     inkscape:label="Layer 3"
     id="layer3"
     inkscape:groupmode="layer">
    <g
       transform="matrix(0.61479901,0,0,0.61635435,50.378823,35)"
       id="g3373"
       style="display:inline;fill:#ffffff">
      <path
         id="path3375"
         d="m 403.88,196.563 -9.484,0 0,-44.388 C 394.396,70.076 329.245,1.494 247.814,0.03 c -2.225,-0.04 -6.671,-0.04 -8.895,0 C 157.486,1.494 92.336,70.076 92.336,152.175 l 0,44.388 -9.485,0 c -14.616,0 -26.538,15.082 -26.538,33.709 l 0,222.632 c 0,18.606 11.922,33.829 26.539,33.829 l 321.028,0 c 14.616,0 26.539,-15.223 26.539,-33.829 l 0,-222.632 c 0,-18.626 -11.922,-33.709 -26.539,-33.709 z m -130.438,144.799 0,67.271 c 0,7.703 -6.449,14.222 -14.158,14.222 l -31.834,0 c -7.71,0 -14.159,-6.519 -14.159,-14.222 l 0,-67.271 c -7.477,-7.36 -11.83,-17.537 -11.83,-28.795 0,-21.334 16.491,-39.666 37.459,-40.513 2.222,-0.09 6.673,-0.09 8.895,0 20.968,0.847 37.459,19.179 37.459,40.513 -0.002,11.258 -4.355,21.435 -11.832,28.795 z m 58.444,-144.799 -84.072,0 -8.895,0 -84.072,0 0,-44.388 c 0,-48.905 39.744,-89.342 88.519,-89.342 48.775,0 88.521,40.437 88.521,89.342 l 0,44.388 z"
         inkscape:connector-curvature="0"
         style="fill:#ffffff" />
    </g>
  </g>
</svg>
