<?xml version="1.0" encoding="UTF-8" standalone="no"?>
<!-- Created with Inkscape (http://www.inkscape.org/) -->

<svg
   xmlns:dc="http://purl.org/dc/elements/1.1/"
   xmlns:cc="http://creativecommons.org/ns#"
   xmlns:rdf="http://www.w3.org/1999/02/22-rdf-syntax-ns#"
   xmlns:svg="http://www.w3.org/2000/svg"
   xmlns="http://www.w3.org/2000/svg"
   xmlns:sodipodi="http://sodipodi.sourceforge.net/DTD/sodipodi-0.dtd"
   xmlns:inkscape="http://www.inkscape.org/namespaces/inkscape"
   sodipodi:docname="type_windows.svg"
   inkscape:version="0.91 r13725"
   version="1.1"
   id="svg3566"
   viewBox="0 0 399.99999 400.00001"
   height="400"
   width="400">
  <sodipodi:namedview
     inkscape:window-maximized="1"
     inkscape:window-y="0"
     inkscape:window-x="0"
     inkscape:window-height="751"
     inkscape:window-width="1280"
     units="px"
     showgrid="false"
     inkscape:current-layer="layer2"
     inkscape:document-units="px"
     inkscape:cy="234.18412"
     inkscape:cx="-173.96148"
     inkscape:zoom="0.5"
     inkscape:pageshadow="2"
     inkscape:pageopacity="0.0"
     borderopacity="1.0"
     bordercolor="#666666"
     pagecolor="#ffffff"
     id="base" />
  <defs
     id="defs3568">
    <clipPath
       id="clipPath3529"
       clipPathUnits="userSpaceOnUse">
      <g
         style="fill:#ffffff"
         transform="matrix(0.54166892,0,0,0.54166669,59.999458,722.36215)"
         id="g3531">
        <g
           style="fill:#ffffff"
           id="g3533">
          <g
             id="g3535">
            <g
               style="fill:#ffffff"
               id="g3537">
              <path
                 inkscape:connector-curvature="0"
                 d="M 0.176,224 0.001,67.963 l 353.55339,353.55339 0.175,156.037 z"
                 id="path3539" />
              <path
                 inkscape:connector-curvature="0"
                 d="m 0.001,67.963 192,-26.072 353.55339,353.55339 -192,26.072 z"
                 id="path3541" />
              <path
                 inkscape:connector-curvature="0"
                 d="m 192.001,41.891 0,182.109 353.55339,353.55339 0,-182.109 z"
                 id="path3543" />
              <path
                 inkscape:connector-curvature="0"
                 d="m 192.001,224 -191.825,0 353.55339,353.55339 191.825,0 z"
                 id="path3545" />
              <path
                 inkscape:connector-curvature="0"
                 d="M 224.001,37.241 479.937,0 l 353.55339,353.55339 -255.936,37.241 z"
                 id="path3547" />
              <path
                 inkscape:connector-curvature="0"
                 d="m 479.937,0 0,224 353.55339,353.55339 0,-224 z"
                 id="path3549" />
              <path
                 inkscape:connector-curvature="0"
                 d="m 479.937,224 -255.936,0 353.55339,353.55339 255.936,0 z"
                 id="path3551" />
              <path
                 inkscape:connector-curvature="0"
                 d="m 224.001,224 0,-186.759 353.55339,353.55339 0,186.759 z"
                 id="path3553" />
              <path
                 inkscape:connector-curvature="0"
                 d="m 479.999,256 -0.062,224 353.55339,353.55339 0.062,-224 z"
                 id="path3555" />
              <path
                 inkscape:connector-curvature="0"
                 d="m 479.937,480 -255.936,-36.008 353.55339,353.55339 255.936,36.008 z"
                 id="path3557" />
              <path
                 inkscape:connector-curvature="0"
                 d="m 224.001,443.992 0,-187.992 353.55339,353.55339 0,187.992 z"
                 id="path3559" />
              <path
                 inkscape:connector-curvature="0"
                 d="m 224.001,256 255.998,0 353.55339,353.55339 -255.998,0 z"
                 id="path3561" />
              <path
                 inkscape:connector-curvature="0"
                 d="M 192.001,439.918 0.157,413.621 l 353.55339,353.55339 191.844,26.297 z"
                 id="path3563" />
              <path
                 inkscape:connector-curvature="0"
                 d="M 0.157,413.621 0.147,256 l 353.55339,353.55339 0.01,157.621 z"
                 id="path3565" />
              <path
                 inkscape:connector-curvature="0"
                 d="m 0.147,256 191.854,0 353.55339,353.55339 -191.854,0 z"
                 id="path3567" />
              <path
                 inkscape:connector-curvature="0"
                 d="m 192.001,256 0,183.918 353.55339,353.55339 0,-183.918 z"
                 id="path3569" />
            </g>
            <path
               style="fill:#ffffff"
               inkscape:connector-curvature="0"
               d="M 0.176,224 0.001,67.963 l 192,-26.072 0,182.109 -191.825,0 z M 224.001,37.241 479.937,0 l 0,224 -255.936,0 0,-186.759 z M 479.999,256 l -0.062,224 -255.936,-36.008 0,-187.992 255.998,0 z M 192.001,439.918 0.157,413.621 0.147,256 l 191.854,0 0,183.918 z"
               id="path3571" />
          </g>
        </g>
        <g
           style="fill:#ffffff"
           id="g3573" />
        <g
           style="fill:#ffffff"
           id="g3575" />
        <g
           style="fill:#ffffff"
           id="g3577" />
        <g
           style="fill:#ffffff"
           id="g3579" />
        <g
           style="fill:#ffffff"
           id="g3581" />
        <g
           style="fill:#ffffff"
           id="g3583" />
        <g
           style="fill:#ffffff"
           id="g3585" />
        <g
           style="fill:#ffffff"
           id="g3587" />
        <g
           style="fill:#ffffff"
           id="g3589" />
        <g
           style="fill:#ffffff"
           id="g3591" />
        <g
           style="fill:#ffffff"
           id="g3593" />
        <g
           style="fill:#ffffff"
           id="g3595" />
        <g
           style="fill:#ffffff"
           id="g3597" />
        <g
           style="fill:#ffffff"
           id="g3599" />
        <g
           style="fill:#ffffff"
           id="g3601" />
      </g>
    </clipPath>
    <clipPath
       clipPathUnits="userSpaceOnUse"
       id="clipPath4174">
      <ellipse
         id="circle4176"
         cy="240.00005"
         cx="258.46146"
         style="fill:#1ba1e2;fill-opacity:1"
         rx="369.22925"
         ry="369.23074" />
    </clipPath>
  </defs>
  <metadata
     id="metadata3571">
    <rdf:RDF>
      <cc:Work
         rdf:about="">
        <dc:format>image/svg+xml</dc:format>
        <dc:type
           rdf:resource="http://purl.org/dc/dcmitype/StillImage" />
        <dc:title />
      </cc:Work>
    </rdf:RDF>
  </metadata>
  <g
     inkscape:label="Layer 1"
     inkscape:groupmode="layer"
     id="layer1"
     transform="translate(0,-652.36216)"
     style="display:inline">
    <circle
       clip-path="url(#clipPath3529)"
       style="fill:#1ba1e2;fill-opacity:1"
       r="200"
       cx="200"
       cy="852.36218"
       id="circle3527" />
    <circle
       id="circle3938"
       cy="852.36218"
       cx="200"
       r="200"
       style="fill:#1ba1e2;fill-opacity:1" />
    <circle
       style="fill:#1ba1e2;fill-opacity:1"
       r="200"
       cx="200"
       cy="852.36218"
       id="circle3640" />
  </g>
  <g
     inkscape:groupmode="layer"
     id="layer2"
     inkscape:label="Layer 2"
     style="display:inline"
     transform="translate(0,-652.36216)">
    <g
       id="g5774"
       transform="matrix(0.54166892,0,0,0.54166669,59.999458,722.36215)"
       style="fill:#ffffff">
      <g
         id="g5734"
         style="fill:#ffffff">
        <path
           id="path5736"
           d="M 0.176,224 0.001,67.963 l 192,-26.072 0,182.109 -191.825,0 z M 224.001,37.241 479.937,0 l 0,224 -255.936,0 0,-186.759 z M 479.999,256 l -0.062,224 -255.936,-36.008 0,-187.992 255.998,0 z M 192.001,439.918 0.157,413.621 0.147,256 l 191.854,0 0,183.918 z"
           inkscape:connector-curvature="0"
           style="fill:#ffffff" />
      </g>
      <g
         id="g5738"
         style="fill:#ffffff" />
      <g
         id="g5740"
         style="fill:#ffffff" />
      <g
         id="g5742"
         style="fill:#ffffff" />
      <g
         id="g5744"
         style="fill:#ffffff" />
      <g
         id="g5746"
         style="fill:#ffffff" />
      <g
         id="g5748"
         style="fill:#ffffff" />
      <g
         id="g5750"
         style="fill:#ffffff" />
      <g
         id="g5752"
         style="fill:#ffffff" />
      <g
         id="g5754"
         style="fill:#ffffff" />
      <g
         id="g5756"
         style="fill:#ffffff" />
      <g
         id="g5758"
         style="fill:#ffffff" />
      <g
         id="g5760"
         style="fill:#ffffff" />
      <g
         id="g5762"
         style="fill:#ffffff" />
      <g
         id="g5764"
         style="fill:#ffffff" />
      <g
         id="g5766"
         style="fill:#ffffff" />
    </g>
    <g
       style="fill:#0f5a7f;fill-opacity:1"
       transform="matrix(0.54166892,0,0,0.54166669,59.999458,722.36215)"
       id="g3604"
       clip-path="url(#clipPath4174)">
      <g
         style="fill:#0f5a7f;fill-opacity:1"
         id="g3606">
        <g
           id="g3984"
           style="fill:#0f5a7f;fill-opacity:1">
          <g
             id="g3986"
             style="fill:#0f5a7f;fill-opacity:1">
            <path
               id="path3988"
               d="M 0.176,224 0.001,67.963 l 353.55339,353.55339 0.175,156.037 z"
               inkscape:connector-curvature="0"
               style="fill:#0f5a7f;fill-opacity:1" />
            <path
               id="path3990"
               d="m 0.001,67.963 192,-26.072 353.55339,353.55339 -192,26.072 z"
               inkscape:connector-curvature="0"
               style="fill:#0f5a7f;fill-opacity:1" />
            <path
               id="path3992"
               d="m 192.001,41.891 0,182.109 353.55339,353.55339 0,-182.109 z"
               inkscape:connector-curvature="0"
               style="fill:#0f5a7f;fill-opacity:1" />
            <path
               id="path3994"
               d="m 192.001,224 -191.825,0 353.55339,353.55339 191.825,0 z"
               inkscape:connector-curvature="0"
               style="fill:#0f5a7f;fill-opacity:1" />
            <path
               id="path3996"
               d="M 224.001,37.241 479.937,0 l 353.55339,353.55339 -255.936,37.241 z"
               inkscape:connector-curvature="0"
               style="fill:#0f5a7f;fill-opacity:1" />
            <path
               id="path3998"
               d="m 479.937,0 0,224 353.55339,353.55339 0,-224 z"
               inkscape:connector-curvature="0"
               style="fill:#0f5a7f;fill-opacity:1" />
            <path
               id="path4000"
               d="m 479.937,224 -255.936,0 353.55339,353.55339 255.936,0 z"
               inkscape:connector-curvature="0"
               style="fill:#0f5a7f;fill-opacity:1" />
            <path
               id="path4002"
               d="m 224.001,224 0,-186.759 353.55339,353.55339 0,186.759 z"
               inkscape:connector-curvature="0"
               style="fill:#0f5a7f;fill-opacity:1" />
            <path
               id="path4004"
               d="m 479.999,256 -0.062,224 353.55339,353.55339 0.062,-224 z"
               inkscape:connector-curvature="0"
               style="fill:#0f5a7f;fill-opacity:1" />
            <path
               id="path4006"
               d="m 479.937,480 -255.936,-36.008 353.55339,353.55339 255.936,36.008 z"
               inkscape:connector-curvature="0"
               style="fill:#0f5a7f;fill-opacity:1" />
            <path
               id="path4008"
               d="m 224.001,443.992 0,-187.992 353.55339,353.55339 0,187.992 z"
               inkscape:connector-curvature="0"
               style="fill:#0f5a7f;fill-opacity:1" />
            <path
               id="path4010"
               d="m 224.001,256 255.998,0 353.55339,353.55339 -255.998,0 z"
               inkscape:connector-curvature="0"
               style="fill:#0f5a7f;fill-opacity:1" />
            <path
               id="path4012"
               d="M 192.001,439.918 0.157,413.621 l 353.55339,353.55339 191.844,26.297 z"
               inkscape:connector-curvature="0"
               style="fill:#0f5a7f;fill-opacity:1" />
            <path
               id="path4014"
               d="M 0.157,413.621 0.147,256 l 353.55339,353.55339 0.01,157.621 z"
               inkscape:connector-curvature="0"
               style="fill:#0f5a7f;fill-opacity:1" />
            <path
               id="path4016"
               d="m 0.147,256 191.854,0 353.55339,353.55339 -191.854,0 z"
               inkscape:connector-curvature="0"
               style="fill:#0f5a7f;fill-opacity:1" />
            <path
               id="path4018"
               d="m 192.001,256 0,183.918 353.55339,353.55339 0,-183.918 z"
               inkscape:connector-curvature="0"
               style="fill:#0f5a7f;fill-opacity:1" />
          </g>
          <path
             style="fill:#0f5a7f;fill-opacity:1"
             inkscape:connector-curvature="0"
             d="M 0.176,224 0.001,67.963 l 192,-26.072 0,182.109 -191.825,0 z M 224.001,37.241 479.937,0 l 0,224 -255.936,0 0,-186.759 z M 479.999,256 l -0.062,224 -255.936,-36.008 0,-187.992 255.998,0 z M 192.001,439.918 0.157,413.621 0.147,256 l 191.854,0 0,183.918 z"
             id="path3608" />
        </g>
      </g>
      <g
         style="fill:#0f5a7f;fill-opacity:1"
         id="g3610" />
      <g
         style="fill:#0f5a7f;fill-opacity:1"
         id="g3612" />
      <g
         style="fill:#0f5a7f;fill-opacity:1"
         id="g3614" />
      <g
         style="fill:#0f5a7f;fill-opacity:1"
         id="g3616" />
      <g
         style="fill:#0f5a7f;fill-opacity:1"
         id="g3618" />
      <g
         style="fill:#0f5a7f;fill-opacity:1"
         id="g3620" />
      <g
         style="fill:#0f5a7f;fill-opacity:1"
         id="g3622" />
      <g
         style="fill:#0f5a7f;fill-opacity:1"
         id="g3624" />
      <g
         style="fill:#0f5a7f;fill-opacity:1"
         id="g3626" />
      <g
         style="fill:#0f5a7f;fill-opacity:1"
         id="g3628" />
      <g
         style="fill:#0f5a7f;fill-opacity:1"
         id="g3630" />
      <g
         style="fill:#0f5a7f;fill-opacity:1"
         id="g3632" />
      <g
         style="fill:#0f5a7f;fill-opacity:1"
         id="g3634" />
      <g
         style="fill:#0f5a7f;fill-opacity:1"
         id="g3636" />
      <g
         style="fill:#0f5a7f;fill-opacity:1"
         id="g3638" />
    </g>
  </g>
  <g
     style="display:inline"
     inkscape:label="Layer 3"
     id="layer4"
     inkscape:groupmode="layer">
    <g
       id="g3860"
       transform="matrix(0.54166892,0,0,0.54166669,59.999458,69.99999)"
       style="display:inline;fill:#ffffff">
      <g
         id="g3862"
         style="fill:#ffffff">
        <path
           id="path3864"
           d="M 0.176,224 0.001,67.963 l 192,-26.072 0,182.109 -191.825,0 z M 224.001,37.241 479.937,0 l 0,224 -255.936,0 0,-186.759 z M 479.999,256 l -0.062,224 -255.936,-36.008 0,-187.992 255.998,0 z M 192.001,439.918 0.157,413.621 0.147,256 l 191.854,0 0,183.918 z"
           inkscape:connector-curvature="0"
           style="fill:#ffffff" />
      </g>
      <g
         id="g3866"
         style="fill:#ffffff" />
      <g
         id="g3868"
         style="fill:#ffffff" />
      <g
         id="g3870"
         style="fill:#ffffff" />
      <g
         id="g3872"
         style="fill:#ffffff" />
      <g
         id="g3874"
         style="fill:#ffffff" />
      <g
         id="g3876"
         style="fill:#ffffff" />
      <g
         id="g3878"
         style="fill:#ffffff" />
      <g
         id="g3880"
         style="fill:#ffffff" />
      <g
         id="g3882"
         style="fill:#ffffff" />
      <g
         id="g3884"
         style="fill:#ffffff" />
      <g
         id="g3886"
         style="fill:#ffffff" />
      <g
         id="g3888"
         style="fill:#ffffff" />
      <g
         id="g3890"
         style="fill:#ffffff" />
      <g
         id="g3892"
         style="fill:#ffffff" />
      <g
         id="g3894"
         style="fill:#ffffff" />
    </g>
  </g>
</svg>
