<?xml version="1.0" encoding="UTF-8" standalone="no"?>
<!-- Created with Inkscape (http://www.inkscape.org/) -->

<svg
   xmlns:dc="http://purl.org/dc/elements/1.1/"
   xmlns:cc="http://creativecommons.org/ns#"
   xmlns:rdf="http://www.w3.org/1999/02/22-rdf-syntax-ns#"
   xmlns:svg="http://www.w3.org/2000/svg"
   xmlns="http://www.w3.org/2000/svg"
   xmlns:sodipodi="http://sodipodi.sourceforge.net/DTD/sodipodi-0.dtd"
   xmlns:inkscape="http://www.inkscape.org/namespaces/inkscape"
   sodipodi:docname="type_iphone.svg"
   inkscape:version="0.91 r13725"
   version="1.1"
   id="svg3566"
   viewBox="0 0 399.99999 400.00001"
   height="400"
   width="400">
  <sodipodi:namedview
     inkscape:window-maximized="1"
     inkscape:window-y="0"
     inkscape:window-x="0"
     inkscape:window-height="751"
     inkscape:window-width="1280"
     units="px"
     showgrid="false"
     inkscape:current-layer="layer2"
     inkscape:document-units="px"
     inkscape:cy="201.33858"
     inkscape:cx="-32.26057"
     inkscape:zoom="0.5"
     inkscape:pageshadow="2"
     inkscape:pageopacity="0.0"
     borderopacity="1.0"
     bordercolor="#666666"
     pagecolor="#ffffff"
     id="base" />
  <defs
     id="defs3568">
    <clipPath
       id="clipPath11198"
       clipPathUnits="userSpaceOnUse">
      <ellipse
         ry="13.023067"
         rx="12.978835"
         style="fill:#0050ef;fill-opacity:1"
         cx="10.382936"
         cy="10.057582"
         id="circle11200" />
    </clipPath>
    <clipPath
       clipPathUnits="userSpaceOnUse"
       id="clipPath5513">
      <ellipse
         style="display:inline;fill:#ff2d55;fill-opacity:1"
         cx="13.721"
         cy="13.721002"
         id="circle5515"
         rx="18.282352"
         ry="18.294666" />
    </clipPath>
  </defs>
  <metadata
     id="metadata3571">
    <rdf:RDF>
      <cc:Work
         rdf:about="">
        <dc:format>image/svg+xml</dc:format>
        <dc:type
           rdf:resource="http://purl.org/dc/dcmitype/StillImage" />
        <dc:title />
      </cc:Work>
    </rdf:RDF>
  </metadata>
  <g
     style="display:inline"
     inkscape:label="Layer 1"
     inkscape:groupmode="layer"
     id="layer1"
     transform="translate(0,-652.36216)">
    <circle
       id="circle3938"
       cy="852.36218"
       cx="200"
       r="200"
       style="fill:#ff2d55;fill-opacity:1" />
  </g>
  <g
     inkscape:groupmode="layer"
     id="layer2"
     inkscape:label="Layer 2"
     style="display:inline"
     transform="translate(0,-652.36216)">
    <g
       style="fill:#ffffff"
       id="g8885"
       transform="matrix(15.409704,0,0,15.357366,40.002034,697.90421)" />
    <g
       style="fill:#ffffff"
       id="g8887"
       transform="matrix(15.409704,0,0,15.357366,40.002034,697.90421)" />
    <g
       style="fill:#ffffff"
       id="g8889"
       transform="matrix(15.409704,0,0,15.357366,40.002034,697.90421)" />
    <g
       style="fill:#ffffff"
       id="g8891"
       transform="matrix(15.409704,0,0,15.357366,40.002034,697.90421)" />
    <g
       style="fill:#ffffff"
       id="g8893"
       transform="matrix(15.409704,0,0,15.357366,40.002034,697.90421)" />
    <g
       style="fill:#ffffff"
       id="g8895"
       transform="matrix(15.409704,0,0,15.357366,40.002034,697.90421)" />
    <g
       style="fill:#ffffff"
       id="g8897"
       transform="matrix(15.409704,0,0,15.357366,40.002034,697.90421)" />
    <g
       style="fill:#ffffff"
       id="g8899"
       transform="matrix(15.409704,0,0,15.357366,40.002034,697.90421)" />
    <g
       style="fill:#ffffff"
       id="g8901"
       transform="matrix(15.409704,0,0,15.357366,40.002034,697.90421)" />
    <g
       style="fill:#ffffff"
       id="g8903"
       transform="matrix(15.409704,0,0,15.357366,40.002034,697.90421)" />
    <g
       style="fill:#ffffff"
       id="g8905"
       transform="matrix(15.409704,0,0,15.357366,40.002034,697.90421)" />
    <g
       style="fill:#ffffff"
       id="g8907"
       transform="matrix(15.409704,0,0,15.357366,40.002034,697.90421)" />
    <g
       style="fill:#ffffff"
       id="g8909"
       transform="matrix(15.409704,0,0,15.357366,40.002034,697.90421)" />
    <g
       style="fill:#ffffff"
       id="g8911"
       transform="matrix(15.409704,0,0,15.357366,40.002034,697.90421)" />
    <g
       style="fill:#ffffff"
       id="g8913"
       transform="matrix(15.409704,0,0,15.357366,40.002034,697.90421)" />
    <g
       id="g5141"
       transform="matrix(10.939511,0,0,10.932148,49.89897,702.36216)"
       style="display:inline;fill:#ae0021;fill-opacity:1"
       clip-path="url(#clipPath5513)">
      <g
         id="g5143"
         style="fill:#ae0021;fill-opacity:1">
        <g
           id="g5147"
           style="fill:#ae0021;fill-opacity:1" />
        <g
           id="g5149"
           style="fill:#ae0021;fill-opacity:1" />
        <g
           id="g5151"
           style="fill:#ae0021;fill-opacity:1" />
        <g
           id="g5153"
           style="fill:#ae0021;fill-opacity:1" />
        <g
           id="g5155"
           style="fill:#ae0021;fill-opacity:1" />
        <g
           id="g5157"
           style="fill:#ae0021;fill-opacity:1" />
        <g
           id="g5159"
           style="fill:#ae0021;fill-opacity:1" />
        <g
           id="g5161"
           style="fill:#ae0021;fill-opacity:1" />
        <g
           id="g5163"
           style="fill:#ae0021;fill-opacity:1" />
        <g
           id="g5165"
           style="fill:#ae0021;fill-opacity:1" />
        <g
           id="g5167"
           style="fill:#ae0021;fill-opacity:1" />
        <g
           id="g5169"
           style="fill:#ae0021;fill-opacity:1" />
        <g
           id="g5171"
           style="fill:#ae0021;fill-opacity:1" />
        <g
           id="g5173"
           style="fill:#ae0021;fill-opacity:1" />
        <g
           id="g5175"
           style="fill:#ae0021;fill-opacity:1" />
        <g
           id="g5281"
           style="fill:#ae0021;fill-opacity:1">
          <g
             id="g5283"
             style="fill:#ae0021;fill-opacity:1">
            <path
               id="path5285"
               d="m 19.494,0 -11.546,0 353.55339,353.55339 11.546,0 z"
               inkscape:connector-curvature="0"
               style="fill:#ae0021;fill-opacity:1" />
            <path
               id="path5287"
               d="M 7.948,0 C 6.843,0 5.951,0.896 5.951,1.999 l 353.55339,353.55339 c 0,-1.103 0.892,-1.999 1.997,-1.999 z"
               inkscape:connector-curvature="0"
               style="fill:#ae0021;fill-opacity:1" />
            <path
               id="path5289"
               d="m 5.951,1.999 0,23.446 353.55339,353.55339 0,-23.446 z"
               inkscape:connector-curvature="0"
               style="fill:#ae0021;fill-opacity:1" />
            <path
               id="path5291"
               d="m 5.951,25.445 c 0,0.551374 0.2233032,1.050929 0.5848615,1.412487 L 360.08925,380.41088 c -0.36156,-0.36156 -0.58486,-0.86111 -0.58486,-1.41249 z"
               inkscape:connector-curvature="0"
               style="fill:#ae0021;fill-opacity:1" />
            <path
               id="path5293"
               d="M 6.5358615,26.857487 C 6.8969287,27.218554 7.3958755,27.442 7.948,27.442 l 353.55339,353.55339 c -0.55212,0 -1.05107,-0.22345 -1.41214,-0.58451 z"
               inkscape:connector-curvature="0"
               style="fill:#ae0021;fill-opacity:1" />
            <path
               id="path5295"
               d="m 7.948,27.442 11.546,0 353.55339,353.55339 -11.546,0 z"
               inkscape:connector-curvature="0"
               style="fill:#ae0021;fill-opacity:1" />
            <path
               id="path5297"
               d="m 19.494,27.442 c 1.103,0 1.997,-0.895 1.997,-1.997 l 353.55339,353.55339 c 0,1.102 -0.894,1.997 -1.997,1.997 z"
               inkscape:connector-curvature="0"
               style="fill:#ae0021;fill-opacity:1" />
            <path
               id="path5299"
               d="m 21.491,25.445 0,-23.446 353.55339,353.55339 0,23.446 z"
               inkscape:connector-curvature="0"
               style="fill:#ae0021;fill-opacity:1" />
            <path
               id="path5301"
               d="m 21.491,1.999 c 0,-0.552 -0.223905,-1.05215612 -0.585858,-1.41410891 L 374.45853,354.13828 c 0.36196,0.36195 0.58586,0.86211 0.58586,1.41411 z"
               inkscape:connector-curvature="0"
               style="fill:#ae0021;fill-opacity:1" />
            <path
               id="path5303"
               d="M 20.905142,0.58489109 C 20.543845,0.22359402 20.045,0 19.494,0 l 353.55339,353.55339 c 0.551,0 1.04985,0.22359 1.41114,0.58489 z"
               inkscape:connector-curvature="0"
               style="fill:#ae0021;fill-opacity:1" />
            <path
               id="path5305"
               d="m 10.872,1.214 5.7,0 353.55339,353.55339 -5.7,0 z"
               inkscape:connector-curvature="0"
               style="fill:#ae0021;fill-opacity:1" />
            <path
               id="path5307"
               d="m 16.572,1.214 c 0.04499,0 0.08735,0.020989 0.124324,0.057964 L 370.24971,354.82535 c -0.037,-0.037 -0.0793,-0.058 -0.12432,-0.058 z"
               inkscape:connector-curvature="0"
               style="fill:#ae0021;fill-opacity:1" />
            <path
               id="path5309"
               d="M 16.696324,1.2719644 C 16.777691,1.3533307 16.833,1.5121108 16.833,1.695 l 353.55339,353.55339 c 0,-0.18289 -0.0553,-0.34167 -0.13668,-0.42304 z"
               inkscape:connector-curvature="0"
               style="fill:#ae0021;fill-opacity:1" />
            <path
               id="path5311"
               d="m 16.833,1.695 c 0,0.266 -0.117,0.482 -0.261,0.482 l 353.55339,353.55339 c 0.144,0 0.261,-0.216 0.261,-0.482 z"
               inkscape:connector-curvature="0"
               style="fill:#ae0021;fill-opacity:1" />
            <path
               id="path5313"
               d="m 16.572,2.177 -5.7,0 353.55339,353.55339 5.7,0 z"
               inkscape:connector-curvature="0"
               style="fill:#ae0021;fill-opacity:1" />
            <path
               id="path5315"
               d="m 10.872,2.177 c -0.04504,0 -0.08718,-0.020838 -0.123881,-0.057539 L 364.30151,355.67285 c 0.0367,0.0367 0.0788,0.0575 0.12388,0.0575 z"
               inkscape:connector-curvature="0"
               style="fill:#ae0021;fill-opacity:1" />
            <path
               id="path5317"
               d="M 10.748119,2.1194607 C 10.666657,2.0379982 10.612,1.878381 10.612,1.695 l 353.55339,353.55339 c 0,0.18338 0.0547,0.343 0.13612,0.42446 z"
               inkscape:connector-curvature="0"
               style="fill:#ae0021;fill-opacity:1" />
            <path
               id="path5319"
               d="m 10.612,1.695 c 0,-0.266 0.115,-0.481 0.26,-0.481 l 353.55339,353.55339 c -0.145,0 -0.26,0.215 -0.26,0.481 z"
               inkscape:connector-curvature="0"
               style="fill:#ae0021;fill-opacity:1" />
            <path
               id="path5321"
               d="m 13.722,25.469 c -0.351375,0 -0.670023,-0.142898 -0.900879,-0.373754 L 366.37451,378.64864 c 0.23086,0.23085 0.54951,0.37375 0.90088,0.37375 z"
               inkscape:connector-curvature="0"
               style="fill:#ae0021;fill-opacity:1" />
            <path
               id="path5323"
               d="M 12.821121,25.095246 C 12.590102,24.864227 12.447,24.545125 12.447,24.193 l 353.55339,353.55339 c 0,0.35213 0.1431,0.67123 0.37412,0.90225 z"
               inkscape:connector-curvature="0"
               style="fill:#ae0021;fill-opacity:1" />
            <path
               id="path5325"
               d="m 12.447,24.193 c 0,-0.704 0.572,-1.274 1.275,-1.274 l 353.55339,353.55339 c -0.703,0 -1.275,0.57 -1.275,1.274 z"
               inkscape:connector-curvature="0"
               style="fill:#ae0021;fill-opacity:1" />
            <path
               id="path5327"
               d="m 13.722,22.919 c 0.350625,0 0.668977,0.142601 0.899621,0.373246 L 368.17501,376.84564 c -0.23064,-0.23065 -0.54899,-0.37325 -0.89962,-0.37325 z"
               inkscape:connector-curvature="0"
               style="fill:#ae0021;fill-opacity:1" />
            <path
               id="path5329"
               d="M 14.621621,23.292246 C 14.852102,23.522727 14.995,23.841125 14.995,24.193 l 353.55339,353.55339 c 0,-0.35187 -0.1429,-0.67027 -0.37338,-0.90075 z"
               inkscape:connector-curvature="0"
               style="fill:#ae0021;fill-opacity:1" />
            <path
               id="path5331"
               d="m 14.995,24.193 c 0,0.704 -0.572,1.276 -1.273,1.276 l 353.55339,353.55339 c 0.701,0 1.273,-0.572 1.273,-1.276 z"
               inkscape:connector-curvature="0"
               style="fill:#ae0021;fill-opacity:1" />
            <path
               id="path5333"
               d="m 19.995,21.1 -12.547,0 353.55339,353.55339 12.547,0 z"
               inkscape:connector-curvature="0"
               style="fill:#ae0021;fill-opacity:1" />
            <path
               id="path5335"
               d="m 7.448,21.1 0,-17.727 353.55339,353.55339 0,17.727 z"
               inkscape:connector-curvature="0"
               style="fill:#ae0021;fill-opacity:1" />
            <path
               id="path5337"
               d="m 7.448,3.373 12.547,0 353.55339,353.55339 -12.547,0 z"
               inkscape:connector-curvature="0"
               style="fill:#ae0021;fill-opacity:1" />
            <path
               id="path5339"
               d="m 19.995,3.373 0,17.727 353.55339,353.55339 0,-17.727 z"
               inkscape:connector-curvature="0"
               style="fill:#ae0021;fill-opacity:1" />
          </g>
          <path
             id="path5145"
             d="M 19.494,0 7.948,0 C 6.843,0 5.951,0.896 5.951,1.999 l 0,23.446 c 0,1.102 0.892,1.997 1.997,1.997 l 11.546,0 c 1.103,0 1.997,-0.895 1.997,-1.997 l 0,-23.446 C 21.491,0.896 20.597,0 19.494,0 Z m -8.622,1.214 5.7,0 c 0.144,0 0.261,0.215 0.261,0.481 0,0.266 -0.117,0.482 -0.261,0.482 l -5.7,0 c -0.145,0 -0.26,-0.216 -0.26,-0.482 0,-0.266 0.115,-0.481 0.26,-0.481 z m 2.85,24.255 c -0.703,0 -1.275,-0.572 -1.275,-1.276 0,-0.704 0.572,-1.274 1.275,-1.274 0.701,0 1.273,0.57 1.273,1.274 0,0.704 -0.572,1.276 -1.273,1.276 z m 6.273,-4.369 -12.547,0 0,-17.727 12.547,0 0,17.727 z"
             inkscape:connector-curvature="0"
             style="fill:#ae0021;fill-opacity:1" />
        </g>
      </g>
      <g
         id="g5177"
         style="fill:#ae0021;fill-opacity:1" />
      <g
         id="g5179"
         style="fill:#ae0021;fill-opacity:1" />
      <g
         id="g5181"
         style="fill:#ae0021;fill-opacity:1" />
      <g
         id="g5183"
         style="fill:#ae0021;fill-opacity:1" />
      <g
         id="g5185"
         style="fill:#ae0021;fill-opacity:1" />
      <g
         id="g5187"
         style="fill:#ae0021;fill-opacity:1" />
      <g
         id="g5189"
         style="fill:#ae0021;fill-opacity:1" />
      <g
         id="g5191"
         style="fill:#ae0021;fill-opacity:1" />
      <g
         id="g5193"
         style="fill:#ae0021;fill-opacity:1" />
      <g
         id="g5195"
         style="fill:#ae0021;fill-opacity:1" />
      <g
         id="g5197"
         style="fill:#ae0021;fill-opacity:1" />
      <g
         id="g5199"
         style="fill:#ae0021;fill-opacity:1" />
      <g
         id="g5201"
         style="fill:#ae0021;fill-opacity:1" />
      <g
         id="g5203"
         style="fill:#ae0021;fill-opacity:1" />
      <g
         id="g5205"
         style="fill:#ae0021;fill-opacity:1" />
    </g>
  </g>
  <g
     inkscape:groupmode="layer"
     id="layer4"
     inkscape:label="Layer 3"
     style="display:inline">
    <g
       style="fill:#ffffff"
       transform="matrix(10.939511,0,0,10.932148,49.89897,49.999995)"
       id="g4307">
      <g
         style="fill:#ffffff"
         id="g4237">
        <path
           style="fill:#ffffff"
           inkscape:connector-curvature="0"
           d="M 19.494,0 7.948,0 C 6.843,0 5.951,0.896 5.951,1.999 l 0,23.446 c 0,1.102 0.892,1.997 1.997,1.997 l 11.546,0 c 1.103,0 1.997,-0.895 1.997,-1.997 l 0,-23.446 C 21.491,0.896 20.597,0 19.494,0 Z m -8.622,1.214 5.7,0 c 0.144,0 0.261,0.215 0.261,0.481 0,0.266 -0.117,0.482 -0.261,0.482 l -5.7,0 c -0.145,0 -0.26,-0.216 -0.26,-0.482 0,-0.266 0.115,-0.481 0.26,-0.481 z m 2.85,24.255 c -0.703,0 -1.275,-0.572 -1.275,-1.276 0,-0.704 0.572,-1.274 1.275,-1.274 0.701,0 1.273,0.57 1.273,1.274 0,0.704 -0.572,1.276 -1.273,1.276 z m 6.273,-4.369 -12.547,0 0,-17.727 12.547,0 0,17.727 z"
           id="path4239" />
        <g
           style="fill:#ffffff"
           id="g4241" />
        <g
           style="fill:#ffffff"
           id="g4243" />
        <g
           style="fill:#ffffff"
           id="g4245" />
        <g
           style="fill:#ffffff"
           id="g4247" />
        <g
           style="fill:#ffffff"
           id="g4249" />
        <g
           style="fill:#ffffff"
           id="g4251" />
        <g
           style="fill:#ffffff"
           id="g4253" />
        <g
           style="fill:#ffffff"
           id="g4255" />
        <g
           style="fill:#ffffff"
           id="g4257" />
        <g
           style="fill:#ffffff"
           id="g4259" />
        <g
           style="fill:#ffffff"
           id="g4261" />
        <g
           style="fill:#ffffff"
           id="g4263" />
        <g
           style="fill:#ffffff"
           id="g4265" />
        <g
           style="fill:#ffffff"
           id="g4267" />
        <g
           style="fill:#ffffff"
           id="g4269" />
      </g>
      <g
         style="fill:#ffffff"
         id="g4271" />
      <g
         style="fill:#ffffff"
         id="g4273" />
      <g
         style="fill:#ffffff"
         id="g4275" />
      <g
         style="fill:#ffffff"
         id="g4277" />
      <g
         style="fill:#ffffff"
         id="g4279" />
      <g
         style="fill:#ffffff"
         id="g4281" />
      <g
         style="fill:#ffffff"
         id="g4283" />
      <g
         style="fill:#ffffff"
         id="g4285" />
      <g
         style="fill:#ffffff"
         id="g4287" />
      <g
         style="fill:#ffffff"
         id="g4289" />
      <g
         style="fill:#ffffff"
         id="g4291" />
      <g
         style="fill:#ffffff"
         id="g4293" />
      <g
         style="fill:#ffffff"
         id="g4295" />
      <g
         style="fill:#ffffff"
         id="g4297" />
      <g
         style="fill:#ffffff"
         id="g4299" />
    </g>
  </g>
</svg>
