<?xml version="1.0" encoding="UTF-8" standalone="no"?>
<!-- Created with Inkscape (http://www.inkscape.org/) -->

<svg
   xmlns:dc="http://purl.org/dc/elements/1.1/"
   xmlns:cc="http://creativecommons.org/ns#"
   xmlns:rdf="http://www.w3.org/1999/02/22-rdf-syntax-ns#"
   xmlns:svg="http://www.w3.org/2000/svg"
   xmlns="http://www.w3.org/2000/svg"
   xmlns:sodipodi="http://sodipodi.sourceforge.net/DTD/sodipodi-0.dtd"
   xmlns:inkscape="http://www.inkscape.org/namespaces/inkscape"
   sodipodi:docname="casecategory_source_code_review.svg"
   inkscape:version="0.91 r13725"
   version="1.1"
   id="svg3566"
   viewBox="0 0 399.99999 400.00001"
   height="400"
   width="400">
  <sodipodi:namedview
     inkscape:window-maximized="1"
     inkscape:window-y="-8"
     inkscape:window-x="3832"
     inkscape:window-height="1137"
     inkscape:window-width="1920"
     units="px"
     showgrid="false"
     inkscape:current-layer="layer2"
     inkscape:document-units="px"
     inkscape:cy="245.73298"
     inkscape:cx="92.211676"
     inkscape:zoom="1.4142136"
     inkscape:pageshadow="2"
     inkscape:pageopacity="0.0"
     borderopacity="1.0"
     bordercolor="#666666"
     pagecolor="#ffffff"
     id="base" />
  <defs
     id="defs3568">
    <clipPath
       id="clipPath5130"
       clipPathUnits="userSpaceOnUse">
      <ellipse
         ry="212.5"
         rx="213.23529"
         style="display:inline;fill:#a4c639;fill-opacity:1"
         cx="494.71536"
         cy="580.85931"
         id="circle5132" />
    </clipPath>
    <clipPath
       clipPathUnits="userSpaceOnUse"
       id="clipPath4902">
      <circle
         style="display:inline;fill:#007aff;fill-opacity:1"
         r="409.31015"
         cx="246.23483"
         cy="241.70435"
         id="circle4904" />
    </clipPath>
  </defs>
  <metadata
     id="metadata3571">
    <rdf:RDF>
      <cc:Work
         rdf:about="">
        <dc:format>image/svg+xml</dc:format>
        <dc:type
           rdf:resource="http://purl.org/dc/dcmitype/StillImage" />
        <dc:title />
      </cc:Work>
    </rdf:RDF>
  </metadata>
  <g
     inkscape:label="Layer 1"
     inkscape:groupmode="layer"
     id="layer1"
     transform="translate(0,-652.36216)"
     style="display:inline">
    <circle
       id="circle3938"
       cy="852.36218"
       cx="200"
       r="200"
       style="fill:#007aff;fill-opacity:1" />
  </g>
  <g
     inkscape:groupmode="layer"
     id="layer2"
     inkscape:label="Layer 2"
     style="display:inline"
     transform="translate(0,-652.36216)">
    <g
       style="display:inline;fill:#0057b4;fill-opacity:1"
       transform="matrix(0.48862701,0,0,0.48862701,79.683012,734.25891)"
       id="g4424"
       clip-path="url(#clipPath4902)">
      <g
         style="fill:#0057b4;fill-opacity:1"
         id="g4344">
        <g
           style="fill:#0057b4;fill-opacity:1"
           id="g4346">
          <g
             style="fill:#0057b4;fill-opacity:1"
             id="g4348">
            <rect
               style="fill:#0057b4;fill-opacity:1"
               x="71.700996"
               y="84.387001"
               width="211.26401"
               height="70.751999"
               id="rect4350" />
            <g
               id="g4629"
               style="fill:#0057b4;fill-opacity:1">
              <g
                 id="g4631"
                 style="fill:#0057b4;fill-opacity:1">
                <path
                   id="path4633"
                   d="M491.167 445.094L453.418 407.324L806.971390593 760.877390593L844.720390593 798.647390593Z"
                   style="fill:#0057b4;fill-opacity:1" />
                <path
                   id="path4635"
                   d="M453.418 407.324L453.418 1.059L806.971390593 354.612390593L806.971390593 760.877390593Z"
                   style="fill:#0057b4;fill-opacity:1" />
                <path
                   id="path4637"
                   d="M453.418 1.059L-5.68434188608e-14 1.059L353.553390593 354.612390593L806.971390593 354.612390593Z"
                   style="fill:#0057b4;fill-opacity:1" />
                <path
                   id="path4639"
                   d="M-5.68434188608e-14 1.059L-5.68434188608e-14 425.96L353.553390593 779.513390593L353.553390593 354.612390593Z"
                   style="fill:#0057b4;fill-opacity:1" />
                <path
                   id="path4641"
                   d="M-5.68434188608e-14 425.96L381.954 425.96L735.507390593 779.513390593L353.553390593 779.513390593Z"
                   style="fill:#0057b4;fill-opacity:1" />
                <path
                   id="path4643"
                   d="M381.954 425.96L446.127 490.112L799.680390593 843.665390593L735.507390593 779.513390593Z"
                   style="fill:#0057b4;fill-opacity:1" />
                <path
                   id="path4645"
                   d="M446.127 490.112C446.127 490.112 466.857 490.371 479.324 476.091L832.877390593 829.644390593C820.410390593 843.924390593 799.680390593 843.665390593 799.680390593 843.665390593Z"
                   style="fill:#0057b4;fill-opacity:1" />
                <path
                   id="path4647"
                   d="M479.324 476.091C491.792 461.833 491.167 445.094 491.167 445.094L844.720390593 798.647390593C844.720390593 798.647390593 845.345390593 815.386390593 832.877390593 829.644390593Z"
                   style="fill:#0057b4;fill-opacity:1" />
                <path
                   id="path4649"
                   d="M30.738 395.783L30.738 42.54L384.291390593 396.093390593L384.291390593 749.336390593Z"
                   style="fill:#0057b4;fill-opacity:1" />
                <path
                   id="path4651"
                   d="M30.738 42.54L422.636 42.54L776.189390593 396.093390593L384.291390593 396.093390593Z"
                   style="fill:#0057b4;fill-opacity:1" />
                <path
                   id="path4653"
                   d="M422.636 42.54L422.636 376.564L776.189390593 730.117390593L776.189390593 396.093390593Z"
                   style="fill:#0057b4;fill-opacity:1" />
                <path
                   id="path4655"
                   d="M422.636 376.564L395.975 349.946L749.528390593 703.499390593L776.189390593 730.117390593Z"
                   style="fill:#0057b4;fill-opacity:1" />
                <path
                   id="path4657"
                   d="M395.975 349.946L383.658 357.41L737.211390593 710.963390593L749.528390593 703.499390593Z"
                   style="fill:#0057b4;fill-opacity:1" />
                <path
                   id="path4659"
                   d="M383.658 357.41L364.848 339.291L718.401390593 692.844390593L737.211390593 710.963390593Z"
                   style="fill:#0057b4;fill-opacity:1" />
                <path
                   id="path4661"
                   d="M364.848 339.291C394.12 298.134 390.625 240.82 353.804 203.977L707.357390593 557.530390593C744.178390593 594.373390593 747.673390593 651.687390593 718.401390593 692.844390593Z"
                   style="fill:#0057b4;fill-opacity:1" />
                <path
                   id="path4663"
                   d="M353.804 203.977C314.955 165.15 253.694 163.489 212.451 197.937L566.004390593 551.490390593C607.247390593 517.042390593 668.508390593 518.703390593 707.357390593 557.530390593Z"
                   style="fill:#0057b4;fill-opacity:1" />
                <path
                   id="path4665"
                   d="M212.451 197.937L71.701 197.937L425.254390593 551.490390593L566.004390593 551.490390593Z"
                   style="fill:#0057b4;fill-opacity:1" />
                <path
                   id="path4667"
                   d="M71.701 197.937L71.701 224.944L425.254390593 578.497390593L425.254390593 551.490390593Z"
                   style="fill:#0057b4;fill-opacity:1" />
                <path
                   id="path4669"
                   d="M71.701 224.944L189.262 224.944L542.815390593 578.497390593L425.254390593 578.497390593Z"
                   style="fill:#0057b4;fill-opacity:1" />
                <path
                   id="path4671"
                   d="M189.262 224.944C181.087 238.706 176.492 253.827 175.133 269.294L528.686390593 622.847390593C530.045390593 607.380390593 534.640390593 592.259390593 542.815390593 578.497390593Z"
                   style="fill:#0057b4;fill-opacity:1" />
                <path
                   id="path4673"
                   d="M175.133 269.294L71.701 269.294L425.254390593 622.847390593L528.686390593 622.847390593Z"
                   style="fill:#0057b4;fill-opacity:1" />
                <path
                   id="path4675"
                   d="M71.701 269.294L71.701 296.128L425.254390593 649.681390593L425.254390593 622.847390593Z"
                   style="fill:#0057b4;fill-opacity:1" />
                <path
                   id="path4677"
                   d="M71.701 296.128L175.953 296.128L529.506390593 649.681390593L425.254390593 649.681390593Z"
                   style="fill:#0057b4;fill-opacity:1" />
                <path
                   id="path4679"
                   d="M175.953 296.128C178.692 311.896 185.164 327.104 195.086 340.499L548.639390593 694.052390593C538.717390593 680.657390593 532.245390593 665.449390593 529.506390593 649.681390593Z"
                   style="fill:#0057b4;fill-opacity:1" />
                <path
                   id="path4681"
                   d="M195.086 340.499L71.701 340.499L425.254390593 694.052390593L548.639390593 694.052390593Z"
                   style="fill:#0057b4;fill-opacity:1" />
                <path
                   id="path4683"
                   d="M71.701 340.499L71.701 367.506L425.254390593 721.059390593L425.254390593 694.052390593Z"
                   style="fill:#0057b4;fill-opacity:1" />
                <path
                   id="path4685"
                   d="M71.701 367.506L223.926 367.506L577.479390593 721.059390593L425.254390593 721.059390593Z"
                   style="fill:#0057b4;fill-opacity:1" />
                <path
                   id="path4687"
                   d="M223.926 367.506C259.733 389.789 305.809 388.516 340.473 363.753L694.026390593 717.306390593C659.362390593 742.069390593 613.286390593 743.342390593 577.479390593 721.059390593Z"
                   style="fill:#0057b4;fill-opacity:1" />
                <path
                   id="path4689"
                   d="M340.473 363.753L358.096 380.686L711.649390593 734.239390593L694.026390593 717.306390593Z"
                   style="fill:#0057b4;fill-opacity:1" />
                <path
                   id="path4691"
                   d="M358.096 380.686L351.776 395.742L705.329390593 749.295390593L711.649390593 734.239390593Z"
                   style="fill:#0057b4;fill-opacity:1" />
                <path
                   id="path4693"
                   d="M351.776 395.742L30.738 395.783L384.291390593 749.336390593L705.329390593 749.295390593Z"
                   style="fill:#0057b4;fill-opacity:1" />
                <path
                   id="path4695"
                   d="M30.738 395.783L30.738 395.783L384.291390593 749.336390593L384.291390593 749.336390593Z"
                   style="fill:#0057b4;fill-opacity:1" />
                <path
                   id="path4697"
                   d="M222.093 335.687C190.47 303.956 190.47 252.747 222.158 221.081L575.711390593 574.634390593C544.023390593 606.300390593 544.023390593 657.509390593 575.646390593 689.240390593Z"
                   style="fill:#0057b4;fill-opacity:1" />
                <path
                   id="path4699"
                   d="M222.158 221.081C253.738 189.415 305.055 189.372 336.785 221.038L690.338390593 574.591390593C658.608390593 542.925390593 607.291390593 542.968390593 575.711390593 574.634390593Z"
                   style="fill:#0057b4;fill-opacity:1" />
                <path
                   id="path4701"
                   d="M336.785 221.038C368.451 252.725 368.451 303.999 336.699 335.687L690.252390593 689.240390593C722.004390593 657.552390593 722.004390593 606.278390593 690.338390593 574.591390593Z"
                   style="fill:#0057b4;fill-opacity:1" />
                <path
                   id="path4703"
                   d="M336.699 335.687C305.119 367.288 253.78 367.331 222.093 335.687L575.646390593 689.240390593C607.333390593 720.884390593 658.672390593 720.841390593 690.252390593 689.240390593Z"
                   style="fill:#0057b4;fill-opacity:1" />
              </g>
              <path
                 style="fill:#0057b4;fill-opacity:1"
                 inkscape:connector-curvature="0"
                 d="m 491.167,445.094 -37.749,-37.77 0,-406.265 -453.418,0 0,424.901 381.954,0 64.173,64.152 c 0,0 20.73,0.259 33.197,-14.021 12.468,-14.258 11.843,-30.997 11.843,-30.997 z m -460.429,-49.311 0,-353.243 391.898,0 0,334.024 -26.661,-26.618 -12.317,7.464 -18.81,-18.119 C 394.12,298.134 390.625,240.82 353.804,203.977 314.955,165.15 253.694,163.489 212.451,197.937 l -140.75,0 0,27.007 117.561,0 c -8.175,13.762 -12.77,28.883 -14.129,44.35 l -103.432,0 0,26.834 104.252,0 c 2.739,15.768 9.211,30.976 19.133,44.371 l -123.385,0 0,27.007 152.225,0 c 35.807,22.283 81.883,21.01 116.547,-3.753 l 17.623,16.933 -6.32,15.056 -321.038,0.041 0,0 z m 191.355,-60.096 c -31.623,-31.731 -31.623,-82.94 0.065,-114.606 31.58,-31.666 82.897,-31.709 114.627,-0.043 31.666,31.687 31.666,82.961 -0.086,114.649 -31.58,31.601 -82.919,31.644 -114.606,0 z"
                 id="path4352" />
            </g>
          </g>
          <g
             style="fill:#0057b4;fill-opacity:1"
             id="g4354">
            <path
               style="fill:#0057b4;fill-opacity:1"
               inkscape:connector-curvature="0"
               d="m 311.504,84.387 0,70.752 69.544,0 0,-70.752 -69.544,0 z m 34.729,52.568 c -9.858,0 -17.904,-8.003 -17.904,-17.904 0,-9.879 8.046,-17.882 17.904,-17.882 9.901,0 17.882,8.003 17.882,17.882 -0.022,9.902 -7.981,17.904 -17.882,17.904 z"
               id="path4356" />
          </g>
        </g>
        <g
           style="fill:#0057b4;fill-opacity:1"
           id="g4358" />
        <g
           style="fill:#0057b4;fill-opacity:1"
           id="g4360" />
        <g
           style="fill:#0057b4;fill-opacity:1"
           id="g4362" />
        <g
           style="fill:#0057b4;fill-opacity:1"
           id="g4364" />
        <g
           style="fill:#0057b4;fill-opacity:1"
           id="g4366" />
        <g
           style="fill:#0057b4;fill-opacity:1"
           id="g4368" />
        <g
           style="fill:#0057b4;fill-opacity:1"
           id="g4370" />
        <g
           style="fill:#0057b4;fill-opacity:1"
           id="g4372" />
        <g
           style="fill:#0057b4;fill-opacity:1"
           id="g4374" />
        <g
           style="fill:#0057b4;fill-opacity:1"
           id="g4376" />
        <g
           style="fill:#0057b4;fill-opacity:1"
           id="g4378" />
        <g
           style="fill:#0057b4;fill-opacity:1"
           id="g4380" />
        <g
           style="fill:#0057b4;fill-opacity:1"
           id="g4382" />
        <g
           style="fill:#0057b4;fill-opacity:1"
           id="g4384" />
        <g
           style="fill:#0057b4;fill-opacity:1"
           id="g4386" />
      </g>
      <g
         style="fill:#0057b4;fill-opacity:1"
         id="g4388" />
      <g
         style="fill:#0057b4;fill-opacity:1"
         id="g4390" />
      <g
         style="fill:#0057b4;fill-opacity:1"
         id="g4392" />
      <g
         style="fill:#0057b4;fill-opacity:1"
         id="g4394" />
      <g
         style="fill:#0057b4;fill-opacity:1"
         id="g4396" />
      <g
         style="fill:#0057b4;fill-opacity:1"
         id="g4398" />
      <g
         style="fill:#0057b4;fill-opacity:1"
         id="g4400" />
      <g
         style="fill:#0057b4;fill-opacity:1"
         id="g4402" />
      <g
         style="fill:#0057b4;fill-opacity:1"
         id="g4404" />
      <g
         style="fill:#0057b4;fill-opacity:1"
         id="g4406" />
      <g
         style="fill:#0057b4;fill-opacity:1"
         id="g4408" />
      <g
         style="fill:#0057b4;fill-opacity:1"
         id="g4410" />
      <g
         style="fill:#0057b4;fill-opacity:1"
         id="g4412" />
      <g
         style="fill:#0057b4;fill-opacity:1"
         id="g4414" />
      <g
         style="fill:#0057b4;fill-opacity:1"
         id="g4416" />
    </g>
  </g>
  <g
     inkscape:groupmode="layer"
     id="layer4"
     inkscape:label="Layer 3"
     style="display:inline">
    <g
       id="g4501"
       transform="matrix(0.48862701,0,0,0.48862701,79.683012,81.89675)"
       style="display:inline;fill:#ffffff">
      <g
         id="g4503"
         style="fill:#ffffff">
        <g
           id="g4505"
           style="fill:#ffffff">
          <g
             id="g4507"
             style="fill:#ffffff">
            <rect
               id="rect4509"
               height="70.751999"
               width="211.26401"
               y="84.387001"
               x="71.700996"
               style="fill:#ffffff" />
            <path
               id="path4511"
               d="m 491.167,445.094 -37.749,-37.77 0,-406.265 -453.418,0 0,424.901 381.954,0 64.173,64.152 c 0,0 20.73,0.259 33.197,-14.021 12.468,-14.258 11.843,-30.997 11.843,-30.997 z m -460.429,-49.311 0,-353.243 391.898,0 0,334.024 -26.661,-26.618 -12.317,7.464 -18.81,-18.119 C 394.12,298.134 390.625,240.82 353.804,203.977 314.955,165.15 253.694,163.489 212.451,197.937 l -140.75,0 0,27.007 117.561,0 c -8.175,13.762 -12.77,28.883 -14.129,44.35 l -103.432,0 0,26.834 104.252,0 c 2.739,15.768 9.211,30.976 19.133,44.371 l -123.385,0 0,27.007 152.225,0 c 35.807,22.283 81.883,21.01 116.547,-3.753 l 17.623,16.933 -6.32,15.056 -321.038,0.041 0,0 z m 191.355,-60.096 c -31.623,-31.731 -31.623,-82.94 0.065,-114.606 31.58,-31.666 82.897,-31.709 114.627,-0.043 31.666,31.687 31.666,82.961 -0.086,114.649 -31.58,31.601 -82.919,31.644 -114.606,0 z"
               inkscape:connector-curvature="0"
               style="fill:#ffffff" />
          </g>
          <g
             id="g4513"
             style="fill:#ffffff">
            <path
               id="path4515"
               d="m 311.504,84.387 0,70.752 69.544,0 0,-70.752 -69.544,0 z m 34.729,52.568 c -9.858,0 -17.904,-8.003 -17.904,-17.904 0,-9.879 8.046,-17.882 17.904,-17.882 9.901,0 17.882,8.003 17.882,17.882 -0.022,9.902 -7.981,17.904 -17.882,17.904 z"
               inkscape:connector-curvature="0"
               style="fill:#ffffff" />
          </g>
        </g>
        <g
           id="g4517"
           style="fill:#ffffff" />
        <g
           id="g4519"
           style="fill:#ffffff" />
        <g
           id="g4521"
           style="fill:#ffffff" />
        <g
           id="g4523"
           style="fill:#ffffff" />
        <g
           id="g4525"
           style="fill:#ffffff" />
        <g
           id="g4527"
           style="fill:#ffffff" />
        <g
           id="g4529"
           style="fill:#ffffff" />
        <g
           id="g4531"
           style="fill:#ffffff" />
        <g
           id="g4533"
           style="fill:#ffffff" />
        <g
           id="g4535"
           style="fill:#ffffff" />
        <g
           id="g4537"
           style="fill:#ffffff" />
        <g
           id="g4539"
           style="fill:#ffffff" />
        <g
           id="g4541"
           style="fill:#ffffff" />
        <g
           id="g4543"
           style="fill:#ffffff" />
        <g
           id="g4545"
           style="fill:#ffffff" />
      </g>
      <g
         id="g4547"
         style="fill:#ffffff" />
      <g
         id="g4549"
         style="fill:#ffffff" />
      <g
         id="g4551"
         style="fill:#ffffff" />
      <g
         id="g4553"
         style="fill:#ffffff" />
      <g
         id="g4555"
         style="fill:#ffffff" />
      <g
         id="g4557"
         style="fill:#ffffff" />
      <g
         id="g4559"
         style="fill:#ffffff" />
      <g
         id="g4561"
         style="fill:#ffffff" />
      <g
         id="g4563"
         style="fill:#ffffff" />
      <g
         id="g4565"
         style="fill:#ffffff" />
      <g
         id="g4567"
         style="fill:#ffffff" />
      <g
         id="g4569"
         style="fill:#ffffff" />
      <g
         id="g4571"
         style="fill:#ffffff" />
      <g
         id="g4573"
         style="fill:#ffffff" />
      <g
         id="g4575"
         style="fill:#ffffff" />
    </g>
  </g>
</svg>
