<?xml version="1.0" encoding="UTF-8" standalone="no"?>
<!-- Created with Inkscape (http://www.inkscape.org/) -->

<svg
   xmlns:dc="http://purl.org/dc/elements/1.1/"
   xmlns:cc="http://creativecommons.org/ns#"
   xmlns:rdf="http://www.w3.org/1999/02/22-rdf-syntax-ns#"
   xmlns:svg="http://www.w3.org/2000/svg"
   xmlns="http://www.w3.org/2000/svg"
   xmlns:sodipodi="http://sodipodi.sourceforge.net/DTD/sodipodi-0.dtd"
   xmlns:inkscape="http://www.inkscape.org/namespaces/inkscape"
   sodipodi:docname="casecategory_wireless.svg"
   inkscape:version="0.91 r13725"
   version="1.1"
   id="svg3566"
   viewBox="0 0 399.99999 400.00001"
   height="400"
   width="400">
  <sodipodi:namedview
     inkscape:window-maximized="1"
     inkscape:window-y="-8"
     inkscape:window-x="1912"
     inkscape:window-height="1137"
     inkscape:window-width="1920"
     units="px"
     showgrid="false"
     inkscape:current-layer="layer2"
     inkscape:document-units="px"
     inkscape:cy="41.33858"
     inkscape:cx="-434.26057"
     inkscape:zoom="0.5"
     inkscape:pageshadow="2"
     inkscape:pageopacity="0.0"
     borderopacity="1.0"
     bordercolor="#666666"
     pagecolor="#ffffff"
     id="base" />
  <defs
     id="defs3568">
    <clipPath
       id="clipPath11198"
       clipPathUnits="userSpaceOnUse">
      <ellipse
         ry="13.023067"
         rx="12.978835"
         style="fill:#0050ef;fill-opacity:1"
         cx="10.382936"
         cy="10.057582"
         id="circle11200" />
    </clipPath>
    <clipPath
       clipPathUnits="userSpaceOnUse"
       id="clipPath4845">
      <ellipse
         style="display:inline;opacity:0.52999998;fill:#007aff;fill-opacity:1"
         cx="222.82246"
         cy="259.94751"
         id="circle4847"
         rx="371.37076"
         ry="371.13922" />
    </clipPath>
  </defs>
  <metadata
     id="metadata3571">
    <rdf:RDF>
      <cc:Work
         rdf:about="">
        <dc:format>image/svg+xml</dc:format>
        <dc:type
           rdf:resource="http://purl.org/dc/dcmitype/StillImage" />
        <dc:title />
      </cc:Work>
    </rdf:RDF>
  </metadata>
  <g
     style="display:inline"
     inkscape:label="Layer 1"
     inkscape:groupmode="layer"
     id="layer1"
     transform="translate(0,-652.36216)">
    <circle
       id="circle3938"
       cy="852.36218"
       cx="200"
       r="200"
       style="fill:#ff9205;fill-opacity:1" />
  </g>
  <g
     inkscape:groupmode="layer"
     id="layer2"
     inkscape:label="Layer 2"
     style="display:inline"
     transform="translate(0,-652.36216)">
    <g
       style="fill:#ffffff"
       id="g8885"
       transform="matrix(15.409704,0,0,15.357366,40.002034,697.90421)" />
    <g
       style="fill:#ffffff"
       id="g8887"
       transform="matrix(15.409704,0,0,15.357366,40.002034,697.90421)" />
    <g
       style="fill:#ffffff"
       id="g8889"
       transform="matrix(15.409704,0,0,15.357366,40.002034,697.90421)" />
    <g
       style="fill:#ffffff"
       id="g8891"
       transform="matrix(15.409704,0,0,15.357366,40.002034,697.90421)" />
    <g
       style="fill:#ffffff"
       id="g8893"
       transform="matrix(15.409704,0,0,15.357366,40.002034,697.90421)" />
    <g
       style="fill:#ffffff"
       id="g8895"
       transform="matrix(15.409704,0,0,15.357366,40.002034,697.90421)" />
    <g
       style="fill:#ffffff"
       id="g8897"
       transform="matrix(15.409704,0,0,15.357366,40.002034,697.90421)" />
    <g
       style="fill:#ffffff"
       id="g8899"
       transform="matrix(15.409704,0,0,15.357366,40.002034,697.90421)" />
    <g
       style="fill:#ffffff"
       id="g8901"
       transform="matrix(15.409704,0,0,15.357366,40.002034,697.90421)" />
    <g
       style="fill:#ffffff"
       id="g8903"
       transform="matrix(15.409704,0,0,15.357366,40.002034,697.90421)" />
    <g
       style="fill:#ffffff"
       id="g8905"
       transform="matrix(15.409704,0,0,15.357366,40.002034,697.90421)" />
    <g
       style="fill:#ffffff"
       id="g8907"
       transform="matrix(15.409704,0,0,15.357366,40.002034,697.90421)" />
    <g
       style="fill:#ffffff"
       id="g8909"
       transform="matrix(15.409704,0,0,15.357366,40.002034,697.90421)" />
    <g
       style="fill:#ffffff"
       id="g8911"
       transform="matrix(15.409704,0,0,15.357366,40.002034,697.90421)" />
    <g
       style="fill:#ffffff"
       id="g8913"
       transform="matrix(15.409704,0,0,15.357366,40.002034,697.90421)" />
    <g
       id="g3565"
       transform="matrix(0.53854535,0,0,0.53888132,80,712.28133)"
       style="display:inline;fill:#c87100;fill-opacity:1"
       clip-path="url(#clipPath4845)">
      <g
         id="g3567"
         style="fill:#c87100;fill-opacity:1">
        <g
           id="g3569"
           style="fill:#c87100;fill-opacity:1">
          <g
             id="g3571"
             style="fill:#c87100;fill-opacity:1">
            <g
               id="g3662"
               style="fill:#c87100;fill-opacity:1">
              <g
                 id="g3664"
                 style="fill:#c87100;fill-opacity:1">
                <path
                   id="path3666"
                   d="m 89.832,126.759 c -18.191,0 -32.934,14.762 -32.934,32.953 l 353.55339,353.55339 c 0,-18.191 14.743,-32.953 32.934,-32.953 z"
                   style="fill:#c87100;fill-opacity:1"
                   inkscape:connector-curvature="0" />
                <path
                   id="path3668"
                   d="m 56.898,159.712 c 0,9.09937 3.688641,17.33977 9.652618,23.30375 L 420.10401,536.56914 c -5.96398,-5.96398 -9.65262,-14.20437 -9.65262,-23.30375 z"
                   style="fill:#c87100;fill-opacity:1"
                   inkscape:connector-curvature="0" />
                <path
                   id="path3670"
                   d="m 66.550618,183.01575 c 5.958897,5.95889 14.189257,9.64525 23.281382,9.64525 l 353.55339,353.55339 c -9.09212,0 -17.32248,-3.68636 -23.28138,-9.64525 z"
                   style="fill:#c87100;fill-opacity:1"
                   inkscape:connector-curvature="0" />
                <path
                   id="path3672"
                   d="m 89.832,192.661 c 53.508,0 102.03313,21.76813 137.18044,56.91544 L 580.56583,603.12983 C 545.41852,567.98252 496.89339,546.21439 443.38539,546.21439 Z"
                   style="fill:#c87100;fill-opacity:1"
                   inkscape:connector-curvature="0" />
                <path
                   id="path3674"
                   d="M 227.01244,249.57644 C 262.15713,284.72113 283.926,333.243 283.926,386.755 l 353.55339,353.55339 c 0,-53.512 -21.76887,-102.03387 -56.91356,-137.17856 z"
                   style="fill:#c87100;fill-opacity:1"
                   inkscape:connector-curvature="0" />
                <path
                   id="path3676"
                   d="m 283.926,386.755 c 0,9.09475 3.6857,17.32845 9.64562,23.28837 l 353.55339,353.55339 c -5.95992,-5.95992 -9.64562,-14.19362 -9.64562,-23.28837 z"
                   style="fill:#c87100;fill-opacity:1"
                   inkscape:connector-curvature="0" />
                <path
                   id="path3678"
                   d="m 293.57162,410.04337 c 5.95958,5.95958 14.19313,9.64563 23.28938,9.64563 l 353.55339,353.55339 c -9.09625,0 -17.3298,-3.68605 -23.28938,-9.64563 z"
                   style="fill:#c87100;fill-opacity:1"
                   inkscape:connector-curvature="0" />
                <path
                   id="path3680"
                   d="m 316.861,419.689 c 18.193,0 32.948,-14.742 32.948,-32.934 l 353.55339,353.55339 c 0,18.192 -14.755,32.934 -32.948,32.934 z"
                   style="fill:#c87100;fill-opacity:1"
                   inkscape:connector-curvature="0" />
                <path
                   id="path3682"
                   d="m 349.809,386.755 c 0,-71.67837 -29.16122,-136.68134 -76.24261,-183.76273 l 353.55339,353.55339 c 47.08139,47.08139 76.24261,112.08436 76.24261,183.76273 z"
                   style="fill:#c87100;fill-opacity:1"
                   inkscape:connector-curvature="0" />
                <path
                   id="path3684"
                   d="M 273.56639,202.99227 C 226.49141,155.91728 161.50112,126.759 89.832,126.759 l 353.55339,353.55339 c 71.66913,0 136.65941,29.15828 183.73439,76.23327 z"
                   style="fill:#c87100;fill-opacity:1"
                   inkscape:connector-curvature="0" />
              </g>
              <path
                 id="path3575"
                 d="m 89.832,126.759 c -18.191,0 -32.934,14.762 -32.934,32.953 0,18.191 14.742,32.949 32.934,32.949 107.012,0 194.094,87.066 194.094,194.094 0,18.189 14.742,32.934 32.935,32.934 18.193,0 32.948,-14.742 32.948,-32.934 0,-143.347 -116.629,-259.996 -259.977,-259.996 z"
                 inkscape:connector-curvature="0"
                 style="fill:#c87100;fill-opacity:1" />
            </g>
            <g
               id="g3687"
               style="fill:#c87100;fill-opacity:1">
              <g
                 id="g3689"
                 style="fill:#c87100;fill-opacity:1">
                <path
                   id="path3691"
                   d="m 96.383,0.15 c -18.191,0 -32.938,14.742 -32.938,32.934 l 353.55339,353.55339 c 0,-18.192 14.747,-32.934 32.938,-32.934 z"
                   style="fill:#c87100;fill-opacity:1"
                   inkscape:connector-curvature="0" />
                <path
                   id="path3693"
                   d="m 63.445,33.084 c 0,9.09875 3.688729,17.338231 9.652407,23.301908 L 426.6508,409.9393 c -5.96368,-5.96368 -9.65241,-14.20316 -9.65241,-23.30191 z"
                   style="fill:#c87100;fill-opacity:1"
                   inkscape:connector-curvature="0" />
                <path
                   id="path3695"
                   d="M 73.097407,56.385908 C 79.057479,62.34598 87.28975,66.033 96.383,66.033 l 353.55339,353.55339 c -9.09325,0 -17.32552,-3.68702 -23.28559,-9.64709 z"
                   style="fill:#c87100;fill-opacity:1"
                   inkscape:connector-curvature="0" />
                <path
                   id="path3697"
                   d="m 96.383,66.033 c 88.35363,0 168.47622,35.94584 226.51361,93.98323 L 676.45,513.56962 C 618.41261,455.53223 538.29002,419.58639 449.93639,419.58639 Z"
                   style="fill:#c87100;fill-opacity:1"
                   inkscape:connector-curvature="0" />
                <path
                   id="path3699"
                   d="M 322.89661,160.01623 C 380.94434,218.06397 416.899,298.21112 416.899,386.596 l 353.55339,353.55339 c 0,-88.38488 -35.95466,-168.53203 -94.00239,-226.57977 z"
                   style="fill:#c87100;fill-opacity:1"
                   inkscape:connector-curvature="0" />
                <path
                   id="path3701"
                   d="m 416.899,386.596 c 0,9.09512 3.68535,17.32873 9.64512,23.2885 l 353.55339,353.55339 c -5.95977,-5.95977 -9.64512,-14.19337 -9.64512,-23.2885 z"
                   style="fill:#c87100;fill-opacity:1"
                   inkscape:connector-curvature="0" />
                <path
                   id="path3703"
                   d="m 426.54412,409.8845 c 5.95961,5.9596 14.19351,9.6455 23.29088,9.6455 l 353.55339,353.55339 c -9.09737,0 -17.33127,-3.6859 -23.29088,-9.6455 z"
                   style="fill:#c87100;fill-opacity:1"
                   inkscape:connector-curvature="0" />
                <path
                   id="path3705"
                   d="m 449.835,419.53 c 18.207,0 32.947,-14.741 32.947,-32.934 l 353.55339,353.55339 c 0,18.193 -14.74,32.934 -32.947,32.934 z"
                   style="fill:#c87100;fill-opacity:1"
                   inkscape:connector-curvature="0" />
                <path
                   id="path3707"
                   d="M 482.782,386.596 C 482.7815,280.04275 439.43994,183.42494 369.46361,113.4486 L 723.017,467.002 c 69.97634,69.97633 113.31789,166.59414 113.31839,273.14739 z"
                   style="fill:#c87100;fill-opacity:1"
                   inkscape:connector-curvature="0" />
                <path
                   id="path3709"
                   d="M 369.46361,113.4486 C 299.49745,43.482445 202.90425,0.15 96.383,0.15 l 353.55339,353.55339 c 106.52125,0 203.11445,43.33245 273.08061,113.29861 z"
                   style="fill:#c87100;fill-opacity:1"
                   inkscape:connector-curvature="0" />
              </g>
              <path
                 id="path3577"
                 d="m 96.383,0.15 c -18.191,0 -32.938,14.742 -32.938,32.934 0,18.192 14.746,32.949 32.938,32.949 176.723,0 320.516,143.809 320.516,320.563 0,18.19 14.741,32.934 32.936,32.934 18.207,0 32.947,-14.741 32.947,-32.934 C 482.781,173.505 309.441,0.15 96.383,0.15 Z"
                 inkscape:connector-curvature="0"
                 style="fill:#c87100;fill-opacity:1" />
            </g>
            <g
               id="g3712"
               style="fill:#c87100;fill-opacity:1">
              <g
                 id="g3714"
                 style="fill:#c87100;fill-opacity:1">
                <path
                   id="path3716"
                   d="M 58.211,366.205 C 26.051,366.205 0,392.259 0,424.419 l 353.55339,353.55339 c 0,-32.16 26.051,-58.214 58.211,-58.214 z"
                   style="fill:#c87100;fill-opacity:1"
                   inkscape:connector-curvature="0" />
                <path
                   id="path3718"
                   d="m 0,424.419 c 0,16.0735 6.5147758,30.62853 17.050414,41.16416 L 370.6038,819.13656 c -10.53563,-10.53564 -17.05041,-25.09067 -17.05041,-41.16417 z"
                   style="fill:#c87100;fill-opacity:1"
                   inkscape:connector-curvature="0" />
                <path
                   id="path3720"
                   d="M 17.050414,465.58316 C 27.582776,476.11553 42.133501,482.631 58.211,482.631 l 353.55339,353.55339 c -16.0775,0 -30.62822,-6.51547 -41.16059,-17.04783 z"
                   style="fill:#c87100;fill-opacity:1"
                   inkscape:connector-curvature="0" />
                <path
                   id="path3722"
                   d="m 58.211,482.631 c 32.145,0 58.227,-26.07 58.227,-58.212 l 353.55339,353.55339 c 0,32.142 -26.082,58.212 -58.227,58.212 z"
                   style="fill:#c87100;fill-opacity:1"
                   inkscape:connector-curvature="0" />
                <path
                   id="path3724"
                   d="m 116.438,424.419 c 0,-16.07487 -6.51634,-30.62422 -17.049047,-41.15692 L 452.94234,736.81547 c 10.53271,10.5327 17.04905,25.08205 17.04905,41.15692 z"
                   style="fill:#c87100;fill-opacity:1"
                   inkscape:connector-curvature="0" />
                <path
                   id="path3726"
                   d="M 99.388953,383.26208 C 88.849531,372.72265 74.288624,366.205 58.211,366.205 l 353.55339,353.55339 c 16.07762,0 30.63853,6.51765 41.17795,17.05708 z"
                   style="fill:#c87100;fill-opacity:1"
                   inkscape:connector-curvature="0" />
              </g>
              <path
                 id="path3579"
                 d="M 58.211,366.205 C 26.051,366.205 0,392.259 0,424.419 c 0,32.142 26.051,58.212 58.211,58.212 32.145,0 58.227,-26.07 58.227,-58.212 0,-32.16 -26.082,-58.214 -58.227,-58.214 z"
                 inkscape:connector-curvature="0"
                 style="fill:#c87100;fill-opacity:1" />
            </g>
            <g
               id="g3729"
               style="fill:#c87100;fill-opacity:1">
              <g
                 id="g3731"
                 style="fill:#c87100;fill-opacity:1">
                <path
                   id="path3733"
                   d="m 71.895,248.373 c -18.191,0 -32.934,14.763 -32.934,32.953 l 353.55339,353.55339 c 0,-18.19 14.743,-32.953 32.934,-32.953 z"
                   style="fill:#c87100;fill-opacity:1"
                   inkscape:connector-curvature="0" />
                <path
                   id="path3735"
                   d="m 38.961,281.326 c 0,9.09875 3.68854,17.33879 9.652372,23.30262 l 353.553388,353.5534 c -5.96383,-5.96384 -9.65237,-14.20388 -9.65237,-23.30263 z"
                   style="fill:#c87100;fill-opacity:1"
                   inkscape:connector-curvature="0" />
                <path
                   id="path3737"
                   d="M 48.613372,304.62862 C 54.572289,310.58754 62.80275,314.274 71.895,314.274 l 353.55339,353.55339 c -9.09225,0 -17.32271,-3.68646 -23.28163,-9.64537 z"
                   style="fill:#c87100;fill-opacity:1"
                   inkscape:connector-curvature="0" />
                <path
                   id="path3739"
                   d="m 71.895,314.274 c 24.927375,0 47.52615,10.13827 63.89394,26.50606 l 353.55339,353.55339 c -16.36779,-16.36779 -38.96656,-26.50606 -63.89394,-26.50606 z"
                   style="fill:#c87100;fill-opacity:1"
                   inkscape:connector-curvature="0" />
                <path
                   id="path3741"
                   d="m 135.78894,340.78006 c 16.37058,16.37059 26.50806,38.97282 26.50806,63.89594 l 353.55339,353.55339 c 0,-24.92312 -10.13748,-47.52535 -26.50806,-63.89594 z"
                   style="fill:#c87100;fill-opacity:1"
                   inkscape:connector-curvature="0" />
                <path
                   id="path3743"
                   d="m 162.297,404.676 c 0,9.0945 3.6895,17.3315 9.65287,23.29487 l 353.5534,353.5534 c -5.96338,-5.96338 -9.65288,-14.20038 -9.65288,-23.29488 z"
                   style="fill:#c87100;fill-opacity:1"
                   inkscape:connector-curvature="0" />
                <path
                   id="path3745"
                   d="m 171.94987,427.97087 c 5.96338,5.96338 14.20063,9.65313 23.29613,9.65313 l 353.55339,353.55339 c -9.0955,0 -17.33275,-3.68975 -23.29612,-9.65312 z"
                   style="fill:#c87100;fill-opacity:1"
                   inkscape:connector-curvature="0" />
                <path
                   id="path3747"
                   d="m 195.246,437.624 c 18.191,0 32.934,-14.759 32.934,-32.948 l 353.55339,353.55339 c 0,18.189 -14.743,32.948 -32.934,32.948 z"
                   style="fill:#c87100;fill-opacity:1"
                   inkscape:connector-curvature="0" />
                <path
                   id="path3749"
                   d="m 228.18,404.676 c 0,-43.09375 -17.53011,-82.17337 -45.83436,-110.47761 l 353.55339,353.55339 c 28.30425,28.30425 45.83436,67.38386 45.83436,110.47761 z"
                   style="fill:#c87100;fill-opacity:1"
                   inkscape:connector-curvature="0" />
                <path
                   id="path3751"
                   d="M 182.34564,294.19839 C 154.04764,265.90039 114.98025,248.373 71.895,248.373 l 353.55339,353.55339 c 43.08525,0 82.15264,17.52739 110.45064,45.82539 z"
                   style="fill:#c87100;fill-opacity:1"
                   inkscape:connector-curvature="0" />
              </g>
              <path
                 id="path3573"
                 d="m 71.895,248.373 c -18.191,0 -32.934,14.763 -32.934,32.953 0,18.19 14.742,32.948 32.934,32.948 49.859,0 90.402,40.56 90.402,90.402 0,18.189 14.758,32.948 32.949,32.948 18.191,0 32.934,-14.759 32.934,-32.948 0,-86.178 -70.105,-156.303 -156.285,-156.303 z"
                 inkscape:connector-curvature="0"
                 style="fill:#c87100;fill-opacity:1" />
            </g>
          </g>
        </g>
      </g>
      <g
         id="g3581"
         style="fill:#c87100;fill-opacity:1" />
      <g
         id="g3583"
         style="fill:#c87100;fill-opacity:1" />
      <g
         id="g3585"
         style="fill:#c87100;fill-opacity:1" />
      <g
         id="g3587"
         style="fill:#c87100;fill-opacity:1" />
      <g
         id="g3589"
         style="fill:#c87100;fill-opacity:1" />
      <g
         id="g3591"
         style="fill:#c87100;fill-opacity:1" />
      <g
         id="g3593"
         style="fill:#c87100;fill-opacity:1" />
      <g
         id="g3595"
         style="fill:#c87100;fill-opacity:1" />
      <g
         id="g3597"
         style="fill:#c87100;fill-opacity:1" />
      <g
         id="g3599"
         style="fill:#c87100;fill-opacity:1" />
      <g
         id="g3601"
         style="fill:#c87100;fill-opacity:1" />
      <g
         id="g3603"
         style="fill:#c87100;fill-opacity:1" />
      <g
         id="g3605"
         style="fill:#c87100;fill-opacity:1" />
      <g
         id="g3607"
         style="fill:#c87100;fill-opacity:1" />
      <g
         id="g3609"
         style="fill:#c87100;fill-opacity:1" />
    </g>
  </g>
  <g
     inkscape:groupmode="layer"
     id="layer4"
     inkscape:label="Layer 3"
     style="display:inline">
    <g
       style="fill:#ffffff"
       transform="matrix(0.53854535,0,0,0.53888132,80,59.91917)"
       id="g3541">
      <g
         style="fill:#ffffff"
         id="g3491">
        <g
           style="fill:#ffffff"
           id="g3493">
          <g
             style="fill:#ffffff"
             id="g3495">
            <path
               style="fill:#ffffff"
               inkscape:connector-curvature="0"
               d="m 71.895,248.373 c -18.191,0 -32.934,14.763 -32.934,32.953 0,18.19 14.742,32.948 32.934,32.948 49.859,0 90.402,40.56 90.402,90.402 0,18.189 14.758,32.948 32.949,32.948 18.191,0 32.934,-14.759 32.934,-32.948 0,-86.178 -70.105,-156.303 -156.285,-156.303 z"
               id="path3497" />
            <path
               style="fill:#ffffff"
               inkscape:connector-curvature="0"
               d="m 89.832,126.759 c -18.191,0 -32.934,14.762 -32.934,32.953 0,18.191 14.742,32.949 32.934,32.949 107.012,0 194.094,87.066 194.094,194.094 0,18.189 14.742,32.934 32.935,32.934 18.193,0 32.948,-14.742 32.948,-32.934 0,-143.347 -116.629,-259.996 -259.977,-259.996 z"
               id="path3499" />
            <path
               style="fill:#ffffff"
               inkscape:connector-curvature="0"
               d="m 96.383,0.15 c -18.191,0 -32.938,14.742 -32.938,32.934 0,18.192 14.746,32.949 32.938,32.949 176.723,0 320.516,143.809 320.516,320.563 0,18.19 14.741,32.934 32.936,32.934 18.207,0 32.947,-14.741 32.947,-32.934 C 482.781,173.505 309.441,0.15 96.383,0.15 Z"
               id="path3501" />
            <path
               style="fill:#ffffff"
               inkscape:connector-curvature="0"
               d="M 58.211,366.205 C 26.051,366.205 0,392.259 0,424.419 c 0,32.142 26.051,58.212 58.211,58.212 32.145,0 58.227,-26.07 58.227,-58.212 0,-32.16 -26.082,-58.214 -58.227,-58.214 z"
               id="path3503" />
          </g>
        </g>
      </g>
      <g
         style="fill:#ffffff"
         id="g3505" />
      <g
         style="fill:#ffffff"
         id="g3507" />
      <g
         style="fill:#ffffff"
         id="g3509" />
      <g
         style="fill:#ffffff"
         id="g3511" />
      <g
         style="fill:#ffffff"
         id="g3513" />
      <g
         style="fill:#ffffff"
         id="g3515" />
      <g
         style="fill:#ffffff"
         id="g3517" />
      <g
         style="fill:#ffffff"
         id="g3519" />
      <g
         style="fill:#ffffff"
         id="g3521" />
      <g
         style="fill:#ffffff"
         id="g3523" />
      <g
         style="fill:#ffffff"
         id="g3525" />
      <g
         style="fill:#ffffff"
         id="g3527" />
      <g
         style="fill:#ffffff"
         id="g3529" />
      <g
         style="fill:#ffffff"
         id="g3531" />
      <g
         style="fill:#ffffff"
         id="g3533" />
    </g>
  </g>
</svg>
