<?xml version="1.0" encoding="UTF-8" standalone="no"?>
<!-- Created with Inkscape (http://www.inkscape.org/) -->

<svg
   xmlns:dc="http://purl.org/dc/elements/1.1/"
   xmlns:cc="http://creativecommons.org/ns#"
   xmlns:rdf="http://www.w3.org/1999/02/22-rdf-syntax-ns#"
   xmlns:svg="http://www.w3.org/2000/svg"
   xmlns="http://www.w3.org/2000/svg"
   xmlns:sodipodi="http://sodipodi.sourceforge.net/DTD/sodipodi-0.dtd"
   xmlns:inkscape="http://www.inkscape.org/namespaces/inkscape"
   width="400"
   height="400"
   viewBox="0 0 399.99999 400.00001"
   id="svg3566"
   version="1.1"
   inkscape:version="0.91 r13725"
   sodipodi:docname="type_web.svg">
  <sodipodi:namedview
     id="base"
     pagecolor="#ffffff"
     bordercolor="#666666"
     borderopacity="1.0"
     inkscape:pageopacity="0.0"
     inkscape:pageshadow="2"
     inkscape:zoom="1.4142136"
     inkscape:cx="179.89291"
     inkscape:cy="217.44871"
     inkscape:document-units="px"
     inkscape:current-layer="layer2"
     showgrid="false"
     units="px"
     inkscape:window-width="1280"
     inkscape:window-height="751"
     inkscape:window-x="0"
     inkscape:window-y="0"
     inkscape:window-maximized="1" />
  <defs
     id="defs3568">
    <clipPath
       id="clipPath5130"
       clipPathUnits="userSpaceOnUse">
      <ellipse
         ry="212.5"
         rx="213.23529"
         style="display:inline;fill:#a4c639;fill-opacity:1"
         cx="494.71536"
         cy="580.85931"
         id="circle5132" />
    </clipPath>
    <clipPath
       clipPathUnits="userSpaceOnUse"
       id="clipPath6123">
      <ellipse
         style="display:inline;fill:#008a00;fill-opacity:1"
         cx="237.10672"
         cy="229.618"
         id="circle6125"
         rx="297.91449"
         ry="296.28125" />
    </clipPath>
  </defs>
  <metadata
     id="metadata3571">
    <rdf:RDF>
      <cc:Work
         rdf:about="">
        <dc:format>image/svg+xml</dc:format>
        <dc:type
           rdf:resource="http://purl.org/dc/dcmitype/StillImage" />
        <dc:title />
      </cc:Work>
    </rdf:RDF>
  </metadata>
  <g
     inkscape:label="Layer 1"
     inkscape:groupmode="layer"
     id="layer1"
     transform="translate(0,-652.36216)"
     style="display:inline">
    <circle
       id="circle3938"
       cy="852.36218"
       cx="200"
       r="200"
       style="fill:#008a00;fill-opacity:1" />
  </g>
  <g
     inkscape:groupmode="layer"
     id="layer2"
     inkscape:label="Layer 2"
     style="display:inline"
     transform="translate(0,-652.36216)">
    <g
       style="display:inline;fill:#004600;fill-opacity:1"
       transform="matrix(0.67133359,0,0,0.67503428,40.822291,697.36216)"
       id="g5121"
       clip-path="url(#clipPath6123)">
      <g
         style="fill:#004600;fill-opacity:1"
         id="g5123">
        <g
           style="fill:#004600;fill-opacity:1"
           id="g5125">
          <g
             style="fill:#004600;fill-opacity:1"
             id="g5127">
            <path
               inkscape:connector-curvature="0"
               style="fill:#004600;fill-opacity:1"
               d="m 307.89,407.148 c 0.453,-0.237 0.928,-0.453 1.381,-0.669 -0.173,-0.259 -0.345,-0.475 -0.496,-0.733 -0.259,0.41 -0.604,0.971 -0.885,1.402 z"
               id="path5129" />
            <path
               inkscape:connector-curvature="0"
               style="fill:#004600;fill-opacity:1"
               d="m 349.133,334.455 89.066,-17.753 -223.128,-139.023 -5.263,3.667 49.677,258.094 48.491,-76.727 47.024,68.509 c 8.93,12.899 25.324,17.062 36.692,9.275 11.303,-7.809 13.331,-24.634 4.465,-37.555 l -47.024,-68.487 z"
               id="path5133" />
            <g
               id="g5691"
               style="fill:#004600;fill-opacity:1">
              <g
                 id="g5693"
                 style="fill:#004600;fill-opacity:1">
                <path
                   id="path5695"
                   d="M219.493 400.354C183.707 400.354 150.359 390.086 121.907 372.592L546.171068712 796.856068712C574.623068712 814.350068712 607.971068712 824.618068712 643.757068712 824.618068712Z"
                   style="fill:#004600;fill-opacity:1" />
                <path
                   id="path5697"
                   d="M121.907 372.592C147.512 372.851 102.86 333.635 133.62 327.617L557.884068712 751.881068712C527.124068712 757.899068712 571.776068712 797.115068712 546.171068712 796.856068712Z"
                   style="fill:#004600;fill-opacity:1" />
                <path
                   id="path5699"
                   d="M133.62 327.617C162.857067808 321.871059993 176.759628563 291.035499084 171.430633542 285.706504064L595.694702254 709.970572776C601.023697275 715.299567796 587.121136519 746.135128705 557.884068712 751.881068712Z"
                   style="fill:#004600;fill-opacity:1" />
                <path
                   id="path5701"
                   d="M171.430633542 285.706504064C170.877825694 285.153696215 170.118064624 284.875367771 169.147 284.928L593.411068712 709.192068712C594.382133336 709.139436483 595.141894406 709.417764927 595.694702254 709.970572776Z"
                   style="fill:#004600;fill-opacity:1" />
                <path
                   id="path5703"
                   d="M169.147 284.928C159.961929533 285.408142855 143.382745485 280.804931815 130.112303713 267.534490043L554.376372425 691.798558755C567.646814197 705.069000527 584.225998245 709.672211567 593.411068712 709.192068712Z"
                   style="fill:#004600;fill-opacity:1" />
                <path
                   id="path5705"
                   d="M130.112303713 267.534490043C128.485578871 265.907765201 126.908572799 264.150802336 125.401 262.257L549.665068712 686.521068712C551.172641511 688.414871048 552.749647583 690.171833913 554.376372425 691.798558755Z"
                   style="fill:#004600;fill-opacity:1" />
                <path
                   id="path5707"
                   d="M125.401 262.257C124.062336968 260.565445758 122.739852031 259.075058547 121.430021504 257.76522802L545.694090216 682.029296732C547.003920743 683.339127259 548.32640568 684.82951447 549.665068712 686.521068712Z"
                   style="fill:#004600;fill-opacity:1" />
                <path
                   id="path5709"
                   d="M121.430021504 257.76522802C109.210661888 245.545868404 98.0926096396 249.040273502 85.215 251.515L509.479068712 675.779068712C522.356678352 673.304342214 533.4747306 669.809937116 545.694090216 682.029296732Z"
                   style="fill:#004600;fill-opacity:1" />
                <path
                   id="path5711"
                   d="M85.215 251.515C72.747 253.974 57.389 290.04 53.571 299.51L477.835068712 723.774068712C481.653068712 714.304068712 497.011068712 678.238068712 509.479068712 675.779068712Z"
                   style="fill:#004600;fill-opacity:1" />
                <path
                   id="path5713"
                   d="M53.571 299.51C43.864 280.916 37.285 260.488 34.308 238.896L458.572068712 663.160068712C461.549068712 684.752068712 468.128068712 705.180068712 477.835068712 723.774068712Z"
                   style="fill:#004600;fill-opacity:1" />
                <path
                   id="path5715"
                   d="M34.308 238.896C50.141 230.613 75.983 216.678 85.323 208.977L509.587068712 633.241068712C500.247068712 640.942068712 474.405068712 654.877068712 458.572068712 663.160068712Z"
                   style="fill:#004600;fill-opacity:1" />
                <path
                   id="path5717"
                   d="M85.323 208.977C92.6261925456 202.921431759 90.8840552135 198.779466572 87.3016833385 195.197094697L511.56575205 619.461163409C515.148123925 623.043535284 516.890261257 627.185500471 509.587068712 633.241068712Z"
                   style="fill:#004600;fill-opacity:1" />
                <path
                   id="path5719"
                   d="M87.3016833385 195.197094697C84.6775900777 192.573001436 81.0661030597 190.249162806 79.2990415328 187.693412238L503.563110245 611.95748095C505.330171772 614.513231518 508.94165879 616.837070148 511.56575205 619.461163409Z"
                   style="fill:#004600;fill-opacity:1" />
                <path
                   id="path5721"
                   d="M79.2990415328 187.693412238C78.932652126 187.16349298 78.6455573152 186.623603482 78.463 186.069L502.727068712 610.333068712C502.909626027 610.887672194 503.196720838 611.427561691 503.563110245 611.95748095Z"
                   style="fill:#004600;fill-opacity:1" />
                <path
                   id="path5723"
                   d="M78.463 186.069C76.22 179.188 78.463 163.161 78.463 147.242L502.727068712 571.506068712C502.727068712 587.425068712 500.484068712 603.452068712 502.727068712 610.333068712Z"
                   style="fill:#004600;fill-opacity:1" />
                <path
                   id="path5725"
                   d="M78.463 147.242C78.463 131.172 110.517 131.172 121.885 115.188L546.149068712 539.452068712C534.781068712 555.436068712 502.727068712 555.436068712 502.727068712 571.506068712Z"
                   style="fill:#004600;fill-opacity:1" />
                <path
                   id="path5727"
                   d="M121.885 115.188C130.06 103.777 115.09 78.604 105.75 64.971L530.014068712 489.235068712C539.354068712 502.868068712 554.324068712 528.041068712 546.149068712 539.452068712Z"
                   style="fill:#004600;fill-opacity:1" />
                <path
                   id="path5729"
                   d="M105.75 64.971C137.308 40.682 176.696 26.079 219.493 26.079L643.757068712 450.343068712C600.960068712 450.343068712 561.572068712 464.946068712 530.014068712 489.235068712Z"
                   style="fill:#004600;fill-opacity:1" />
                <path
                   id="path5731"
                   d="M219.493 26.079C230.839 26.079 241.905 27.265 252.712 29.207L676.976068712 453.471068712C666.169068712 451.529068712 655.103068712 450.343068712 643.757068712 450.343068712Z"
                   style="fill:#004600;fill-opacity:1" />
                <path
                   id="path5733"
                   d="M252.712 29.207C255.514912395 46.6343796194 260.997737719 69.8419329578 271.036893516 79.8810887549L695.300962228 504.145157467C685.261806431 494.10600167 679.778981107 470.898448331 676.976068712 453.471068712Z"
                   style="fill:#004600;fill-opacity:1" />
                <path
                   id="path5735"
                   d="M271.036893516 79.8810887549C272.355268227 81.1994634655 273.752220501 82.2907386289 275.232 83.112L699.496068712 507.376068712C698.016289212 506.554807341 696.619336939 505.463532177 695.300962228 504.145157467Z"
                   style="fill:#004600;fill-opacity:1" />
                <path
                   id="path5737"
                   d="M275.232 83.112C295.875 94.545 320.854 119.718 330.086 124.247L754.350068712 548.511068712C745.118068712 543.982068712 720.139068712 518.809068712 699.496068712 507.376068712Z"
                   style="fill:#004600;fill-opacity:1" />
                <path
                   id="path5739"
                   d="M330.086 124.247C330.778168181 124.591464587 331.482699935 125.131022835 332.192846684 125.841169584L756.456915396 550.105238296C755.746768647 549.395091547 755.042236893 548.855533299 754.350068712 548.511068712Z"
                   style="fill:#004600;fill-opacity:1" />
                <path
                   id="path5741"
                   d="M332.192846684 125.841169584C340.91037756 134.55870046 350.474044376 168.982588393 348.4 183.782L772.664068712 608.046068712C774.738113088 593.246657105 765.174446272 558.822769172 756.456915396 550.105238296Z"
                   style="fill:#004600;fill-opacity:1" />
                <path
                   id="path5743"
                   d="M348.4 183.782C346.782 195.085 332.761 207.531 327.023 219.503L751.287068712 643.767068712C757.025068712 631.795068712 771.046068712 619.349068712 772.664068712 608.046068712Z"
                   style="fill:#004600;fill-opacity:1" />
                <path
                   id="path5745"
                   d="M327.023 219.503L422.366 278.909L846.630068712 703.173068712L751.287068712 643.767068712Z"
                   style="fill:#004600;fill-opacity:1" />
                <path
                   id="path5747"
                   d="M422.366 278.909C429.096 258.201 432.806 236.177 432.806 213.248L857.070068712 637.512068712C857.070068712 660.441068712 853.360068712 682.465068712 846.630068712 703.173068712Z"
                   style="fill:#004600;fill-opacity:1" />
                <path
                   id="path5749"
                   d="M432.806 213.248C432.806 154.462627946 408.886376644 101.16374501 370.277280887 62.5546492529L794.541349599 486.818717965C833.150445356 525.427813722 857.070068712 578.726696658 857.070068712 637.512068712Z"
                   style="fill:#004600;fill-opacity:1" />
                <path
                   id="path5751"
                   d="M370.277280887 62.5546492529C331.647000083 23.9243684492 278.311122049 0.0 219.515 0.0L643.779068712 424.264068712C702.575190761 424.264068712 755.911068795 448.188437161 794.541349599 486.818717965Z"
                   style="fill:#004600;fill-opacity:1" />
                <path
                   id="path5753"
                   d="M219.515 0.0C101.889 0.0 6.223 95.645 6.223 213.249L430.487068712 637.513068712C430.487068712 519.909068712 526.153068712 424.264068712 643.779068712 424.264068712Z"
                   style="fill:#004600;fill-opacity:1" />
                <path
                   id="path5755"
                   d="M6.223 213.249C6.223 272.066874977 30.1438717412 325.399497478 68.7698389477 364.025464685L493.03390766 788.289533396C454.407940453 749.66356619 430.487068712 696.330943689 430.487068712 637.513068712Z"
                   style="fill:#004600;fill-opacity:1" />
                <path
                   id="path5757"
                   d="M68.7698389477 364.025464685C107.38874661 402.644372347 160.707375023 426.562 219.515 426.562L643.779068712 850.826068712C584.971443735 850.826068712 531.652815322 826.908441059 493.03390766 788.289533396Z"
                   style="fill:#004600;fill-opacity:1" />
                <path
                   id="path5759"
                   d="M219.515 426.562C223.98 426.562 228.337 426.152 232.738 425.893L657.002068712 850.157068712C652.601068712 850.416068712 648.244068712 850.826068712 643.779068712 850.826068712Z"
                   style="fill:#004600;fill-opacity:1" />
                <path
                   id="path5761"
                   d="M232.738 425.893L227.755 399.922L652.019068712 824.186068712L657.002068712 850.157068712Z"
                   style="fill:#004600;fill-opacity:1" />
                <path
                   id="path5763"
                   d="M227.755 399.922C224.994 400.052 222.276 400.354 219.493 400.354L643.757068712 824.618068712C646.540068712 824.618068712 649.258068712 824.316068712 652.019068712 824.186068712Z"
                   style="fill:#004600;fill-opacity:1" />
                <path
                   id="path5765"
                   d="M404.333 240.859C401.119634584 228.109092503 395.511573446 215.715787814 384.967446385 205.171660753L809.231515097 629.435729465C819.775642158 639.979856526 825.383703296 652.373161215 828.597068712 665.123068712Z"
                   style="fill:#004600;fill-opacity:1" />
                <path
                   id="path5767"
                   d="M384.967446385 205.171660753C382.274669745 202.478884113 379.259963918 199.90671045 375.881 197.48L800.145068712 621.744068712C803.52403263 624.170779162 806.538738457 626.742952825 809.231515097 629.435729465Z"
                   style="fill:#004600;fill-opacity:1" />
                <path
                   id="path5769"
                   d="M375.881 197.48C375.211539719 197.007467514 374.549338002 196.439925173 373.897271242 195.787858413L798.161339954 620.051927125C798.813406714 620.703993885 799.475608431 621.271536226 800.145068712 621.744068712Z"
                   style="fill:#004600;fill-opacity:1" />
                <path
                   id="path5771"
                   d="M373.897271242 195.787858413C363.476694669 185.36728184 355.644458028 153.3602385 362.14 142.561L786.404068712 566.825068712C779.90852674 577.624307212 787.740763381 609.631350552 798.161339954 620.051927125Z"
                   style="fill:#004600;fill-opacity:1" />
                <path
                   id="path5773"
                   d="M362.14 142.561C366.26 135.723 376.981 129.705 384.876 125.952L809.140068712 550.216068712C801.245068712 553.969068712 790.524068712 559.987068712 786.404068712 566.825068712Z"
                   style="fill:#004600;fill-opacity:1" />
                <path
                   id="path5775"
                   d="M384.876 125.952C398.703 152.031 406.598 181.712 406.598 213.249L830.862068712 637.513068712C830.862068712 605.976068712 822.967068712 576.295068712 809.140068712 550.216068712Z"
                   style="fill:#004600;fill-opacity:1" />
                <path
                   id="path5777"
                   d="M406.598 213.249C406.598 222.654 405.67 231.821 404.333 240.859L828.597068712 665.123068712C829.934068712 656.085068712 830.862068712 646.918068712 830.862068712 637.513068712Z"
                   style="fill:#004600;fill-opacity:1" />
              </g>
              <path
                 inkscape:connector-curvature="0"
                 style="fill:#004600;fill-opacity:1"
                 d="m 219.493,400.354 c -35.786,0 -69.134,-10.268 -97.586,-27.762 25.605,0.259 -19.047,-38.957 11.713,-44.975 32.27,-6.342 45.859,-43.249 35.527,-42.689 -10.311,0.539 -29.94,-5.328 -43.746,-22.671 C 111.574,244.785 99.473,248.775 85.215,251.515 72.747,253.974 57.389,290.04 53.571,299.51 43.864,280.916 37.285,260.488 34.308,238.896 c 15.833,-8.283 41.675,-22.218 51.015,-29.919 13.762,-11.411 -4.595,-16.027 -6.86,-22.908 -2.243,-6.881 0,-22.908 0,-38.827 0,-16.07 32.054,-16.07 43.422,-32.054 8.175,-11.411 -6.795,-36.584 -16.135,-50.217 31.558,-24.289 70.946,-38.892 113.743,-38.892 11.346,0 22.412,1.186 33.219,3.128 3.171,19.716 9.772,46.83 22.52,53.905 20.643,11.433 45.622,36.606 54.854,41.135 9.189,4.573 20.557,43.53 18.314,59.535 -1.618,11.303 -15.639,23.749 -21.377,35.721 l 95.343,59.406 c 6.73,-20.708 10.44,-42.732 10.44,-65.661 C 432.806,95.645 337.075,0 219.515,0 101.889,0 6.223,95.645 6.223,213.249 c 0,117.625 95.666,213.313 213.292,213.313 4.465,0 8.822,-0.41 13.223,-0.669 l -4.983,-25.971 c -2.761,0.13 -5.479,0.432 -8.262,0.432 z m 184.84,-159.495 c -4.034,-16.006 -11.842,-31.45 -28.452,-43.379 -11.368,-8.024 -20.643,-43.444 -13.741,-54.919 4.12,-6.838 14.841,-12.856 22.736,-16.609 13.827,26.079 21.722,55.76 21.722,87.297 0,9.405 -0.928,18.572 -2.265,27.61 z"
                 id="path5131" />
            </g>
          </g>
        </g>
        <g
           style="fill:#004600;fill-opacity:1"
           id="g5135" />
        <g
           style="fill:#004600;fill-opacity:1"
           id="g5137" />
        <g
           style="fill:#004600;fill-opacity:1"
           id="g5139" />
        <g
           style="fill:#004600;fill-opacity:1"
           id="g5141" />
        <g
           style="fill:#004600;fill-opacity:1"
           id="g5143" />
        <g
           style="fill:#004600;fill-opacity:1"
           id="g5145" />
        <g
           style="fill:#004600;fill-opacity:1"
           id="g5147" />
        <g
           style="fill:#004600;fill-opacity:1"
           id="g5149" />
        <g
           style="fill:#004600;fill-opacity:1"
           id="g5151" />
        <g
           style="fill:#004600;fill-opacity:1"
           id="g5153" />
        <g
           style="fill:#004600;fill-opacity:1"
           id="g5155" />
        <g
           style="fill:#004600;fill-opacity:1"
           id="g5157" />
        <g
           style="fill:#004600;fill-opacity:1"
           id="g5159" />
        <g
           style="fill:#004600;fill-opacity:1"
           id="g5161" />
        <g
           style="fill:#004600;fill-opacity:1"
           id="g5163" />
      </g>
      <g
         style="fill:#004600;fill-opacity:1"
         id="g5165" />
      <g
         style="fill:#004600;fill-opacity:1"
         id="g5167" />
      <g
         style="fill:#004600;fill-opacity:1"
         id="g5169" />
      <g
         style="fill:#004600;fill-opacity:1"
         id="g5171" />
      <g
         style="fill:#004600;fill-opacity:1"
         id="g5173" />
      <g
         style="fill:#004600;fill-opacity:1"
         id="g5175" />
      <g
         style="fill:#004600;fill-opacity:1"
         id="g5177" />
      <g
         style="fill:#004600;fill-opacity:1"
         id="g5179" />
      <g
         style="fill:#004600;fill-opacity:1"
         id="g5181" />
      <g
         style="fill:#004600;fill-opacity:1"
         id="g5183" />
      <g
         style="fill:#004600;fill-opacity:1"
         id="g5185" />
      <g
         style="fill:#004600;fill-opacity:1"
         id="g5187" />
      <g
         style="fill:#004600;fill-opacity:1"
         id="g5189" />
      <g
         style="fill:#004600;fill-opacity:1"
         id="g5191" />
      <g
         style="fill:#004600;fill-opacity:1"
         id="g5193" />
    </g>
  </g>
  <g
     inkscape:groupmode="layer"
     id="layer4"
     inkscape:label="Layer 3"
     style="display:inline">
    <g
       style="fill:#ffffff"
       transform="matrix(0.67133359,0,0,0.67503428,40.822291,44.999999)"
       id="g4935">
      <g
         style="fill:#ffffff"
         id="g4857">
        <g
           style="fill:#ffffff"
           id="g4859">
          <g
             style="fill:#ffffff"
             id="g4861">
            <path
               inkscape:connector-curvature="0"
               style="fill:#ffffff"
               d="m 307.89,407.148 c 0.453,-0.237 0.928,-0.453 1.381,-0.669 -0.173,-0.259 -0.345,-0.475 -0.496,-0.733 -0.259,0.41 -0.604,0.971 -0.885,1.402 z"
               id="path4863" />
            <path
               inkscape:connector-curvature="0"
               style="fill:#ffffff"
               d="m 219.493,400.354 c -35.786,0 -69.134,-10.268 -97.586,-27.762 25.605,0.259 -19.047,-38.957 11.713,-44.975 32.27,-6.342 45.859,-43.249 35.527,-42.689 -10.311,0.539 -29.94,-5.328 -43.746,-22.671 C 111.574,244.785 99.473,248.775 85.215,251.515 72.747,253.974 57.389,290.04 53.571,299.51 43.864,280.916 37.285,260.488 34.308,238.896 c 15.833,-8.283 41.675,-22.218 51.015,-29.919 13.762,-11.411 -4.595,-16.027 -6.86,-22.908 -2.243,-6.881 0,-22.908 0,-38.827 0,-16.07 32.054,-16.07 43.422,-32.054 8.175,-11.411 -6.795,-36.584 -16.135,-50.217 31.558,-24.289 70.946,-38.892 113.743,-38.892 11.346,0 22.412,1.186 33.219,3.128 3.171,19.716 9.772,46.83 22.52,53.905 20.643,11.433 45.622,36.606 54.854,41.135 9.189,4.573 20.557,43.53 18.314,59.535 -1.618,11.303 -15.639,23.749 -21.377,35.721 l 95.343,59.406 c 6.73,-20.708 10.44,-42.732 10.44,-65.661 C 432.806,95.645 337.075,0 219.515,0 101.889,0 6.223,95.645 6.223,213.249 c 0,117.625 95.666,213.313 213.292,213.313 4.465,0 8.822,-0.41 13.223,-0.669 l -4.983,-25.971 c -2.761,0.13 -5.479,0.432 -8.262,0.432 z m 184.84,-159.495 c -4.034,-16.006 -11.842,-31.45 -28.452,-43.379 -11.368,-8.024 -20.643,-43.444 -13.741,-54.919 4.12,-6.838 14.841,-12.856 22.736,-16.609 13.827,26.079 21.722,55.76 21.722,87.297 0,9.405 -0.928,18.572 -2.265,27.61 z"
               id="path4865" />
            <path
               inkscape:connector-curvature="0"
               style="fill:#ffffff"
               d="m 349.133,334.455 89.066,-17.753 -223.128,-139.023 -5.263,3.667 49.677,258.094 48.491,-76.727 47.024,68.509 c 8.93,12.899 25.324,17.062 36.692,9.275 11.303,-7.809 13.331,-24.634 4.465,-37.555 l -47.024,-68.487 z"
               id="path4867" />
          </g>
        </g>
        <g
           style="fill:#ffffff"
           id="g4869" />
        <g
           style="fill:#ffffff"
           id="g4871" />
        <g
           style="fill:#ffffff"
           id="g4873" />
        <g
           style="fill:#ffffff"
           id="g4875" />
        <g
           style="fill:#ffffff"
           id="g4877" />
        <g
           style="fill:#ffffff"
           id="g4879" />
        <g
           style="fill:#ffffff"
           id="g4881" />
        <g
           style="fill:#ffffff"
           id="g4883" />
        <g
           style="fill:#ffffff"
           id="g4885" />
        <g
           style="fill:#ffffff"
           id="g4887" />
        <g
           style="fill:#ffffff"
           id="g4889" />
        <g
           style="fill:#ffffff"
           id="g4891" />
        <g
           style="fill:#ffffff"
           id="g4893" />
        <g
           style="fill:#ffffff"
           id="g4895" />
        <g
           style="fill:#ffffff"
           id="g4897" />
      </g>
      <g
         style="fill:#ffffff"
         id="g4899" />
      <g
         style="fill:#ffffff"
         id="g4901" />
      <g
         style="fill:#ffffff"
         id="g4903" />
      <g
         style="fill:#ffffff"
         id="g4905" />
      <g
         style="fill:#ffffff"
         id="g4907" />
      <g
         style="fill:#ffffff"
         id="g4909" />
      <g
         style="fill:#ffffff"
         id="g4911" />
      <g
         style="fill:#ffffff"
         id="g4913" />
      <g
         style="fill:#ffffff"
         id="g4915" />
      <g
         style="fill:#ffffff"
         id="g4917" />
      <g
         style="fill:#ffffff"
         id="g4919" />
      <g
         style="fill:#ffffff"
         id="g4921" />
      <g
         style="fill:#ffffff"
         id="g4923" />
      <g
         style="fill:#ffffff"
         id="g4925" />
      <g
         style="fill:#ffffff"
         id="g4927" />
    </g>
    <g
       id="g4973"
       transform="matrix(0.67133359,0,0,0.67503428,40.822291,44.999999)"
       style="fill:#ffffff">
      <g
         id="g4975"
         style="fill:#ffffff">
        <g
           id="g4977"
           style="fill:#ffffff">
          <g
             id="g4979"
             style="fill:#ffffff">
            <path
               id="path4981"
               d="m 307.89,407.148 c 0.453,-0.237 0.928,-0.453 1.381,-0.669 -0.173,-0.259 -0.345,-0.475 -0.496,-0.733 -0.259,0.41 -0.604,0.971 -0.885,1.402 z"
               style="fill:#ffffff"
               inkscape:connector-curvature="0" />
            <path
               id="path4985"
               d="m 349.133,334.455 89.066,-17.753 -223.128,-139.023 -5.263,3.667 49.677,258.094 48.491,-76.727 47.024,68.509 c 8.93,12.899 25.324,17.062 36.692,9.275 11.303,-7.809 13.331,-24.634 4.465,-37.555 l -47.024,-68.487 z"
               style="fill:#ffffff"
               inkscape:connector-curvature="0" />
          </g>
        </g>
        <g
           id="g4987"
           style="fill:#ffffff" />
        <g
           id="g4989"
           style="fill:#ffffff" />
        <g
           id="g4991"
           style="fill:#ffffff" />
        <g
           id="g4993"
           style="fill:#ffffff" />
        <g
           id="g4995"
           style="fill:#ffffff" />
        <g
           id="g4997"
           style="fill:#ffffff" />
        <g
           id="g4999"
           style="fill:#ffffff" />
        <g
           id="g5001"
           style="fill:#ffffff" />
        <g
           id="g5003"
           style="fill:#ffffff" />
        <g
           id="g5005"
           style="fill:#ffffff" />
        <g
           id="g5007"
           style="fill:#ffffff" />
        <g
           id="g5009"
           style="fill:#ffffff" />
        <g
           id="g5011"
           style="fill:#ffffff" />
        <g
           id="g5013"
           style="fill:#ffffff" />
        <g
           id="g5015"
           style="fill:#ffffff" />
      </g>
      <g
         id="g5017"
         style="fill:#ffffff" />
      <g
         id="g5019"
         style="fill:#ffffff" />
      <g
         id="g5021"
         style="fill:#ffffff" />
      <g
         id="g5023"
         style="fill:#ffffff" />
      <g
         id="g5025"
         style="fill:#ffffff" />
      <g
         id="g5027"
         style="fill:#ffffff" />
      <g
         id="g5029"
         style="fill:#ffffff" />
      <g
         id="g5031"
         style="fill:#ffffff" />
      <g
         id="g5033"
         style="fill:#ffffff" />
      <g
         id="g5035"
         style="fill:#ffffff" />
      <g
         id="g5037"
         style="fill:#ffffff" />
      <g
         id="g5039"
         style="fill:#ffffff" />
      <g
         id="g5041"
         style="fill:#ffffff" />
      <g
         id="g5043"
         style="fill:#ffffff" />
      <g
         id="g5045"
         style="fill:#ffffff" />
    </g>
    <g
       id="g5047"
       transform="matrix(0.67133359,0,0,0.67503428,40.822291,44.999999)"
       style="fill:#ffffff">
      <g
         id="g5049"
         style="fill:#ffffff">
        <g
           id="g5051"
           style="fill:#ffffff">
          <g
             id="g5053"
             style="fill:#ffffff">
            <path
               id="path5055"
               d="m 307.89,407.148 c 0.453,-0.237 0.928,-0.453 1.381,-0.669 -0.173,-0.259 -0.345,-0.475 -0.496,-0.733 -0.259,0.41 -0.604,0.971 -0.885,1.402 z"
               style="fill:#ffffff"
               inkscape:connector-curvature="0" />
            <path
               id="path5057"
               d="m 219.493,400.354 c -35.786,0 -69.134,-10.268 -97.586,-27.762 25.605,0.259 -19.047,-38.957 11.713,-44.975 32.27,-6.342 45.859,-43.249 35.527,-42.689 -10.311,0.539 -29.94,-5.328 -43.746,-22.671 C 111.574,244.785 99.473,248.775 85.215,251.515 72.747,253.974 57.389,290.04 53.571,299.51 43.864,280.916 37.285,260.488 34.308,238.896 c 15.833,-8.283 41.675,-22.218 51.015,-29.919 13.762,-11.411 -4.595,-16.027 -6.86,-22.908 -2.243,-6.881 0,-22.908 0,-38.827 0,-16.07 32.054,-16.07 43.422,-32.054 8.175,-11.411 -6.795,-36.584 -16.135,-50.217 31.558,-24.289 70.946,-38.892 113.743,-38.892 11.346,0 22.412,1.186 33.219,3.128 3.171,19.716 9.772,46.83 22.52,53.905 20.643,11.433 45.622,36.606 54.854,41.135 9.189,4.573 20.557,43.53 18.314,59.535 -1.618,11.303 -15.639,23.749 -21.377,35.721 l 95.343,59.406 c 6.73,-20.708 10.44,-42.732 10.44,-65.661 C 432.806,95.645 337.075,0 219.515,0 101.889,0 6.223,95.645 6.223,213.249 c 0,117.625 95.666,213.313 213.292,213.313 4.465,0 8.822,-0.41 13.223,-0.669 l -4.983,-25.971 c -2.761,0.13 -5.479,0.432 -8.262,0.432 z m 184.84,-159.495 c -4.034,-16.006 -11.842,-31.45 -28.452,-43.379 -11.368,-8.024 -20.643,-43.444 -13.741,-54.919 4.12,-6.838 14.841,-12.856 22.736,-16.609 13.827,26.079 21.722,55.76 21.722,87.297 0,9.405 -0.928,18.572 -2.265,27.61 z"
               style="fill:#ffffff"
               inkscape:connector-curvature="0" />
            <path
               id="path5059"
               d="m 349.133,334.455 89.066,-17.753 -223.128,-139.023 -5.263,3.667 49.677,258.094 48.491,-76.727 47.024,68.509 c 8.93,12.899 25.324,17.062 36.692,9.275 11.303,-7.809 13.331,-24.634 4.465,-37.555 l -47.024,-68.487 z"
               style="fill:#ffffff"
               inkscape:connector-curvature="0" />
          </g>
        </g>
        <g
           id="g5061"
           style="fill:#ffffff" />
        <g
           id="g5063"
           style="fill:#ffffff" />
        <g
           id="g5065"
           style="fill:#ffffff" />
        <g
           id="g5067"
           style="fill:#ffffff" />
        <g
           id="g5069"
           style="fill:#ffffff" />
        <g
           id="g5071"
           style="fill:#ffffff" />
        <g
           id="g5073"
           style="fill:#ffffff" />
        <g
           id="g5075"
           style="fill:#ffffff" />
        <g
           id="g5077"
           style="fill:#ffffff" />
        <g
           id="g5079"
           style="fill:#ffffff" />
        <g
           id="g5081"
           style="fill:#ffffff" />
        <g
           id="g5083"
           style="fill:#ffffff" />
        <g
           id="g5085"
           style="fill:#ffffff" />
        <g
           id="g5087"
           style="fill:#ffffff" />
        <g
           id="g5089"
           style="fill:#ffffff" />
      </g>
      <g
         id="g5091"
         style="fill:#ffffff" />
      <g
         id="g5093"
         style="fill:#ffffff" />
      <g
         id="g5095"
         style="fill:#ffffff" />
      <g
         id="g5097"
         style="fill:#ffffff" />
      <g
         id="g5099"
         style="fill:#ffffff" />
      <g
         id="g5101"
         style="fill:#ffffff" />
      <g
         id="g5103"
         style="fill:#ffffff" />
      <g
         id="g5105"
         style="fill:#ffffff" />
      <g
         id="g5107"
         style="fill:#ffffff" />
      <g
         id="g5109"
         style="fill:#ffffff" />
      <g
         id="g5111"
         style="fill:#ffffff" />
      <g
         id="g5113"
         style="fill:#ffffff" />
      <g
         id="g5115"
         style="fill:#ffffff" />
      <g
         id="g5117"
         style="fill:#ffffff" />
      <g
         id="g5119"
         style="fill:#ffffff" />
    </g>
  </g>
</svg>
