<?xml version="1.0" encoding="UTF-8" standalone="no"?>
<!-- Created with Inkscape (http://www.inkscape.org/) -->

<svg
   xmlns:dc="http://purl.org/dc/elements/1.1/"
   xmlns:cc="http://creativecommons.org/ns#"
   xmlns:rdf="http://www.w3.org/1999/02/22-rdf-syntax-ns#"
   xmlns:svg="http://www.w3.org/2000/svg"
   xmlns="http://www.w3.org/2000/svg"
   xmlns:sodipodi="http://sodipodi.sourceforge.net/DTD/sodipodi-0.dtd"
   xmlns:inkscape="http://www.inkscape.org/namespaces/inkscape"
   width="400"
   height="400"
   viewBox="0 0 399.99999 400.00001"
   id="svg3566"
   version="1.1"
   inkscape:version="0.91 r13725"
   sodipodi:docname="type_forensic.svg">
  <sodipodi:namedview
     id="base"
     pagecolor="#ffffff"
     bordercolor="#666666"
     borderopacity="1.0"
     inkscape:pageopacity="0.0"
     inkscape:pageshadow="2"
     inkscape:zoom="0.70710678"
     inkscape:cx="278.14767"
     inkscape:cy="220.84354"
     inkscape:document-units="px"
     inkscape:current-layer="layer4"
     showgrid="false"
     units="px"
     inkscape:window-width="1280"
     inkscape:window-height="751"
     inkscape:window-x="0"
     inkscape:window-y="0"
     inkscape:window-maximized="1" />
  <defs
     id="defs3568">
    <clipPath
       id="clipPath3529"
       clipPathUnits="userSpaceOnUse">
      <g
         style="fill:#ffffff"
         transform="matrix(0.54166892,0,0,0.54166669,59.999458,722.36215)"
         id="g3531">
        <g
           style="fill:#ffffff"
           id="g3533">
          <g
             id="g3535">
            <g
               style="fill:#ffffff"
               id="g3537">
              <path
                 inkscape:connector-curvature="0"
                 d="M 0.176,224 0.001,67.963 l 353.55339,353.55339 0.175,156.037 z"
                 id="path3539" />
              <path
                 inkscape:connector-curvature="0"
                 d="m 0.001,67.963 192,-26.072 353.55339,353.55339 -192,26.072 z"
                 id="path3541" />
              <path
                 inkscape:connector-curvature="0"
                 d="m 192.001,41.891 0,182.109 353.55339,353.55339 0,-182.109 z"
                 id="path3543" />
              <path
                 inkscape:connector-curvature="0"
                 d="m 192.001,224 -191.825,0 353.55339,353.55339 191.825,0 z"
                 id="path3545" />
              <path
                 inkscape:connector-curvature="0"
                 d="M 224.001,37.241 479.937,0 l 353.55339,353.55339 -255.936,37.241 z"
                 id="path3547" />
              <path
                 inkscape:connector-curvature="0"
                 d="m 479.937,0 0,224 353.55339,353.55339 0,-224 z"
                 id="path3549" />
              <path
                 inkscape:connector-curvature="0"
                 d="m 479.937,224 -255.936,0 353.55339,353.55339 255.936,0 z"
                 id="path3551" />
              <path
                 inkscape:connector-curvature="0"
                 d="m 224.001,224 0,-186.759 353.55339,353.55339 0,186.759 z"
                 id="path3553" />
              <path
                 inkscape:connector-curvature="0"
                 d="m 479.999,256 -0.062,224 353.55339,353.55339 0.062,-224 z"
                 id="path3555" />
              <path
                 inkscape:connector-curvature="0"
                 d="m 479.937,480 -255.936,-36.008 353.55339,353.55339 255.936,36.008 z"
                 id="path3557" />
              <path
                 inkscape:connector-curvature="0"
                 d="m 224.001,443.992 0,-187.992 353.55339,353.55339 0,187.992 z"
                 id="path3559" />
              <path
                 inkscape:connector-curvature="0"
                 d="m 224.001,256 255.998,0 353.55339,353.55339 -255.998,0 z"
                 id="path3561" />
              <path
                 inkscape:connector-curvature="0"
                 d="M 192.001,439.918 0.157,413.621 l 353.55339,353.55339 191.844,26.297 z"
                 id="path3563" />
              <path
                 inkscape:connector-curvature="0"
                 d="M 0.157,413.621 0.147,256 l 353.55339,353.55339 0.01,157.621 z"
                 id="path3565" />
              <path
                 inkscape:connector-curvature="0"
                 d="m 0.147,256 191.854,0 353.55339,353.55339 -191.854,0 z"
                 id="path3567" />
              <path
                 inkscape:connector-curvature="0"
                 d="m 192.001,256 0,183.918 353.55339,353.55339 0,-183.918 z"
                 id="path3569" />
            </g>
            <path
               style="fill:#ffffff"
               inkscape:connector-curvature="0"
               d="M 0.176,224 0.001,67.963 l 192,-26.072 0,182.109 -191.825,0 z M 224.001,37.241 479.937,0 l 0,224 -255.936,0 0,-186.759 z M 479.999,256 l -0.062,224 -255.936,-36.008 0,-187.992 255.998,0 z M 192.001,439.918 0.157,413.621 0.147,256 l 191.854,0 0,183.918 z"
               id="path3571" />
          </g>
        </g>
        <g
           style="fill:#ffffff"
           id="g3573" />
        <g
           style="fill:#ffffff"
           id="g3575" />
        <g
           style="fill:#ffffff"
           id="g3577" />
        <g
           style="fill:#ffffff"
           id="g3579" />
        <g
           style="fill:#ffffff"
           id="g3581" />
        <g
           style="fill:#ffffff"
           id="g3583" />
        <g
           style="fill:#ffffff"
           id="g3585" />
        <g
           style="fill:#ffffff"
           id="g3587" />
        <g
           style="fill:#ffffff"
           id="g3589" />
        <g
           style="fill:#ffffff"
           id="g3591" />
        <g
           style="fill:#ffffff"
           id="g3593" />
        <g
           style="fill:#ffffff"
           id="g3595" />
        <g
           style="fill:#ffffff"
           id="g3597" />
        <g
           style="fill:#ffffff"
           id="g3599" />
        <g
           style="fill:#ffffff"
           id="g3601" />
      </g>
    </clipPath>
    <clipPath
       clipPathUnits="userSpaceOnUse"
       id="clipPath4174">
      <ellipse
         id="circle4176"
         cy="240.00005"
         cx="258.46146"
         style="fill:#1ba1e2;fill-opacity:1"
         rx="369.22925"
         ry="369.23074" />
    </clipPath>
    <clipPath
       id="clipPath13707"
       clipPathUnits="userSpaceOnUse">
      <ellipse
         ry="29.478844"
         rx="29.483862"
         id="circle13709"
         cy="22.998592"
         cx="23.586819"
         style="display:inline;fill:#825a2c;fill-opacity:1" />
    </clipPath>
    <clipPath
       clipPathUnits="userSpaceOnUse"
       id="clipPath16102">
      <ellipse
         transform="scale(-1,1)"
         style="display:inline;fill:#e3c800;fill-opacity:1"
         cx="-242.60594"
         cy="251.59248"
         id="circle16104"
         rx="359.41473"
         ry="359.41779" />
    </clipPath>
  </defs>
  <metadata
     id="metadata3571">
    <rdf:RDF>
      <cc:Work
         rdf:about="">
        <dc:format>image/svg+xml</dc:format>
        <dc:type
           rdf:resource="http://purl.org/dc/dcmitype/StillImage" />
        <dc:title />
      </cc:Work>
    </rdf:RDF>
  </metadata>
  <g
     inkscape:label="Layer 1"
     inkscape:groupmode="layer"
     id="layer1"
     transform="translate(0,-652.36216)"
     style="display:inline">
    <circle
       clip-path="url(#clipPath3529)"
       style="fill:#1ba1e2;fill-opacity:1"
       r="200"
       cx="200"
       cy="852.36218"
       id="circle3527" />
    <circle
       id="circle3938"
       cy="852.36218"
       cx="200"
       r="200"
       style="fill:#1ba1e2;fill-opacity:1" />
    <circle
       style="fill:#e3c800;fill-opacity:1"
       r="200"
       cx="200"
       cy="852.36218"
       id="circle3640" />
    <g
       id="g4400"
       transform="matrix(0.65450002,0.35997501,-0.36079066,0.65598301,143.8836,680.54659)"
       style="fill:#ffffff">
      <g
         id="g4356"
         style="fill:#ffffff">
        <g
           id="g4358"
           style="fill:#ffffff">
          <g
             id="g4360"
             style="fill:#ffffff" />
        </g>
      </g>
      <g
         id="g4364"
         style="fill:#ffffff" />
      <g
         id="g4366"
         style="fill:#ffffff" />
      <g
         id="g4368"
         style="fill:#ffffff" />
      <g
         id="g4370"
         style="fill:#ffffff" />
      <g
         id="g4372"
         style="fill:#ffffff" />
      <g
         id="g4374"
         style="fill:#ffffff" />
      <g
         id="g4376"
         style="fill:#ffffff" />
      <g
         id="g4378"
         style="fill:#ffffff" />
      <g
         id="g4380"
         style="fill:#ffffff" />
      <g
         id="g4382"
         style="fill:#ffffff" />
      <g
         id="g4384"
         style="fill:#ffffff" />
      <g
         id="g4386"
         style="fill:#ffffff" />
      <g
         id="g4388"
         style="fill:#ffffff" />
      <g
         id="g4390"
         style="fill:#ffffff" />
      <g
         id="g4392"
         style="fill:#ffffff" />
    </g>
    <circle
       id="circle16097"
       cy="852.36218"
       cx="200"
       r="200"
       style="fill:#e3c800;fill-opacity:1" />
  </g>
  <g
     style="display:inline"
     inkscape:label="Layer 2"
     id="layer4"
     inkscape:groupmode="layer">
    <g
       id="g14282"
       transform="matrix(-0.55646023,0,0,0.5564555,335.00056,60)"
       style="display:inline;fill:#ffffff">
      <g
         id="g14284"
         style="fill:#ffffff">
        <g
           id="g14286"
           style="fill:#ffffff">
          <path
             id="path14288"
             d="M 363.909,181.955 C 363.909,81.473 282.44,0 181.956,0 81.474,0 0.001,81.473 0.001,181.955 c 0,100.482 81.473,181.951 181.955,181.951 100.484,0 181.953,-81.469 181.953,-181.951 z M 181.956,318.416 c -75.252,0 -136.465,-61.208 -136.465,-136.46 0,-75.252 61.213,-136.465 136.465,-136.465 75.25,0 136.468,61.213 136.468,136.465 0,75.252 -61.218,136.46 -136.468,136.46 z"
             inkscape:connector-curvature="0"
             style="fill:#ffffff" />
          <path
             id="path14290"
             d="M 471.882,407.567 360.567,296.243 c -16.586,25.795 -38.536,47.734 -64.331,64.321 L 407.56,471.888 c 17.772,17.768 46.587,17.768 64.321,0 17.773,-17.739 17.773,-46.554 0.001,-64.321 z"
             inkscape:connector-curvature="0"
             style="fill:#ffffff" />
        </g>
      </g>
      <g
         id="g14292"
         style="fill:#ffffff" />
      <g
         id="g14294"
         style="fill:#ffffff" />
      <g
         id="g14296"
         style="fill:#ffffff" />
      <g
         id="g14298"
         style="fill:#ffffff" />
      <g
         id="g14300"
         style="fill:#ffffff" />
      <g
         id="g14302"
         style="fill:#ffffff" />
      <g
         id="g14304"
         style="fill:#ffffff" />
      <g
         id="g14306"
         style="fill:#ffffff" />
      <g
         id="g14308"
         style="fill:#ffffff" />
      <g
         id="g14310"
         style="fill:#ffffff" />
      <g
         id="g14312"
         style="fill:#ffffff" />
      <g
         id="g14314"
         style="fill:#ffffff" />
      <g
         id="g14316"
         style="fill:#ffffff" />
      <g
         id="g14318"
         style="fill:#ffffff" />
      <g
         id="g14320"
         style="fill:#ffffff" />
    </g>
    <g
       id="g15667"
       transform="matrix(-0.55646023,0,0,0.5564555,335.00056,60)"
       style="display:inline;fill:#aa9500;fill-opacity:1"
       clip-path="url(#clipPath16102)">
      <g
         id="g15669"
         style="fill:#aa9500;fill-opacity:1">
        <g
           id="g15671"
           style="fill:#aa9500;fill-opacity:1">
          <g
             id="g15860"
             style="fill:#aa9500;fill-opacity:1">
            <g
               id="g15862"
               style="fill:#aa9500;fill-opacity:1">
              <path
                 id="path15864"
                 d="M 363.909,181.955 C 363.909,81.473 282.44,0 181.956,0 l -353.55339,353.55339 c 100.483999,0 181.952999,81.473 181.952999,181.955 z"
                 inkscape:connector-curvature="0"
                 style="fill:#aa9500;fill-opacity:1" />
              <path
                 id="path15866"
                 d="M 181.956,0 C 131.715,0 86.22625,20.36825 53.29775,53.29675 l -353.55339,353.55339 c 32.9285,-32.9285 78.41725,-53.29675 128.65825,-53.29675 z"
                 inkscape:connector-curvature="0"
                 style="fill:#aa9500;fill-opacity:1" />
              <path
                 id="path15868"
                 d="M 53.29775,53.29675 C 20.36925,86.22525 0.001,131.714 0.001,181.955 l -353.55339,353.55339 c 0,-50.241 20.36825,-95.72975 53.29675,-128.65825 z"
                 inkscape:connector-curvature="0"
                 style="fill:#aa9500;fill-opacity:1" />
              <path
                 id="path15870"
                 d="m 0.001,181.955 c 0,100.482 81.473,181.951 181.955,181.951 l -353.55339,353.55339 c -100.482,0 -181.955,-81.469 -181.955,-181.951 z"
                 inkscape:connector-curvature="0"
                 style="fill:#aa9500;fill-opacity:1" />
              <path
                 id="path15872"
                 d="m 181.956,363.906 c 50.24225,0 95.7307,-20.36745 128.65849,-53.29524 L -42.938899,664.16415 c -32.927789,32.92779 -78.416241,53.29524 -128.658491,53.29524 z"
                 inkscape:connector-curvature="0"
                 style="fill:#aa9500;fill-opacity:1" />
              <path
                 id="path15874"
                 d="M 310.61449,310.61076 C 343.54195,277.6833 363.909,232.19575 363.909,181.955 L 10.355609,535.50839 c 0,50.24075 -20.367047,95.7283 -53.294508,128.65576 z"
                 inkscape:connector-curvature="0"
                 style="fill:#aa9500;fill-opacity:1" />
              <path
                 id="path15876"
                 d="m 181.956,318.416 c -75.252,0 -136.465,-61.208 -136.465,-136.46 l -353.55339,353.55339 c 0,75.252 61.213,136.46 136.465,136.46 z"
                 inkscape:connector-curvature="0"
                 style="fill:#aa9500;fill-opacity:1" />
              <path
                 id="path15878"
                 d="m 45.491,181.956 c 0,-37.626 15.30325,-71.74225 40.013,-96.452 l -353.55339,353.55339 c -24.70975,24.70975 -40.013,58.826 -40.013,96.452 z"
                 inkscape:connector-curvature="0"
                 style="fill:#aa9500;fill-opacity:1" />
              <path
                 id="path15880"
                 d="M 85.504,85.504 C 110.21375,60.79425 144.33,45.491 181.956,45.491 l -353.55339,353.55339 c -37.626,0 -71.74225,15.30325 -96.452,40.013 z"
                 inkscape:connector-curvature="0"
                 style="fill:#aa9500;fill-opacity:1" />
              <path
                 id="path15882"
                 d="m 181.956,45.491 c 75.25,0 136.468,61.213 136.468,136.465 L -35.129391,535.50939 c 0,-75.252 -61.218,-136.465 -136.467999,-136.465 z"
                 inkscape:connector-curvature="0"
                 style="fill:#aa9500;fill-opacity:1" />
              <path
                 id="path15884"
                 d="m 318.424,181.956 c 0,37.62375 -15.30267,71.73692 -40.01082,96.44507 L -75.140208,631.95446 c 24.708148,-24.70815 40.010817,-58.82132 40.010817,-96.44507 z"
                 inkscape:connector-curvature="0"
                 style="fill:#aa9500;fill-opacity:1" />
              <path
                 id="path15886"
                 d="M 278.41318,278.40107 C 253.70208,303.11217 219.58325,318.416 181.956,318.416 l -353.55339,353.55339 c 37.62725,0 71.74608,-15.30383 96.457182,-40.01493 z"
                 inkscape:connector-curvature="0"
                 style="fill:#aa9500;fill-opacity:1" />
            </g>
            <path
               id="path15673"
               d="M 363.909,181.955 C 363.909,81.473 282.44,0 181.956,0 81.474,0 0.001,81.473 0.001,181.955 c 0,100.482 81.473,181.951 181.955,181.951 100.484,0 181.953,-81.469 181.953,-181.951 z M 181.956,318.416 c -75.252,0 -136.465,-61.208 -136.465,-136.46 0,-75.252 61.213,-136.465 136.465,-136.465 75.25,0 136.468,61.213 136.468,136.465 0,75.252 -61.218,136.46 -136.468,136.46 z"
               inkscape:connector-curvature="0"
               style="fill:#aa9500;fill-opacity:1" />
          </g>
          <g
             id="g15889"
             style="fill:#aa9500;fill-opacity:1">
            <g
               id="g15891"
               style="fill:#aa9500;fill-opacity:1">
              <path
                 id="path15893"
                 d="M 471.882,407.567 360.567,296.243 7.0136094,649.79639 118.32861,761.12039 Z"
                 inkscape:connector-curvature="0"
                 style="fill:#aa9500;fill-opacity:1" />
              <path
                 id="path15895"
                 d="m 360.567,296.243 c -8.28827,12.89015 -17.91602,24.81739 -28.69368,35.59506 L -21.68007,685.39145 c 10.777664,-10.77767 20.4054075,-22.70491 28.6936794,-35.59506 z"
                 inkscape:connector-curvature="0"
                 style="fill:#aa9500;fill-opacity:1" />
              <path
                 id="path15897"
                 d="M 331.87332,331.83806 C 321.08336,342.62802 309.14085,352.26577 296.236,360.564 L -57.317391,714.11739 c 12.904854,-8.29823 24.84736,-17.93598 35.637321,-28.72594 z"
                 inkscape:connector-curvature="0"
                 style="fill:#aa9500;fill-opacity:1" />
              <path
                 id="path15899"
                 d="M 296.236,360.564 407.56,471.888 54.006609,825.44139 l -111.324,-111.324 z"
                 inkscape:connector-curvature="0"
                 style="fill:#aa9500;fill-opacity:1" />
              <path
                 id="path15901"
                 d="m 407.56,471.888 c 17.76153,17.75753 46.55304,17.76799 64.28963,0.0314 L 118.29624,825.47279 c -17.73659,17.73659 -46.528106,17.72613 -64.289631,-0.0314 z"
                 inkscape:connector-curvature="0"
                 style="fill:#aa9500;fill-opacity:1" />
              <path
                 id="path15903"
                 d="m 471.84963,471.9194 c 0.0105,-0.0105 0.0209,-0.0209 0.0314,-0.0314 L 118.32761,825.44139 c -0.0105,0.0105 -0.0209,0.0209 -0.0314,0.0314 z"
                 inkscape:connector-curvature="0"
                 style="fill:#aa9500;fill-opacity:1" />
              <path
                 id="path15905"
                 d="m 471.881,471.888 c 0.0105,-0.0105 0.0209,-0.0209 0.0314,-0.0314 L 118.35902,825.41001 c -0.0105,0.0105 -0.0209,0.0209 -0.0314,0.0314 z"
                 inkscape:connector-curvature="0"
                 style="fill:#aa9500;fill-opacity:1" />
              <path
                 id="path15907"
                 d="M 471.91241,471.85662 C 489.65399,454.11504 489.64353,425.32353 471.882,407.567 L 118.32861,761.12039 c 17.76152,17.75653 17.77199,46.54804 0.0304,64.28962 z"
                 inkscape:connector-curvature="0"
                 style="fill:#aa9500;fill-opacity:1" />
            </g>
            <path
               id="path15675"
               d="M 471.882,407.567 360.567,296.243 c -16.586,25.795 -38.536,47.734 -64.331,64.321 L 407.56,471.888 c 17.772,17.768 46.587,17.768 64.321,0 17.773,-17.739 17.773,-46.554 0.001,-64.321 z"
               inkscape:connector-curvature="0"
               style="fill:#aa9500;fill-opacity:1" />
          </g>
        </g>
      </g>
      <g
         id="g15677"
         style="fill:#aa9500;fill-opacity:1" />
      <g
         id="g15679"
         style="fill:#aa9500;fill-opacity:1" />
      <g
         id="g15681"
         style="fill:#aa9500;fill-opacity:1" />
      <g
         id="g15683"
         style="fill:#aa9500;fill-opacity:1" />
      <g
         id="g15685"
         style="fill:#aa9500;fill-opacity:1" />
      <g
         id="g15687"
         style="fill:#aa9500;fill-opacity:1" />
      <g
         id="g15689"
         style="fill:#aa9500;fill-opacity:1" />
      <g
         id="g15691"
         style="fill:#aa9500;fill-opacity:1" />
      <g
         id="g15693"
         style="fill:#aa9500;fill-opacity:1" />
      <g
         id="g15695"
         style="fill:#aa9500;fill-opacity:1" />
      <g
         id="g15697"
         style="fill:#aa9500;fill-opacity:1" />
      <g
         id="g15699"
         style="fill:#aa9500;fill-opacity:1" />
      <g
         id="g15701"
         style="fill:#aa9500;fill-opacity:1" />
      <g
         id="g15703"
         style="fill:#aa9500;fill-opacity:1" />
      <g
         id="g15705"
         style="fill:#aa9500;fill-opacity:1" />
    </g>
  </g>
  <g
     inkscape:groupmode="layer"
     id="layer2"
     inkscape:label="Layer 3"
     style="display:inline"
     transform="translate(0,-652.36216)">
    <g
       style="display:inline;fill:#ffffff"
       transform="matrix(-0.55646023,0,0,0.5564555,335.00056,712.36216)"
       id="g14241">
      <g
         style="fill:#ffffff"
         id="g14197">
        <g
           style="fill:#ffffff"
           id="g14199">
          <path
             style="fill:#ffffff"
             inkscape:connector-curvature="0"
             d="M 363.909,181.955 C 363.909,81.473 282.44,0 181.956,0 81.474,0 0.001,81.473 0.001,181.955 c 0,100.482 81.473,181.951 181.955,181.951 100.484,0 181.953,-81.469 181.953,-181.951 z M 181.956,318.416 c -75.252,0 -136.465,-61.208 -136.465,-136.46 0,-75.252 61.213,-136.465 136.465,-136.465 75.25,0 136.468,61.213 136.468,136.465 0,75.252 -61.218,136.46 -136.468,136.46 z"
             id="path14201" />
          <path
             style="fill:#ffffff"
             inkscape:connector-curvature="0"
             d="M 471.882,407.567 360.567,296.243 c -16.586,25.795 -38.536,47.734 -64.331,64.321 L 407.56,471.888 c 17.772,17.768 46.587,17.768 64.321,0 17.773,-17.739 17.773,-46.554 0.001,-64.321 z"
             id="path14203" />
        </g>
      </g>
      <g
         style="fill:#ffffff"
         id="g14205" />
      <g
         style="fill:#ffffff"
         id="g14207" />
      <g
         style="fill:#ffffff"
         id="g14209" />
      <g
         style="fill:#ffffff"
         id="g14211" />
      <g
         style="fill:#ffffff"
         id="g14213" />
      <g
         style="fill:#ffffff"
         id="g14215" />
      <g
         style="fill:#ffffff"
         id="g14217" />
      <g
         style="fill:#ffffff"
         id="g14219" />
      <g
         style="fill:#ffffff"
         id="g14221" />
      <g
         style="fill:#ffffff"
         id="g14223" />
      <g
         style="fill:#ffffff"
         id="g14225" />
      <g
         style="fill:#ffffff"
         id="g14227" />
      <g
         style="fill:#ffffff"
         id="g14229" />
      <g
         style="fill:#ffffff"
         id="g14231" />
      <g
         style="fill:#ffffff"
         id="g14233" />
    </g>
    <g
       style="display:inline;fill:#ffffff"
       transform="matrix(-0.55646023,0,0,0.5564555,335.00056,712.36216)"
       id="g15233">
      <g
         style="fill:#ffffff"
         id="g15235">
        <g
           style="fill:#ffffff"
           id="g15237">
          <path
             style="fill:#ffffff"
             inkscape:connector-curvature="0"
             d="M 363.909,181.955 C 363.909,81.473 282.44,0 181.956,0 81.474,0 0.001,81.473 0.001,181.955 c 0,100.482 81.473,181.951 181.955,181.951 100.484,0 181.953,-81.469 181.953,-181.951 z M 181.956,318.416 c -75.252,0 -136.465,-61.208 -136.465,-136.46 0,-75.252 61.213,-136.465 136.465,-136.465 75.25,0 136.468,61.213 136.468,136.465 0,75.252 -61.218,136.46 -136.468,136.46 z"
             id="path15239" />
          <path
             style="fill:#ffffff"
             inkscape:connector-curvature="0"
             d="M 471.882,407.567 360.567,296.243 c -16.586,25.795 -38.536,47.734 -64.331,64.321 L 407.56,471.888 c 17.772,17.768 46.587,17.768 64.321,0 17.773,-17.739 17.773,-46.554 0.001,-64.321 z"
             id="path15241" />
        </g>
      </g>
      <g
         style="fill:#ffffff"
         id="g15243" />
      <g
         style="fill:#ffffff"
         id="g15245" />
      <g
         style="fill:#ffffff"
         id="g15247" />
      <g
         style="fill:#ffffff"
         id="g15249" />
      <g
         style="fill:#ffffff"
         id="g15251" />
      <g
         style="fill:#ffffff"
         id="g15253" />
      <g
         style="fill:#ffffff"
         id="g15255" />
      <g
         style="fill:#ffffff"
         id="g15257" />
      <g
         style="fill:#ffffff"
         id="g15259" />
      <g
         style="fill:#ffffff"
         id="g15261" />
      <g
         style="fill:#ffffff"
         id="g15263" />
      <g
         style="fill:#ffffff"
         id="g15265" />
      <g
         style="fill:#ffffff"
         id="g15267" />
      <g
         style="fill:#ffffff"
         id="g15269" />
      <g
         style="fill:#ffffff"
         id="g15271" />
    </g>
  </g>
</svg>
