<?xml version="1.0" encoding="UTF-8" standalone="no"?>
<!-- Created with Inkscape (http://www.inkscape.org/) -->

<svg
   xmlns:dc="http://purl.org/dc/elements/1.1/"
   xmlns:cc="http://creativecommons.org/ns#"
   xmlns:rdf="http://www.w3.org/1999/02/22-rdf-syntax-ns#"
   xmlns:svg="http://www.w3.org/2000/svg"
   xmlns="http://www.w3.org/2000/svg"
   xmlns:sodipodi="http://sodipodi.sourceforge.net/DTD/sodipodi-0.dtd"
   xmlns:inkscape="http://www.inkscape.org/namespaces/inkscape"
   width="400"
   height="400"
   viewBox="0 0 399.99999 400.00001"
   id="svg3566"
   version="1.1"
   inkscape:version="0.91 r13725"
   sodipodi:docname="casecategory_mac_os_x.svg">
  <sodipodi:namedview
     id="base"
     pagecolor="#ffffff"
     bordercolor="#666666"
     borderopacity="1.0"
     inkscape:pageopacity="0.0"
     inkscape:pageshadow="2"
     inkscape:zoom="1.4142136"
     inkscape:cx="43.42131"
     inkscape:cy="245.73298"
     inkscape:document-units="px"
     inkscape:current-layer="layer1"
     showgrid="false"
     units="px"
     inkscape:window-width="1920"
     inkscape:window-height="1137"
     inkscape:window-x="1912"
     inkscape:window-y="-8"
     inkscape:window-maximized="1" />
  <defs
     id="defs3568">
    <clipPath
       id="clipPath5130"
       clipPathUnits="userSpaceOnUse">
      <ellipse
         ry="212.5"
         rx="213.23529"
         style="display:inline;fill:#a4c639;fill-opacity:1"
         cx="494.71536"
         cy="580.85931"
         id="circle5132" />
    </clipPath>
    <clipPath
       clipPathUnits="userSpaceOnUse"
       id="clipPath4510">
      <circle
         style="display:inline;fill:#5b5b5b;fill-opacity:1"
         r="200"
         cx="200"
         cy="852.36218"
         id="circle4512" />
    </clipPath>
  </defs>
  <metadata
     id="metadata3571">
    <rdf:RDF>
      <cc:Work
         rdf:about="">
        <dc:format>image/svg+xml</dc:format>
        <dc:type
           rdf:resource="http://purl.org/dc/dcmitype/StillImage" />
        <dc:title />
      </cc:Work>
    </rdf:RDF>
  </metadata>
  <g
     inkscape:label="Layer 1"
     inkscape:groupmode="layer"
     id="layer1"
     transform="translate(0,-652.36216)"
     style="display:inline">
    <circle
       id="circle3938"
       cy="852.36218"
       cx="200"
       r="200"
       style="fill:#5b5b5b;fill-opacity:1" />
  </g>
  <g
     inkscape:groupmode="layer"
     id="layer2"
     inkscape:label="Layer 2"
     style="display:inline"
     transform="translate(0,-652.36216)">
    <g
       id="g4452"
       style="fill:#3c3c3c;fill-opacity:1"
       clip-path="url(#clipPath4510)">
      <g
         id="g4454"
         style="fill:#3c3c3c;fill-opacity:1">
        <path
           id="path4456"
           d="m 191.86992,852.36216 c -30.6233,43.33333 -61.24661,86.66667 -91.86992,130 l 424.26407,424.26404 c 30.62331,-43.3333 61.24662,-86.6666 91.86992,-130 z"
           style="fill:#3c3c3c;fill-opacity:1"
           inkscape:connector-curvature="0" />
        <path
           id="path4458"
           d="m 100,982.36216 c 5.42005,0 10.84011,0 16.26016,0 l 424.26407,424.26404 c -5.42005,0 -10.84011,0 -16.26016,0 z"
           style="fill:#3c3c3c;fill-opacity:1"
           inkscape:connector-curvature="0" />
        <path
           id="path4460"
           d="M 116.26016,982.36216 C 144.17344,942.86382 172.08672,903.36546 200,863.86711 l 424.26407,424.26409 c -27.91328,39.4983 -55.82656,78.9967 -83.73984,118.495 z"
           style="fill:#3c3c3c;fill-opacity:1"
           inkscape:connector-curvature="0" />
        <path
           id="path4462"
           d="m 200,863.86711 c 27.91329,39.49835 55.82656,78.99671 83.73984,118.49505 l 424.26407,424.26404 c -27.91328,-39.4983 -55.82655,-78.9967 -83.73984,-118.495 z"
           style="fill:#3c3c3c;fill-opacity:1"
           inkscape:connector-curvature="0" />
        <path
           id="path4464"
           d="m 283.73984,982.36216 c 5.42005,0 10.84012,0 16.26017,0 l 424.26407,424.26404 c -5.42005,0 -10.84012,0 -16.26017,0 z"
           style="fill:#3c3c3c;fill-opacity:1"
           inkscape:connector-curvature="0" />
        <path
           id="path4466"
           d="m 300.00001,982.36216 c -30.62331,-43.33333 -61.24662,-86.66667 -91.86993,-130 l 424.26407,424.26404 c 30.62331,43.3334 61.24662,86.6667 91.86993,130 z"
           style="fill:#3c3c3c;fill-opacity:1"
           inkscape:connector-curvature="0" />
        <path
           id="path4468"
           d="m 208.13008,852.36216 c 30.62331,-43.33333 61.24662,-86.66667 91.86993,-130 l 424.26407,424.26404 c -30.62331,43.3334 -61.24662,86.6667 -91.86993,130 z"
           style="fill:#3c3c3c;fill-opacity:1"
           inkscape:connector-curvature="0" />
        <path
           id="path4470"
           d="m 300.00001,722.36216 c -5.42005,0 -10.84012,0 -16.26017,0 l 424.26407,424.26404 c 5.42005,0 10.84012,0 16.26017,0 z"
           style="fill:#3c3c3c;fill-opacity:1"
           inkscape:connector-curvature="0" />
        <path
           id="path4472"
           d="M 283.73984,722.36216 C 255.82656,761.86051 227.91329,801.35886 200,840.85721 l 424.26407,424.26409 c 27.91329,-39.4984 55.82656,-78.9967 83.73984,-118.4951 z"
           style="fill:#3c3c3c;fill-opacity:1"
           inkscape:connector-curvature="0" />
        <path
           id="path4474"
           d="m 200,840.85721 c -27.91328,-39.49835 -55.82656,-78.9967 -83.73984,-118.49505 l 424.26407,424.26404 c 27.91328,39.4984 55.82656,78.9967 83.73984,118.4951 z"
           style="fill:#3c3c3c;fill-opacity:1"
           inkscape:connector-curvature="0" />
        <path
           id="path4476"
           d="m 116.26016,722.36216 c -5.42005,0 -10.84011,0 -16.26016,0 l 424.26407,424.26404 c 5.42005,0 10.84011,0 16.26016,0 z"
           style="fill:#3c3c3c;fill-opacity:1"
           inkscape:connector-curvature="0" />
        <path
           id="path4478"
           d="m 100,722.36216 c 30.62331,43.33333 61.24662,86.66667 91.86992,130 l 424.26407,424.26404 c -30.6233,-43.3333 -61.24661,-86.6666 -91.86992,-130 z"
           style="fill:#3c3c3c;fill-opacity:1"
           inkscape:connector-curvature="0" />
      </g>
      <path
         inkscape:connector-curvature="0"
         id="polygon3559"
         d="m 191.86992,852.36216 c -30.6233,43.33333 -61.24661,86.66667 -91.86992,130 5.42005,0 10.84011,0 16.26016,0 27.91328,-39.49834 55.82656,-78.9967 83.73984,-118.49505 27.91329,39.49835 55.82656,78.99671 83.73984,118.49505 5.42005,0 10.84012,0 16.26017,0 -30.62331,-43.33333 -61.24662,-86.66667 -91.86993,-130 30.62331,-43.33333 61.24662,-86.66667 91.86993,-130 -5.42005,0 -10.84012,0 -16.26017,0 -27.91328,39.49835 -55.82655,78.9967 -83.73984,118.49505 -27.91328,-39.49835 -55.82656,-78.9967 -83.73984,-118.49505 -5.42005,0 -10.84011,0 -16.26016,0 30.62331,43.33333 61.24662,86.66667 91.86992,130 z"
         style="fill:#3c3c3c;fill-opacity:1" />
    </g>
  </g>
  <g
     inkscape:groupmode="layer"
     id="layer4"
     inkscape:label="Layer 3"
     style="display:inline">
    <path
       style="display:inline;fill:#ffffff;fill-opacity:1"
       d="m 191.86992,852.36216 c -30.6233,43.33333 -61.24661,86.66667 -91.86992,130 5.42005,0 10.84011,0 16.26016,0 27.91328,-39.49834 55.82656,-78.9967 83.73984,-118.49505 27.91329,39.49835 55.82656,78.99671 83.73984,118.49505 5.42005,0 10.84012,0 16.26017,0 -30.62331,-43.33333 -61.24662,-86.66667 -91.86993,-130 30.62331,-43.33333 61.24662,-86.66667 91.86993,-130 -5.42005,0 -10.84012,0 -16.26017,0 -27.91328,39.49835 -55.82655,78.9967 -83.73984,118.49505 -27.91328,-39.49835 -55.82656,-78.9967 -83.73984,-118.49505 -5.42005,0 -10.84011,0 -16.26016,0 30.62331,43.33333 61.24662,86.66667 91.86992,130 z"
       id="path4376"
       inkscape:connector-curvature="0"
       transform="translate(0,-652.36216)" />
  </g>
</svg>
