<?xml version="1.0" encoding="UTF-8" standalone="no"?>
<!-- Created with Inkscape (http://www.inkscape.org/) -->

<svg
   xmlns:dc="http://purl.org/dc/elements/1.1/"
   xmlns:cc="http://creativecommons.org/ns#"
   xmlns:rdf="http://www.w3.org/1999/02/22-rdf-syntax-ns#"
   xmlns:svg="http://www.w3.org/2000/svg"
   xmlns="http://www.w3.org/2000/svg"
   xmlns:sodipodi="http://sodipodi.sourceforge.net/DTD/sodipodi-0.dtd"
   xmlns:inkscape="http://www.inkscape.org/namespaces/inkscape"
   sodipodi:docname="type_phone.svg"
   inkscape:version="0.91 r13725"
   version="1.1"
   id="svg3566"
   viewBox="0 0 399.99999 400.00001"
   height="400"
   width="400">
  <sodipodi:namedview
     inkscape:window-maximized="1"
     inkscape:window-y="0"
     inkscape:window-x="0"
     inkscape:window-height="751"
     inkscape:window-width="1280"
     units="px"
     showgrid="false"
     inkscape:current-layer="layer2"
     inkscape:document-units="px"
     inkscape:cy="220.84354"
     inkscape:cx="278.14767"
     inkscape:zoom="0.70710678"
     inkscape:pageshadow="2"
     inkscape:pageopacity="0.0"
     borderopacity="1.0"
     bordercolor="#666666"
     pagecolor="#ffffff"
     id="base" />
  <defs
     id="defs3568">
    <clipPath
       clipPathUnits="userSpaceOnUse"
       id="clipPath3529">
      <g
         id="g3531"
         transform="matrix(0.54166892,0,0,0.54166669,59.999458,722.36215)"
         style="fill:#ffffff">
        <g
           id="g3533"
           style="fill:#ffffff">
          <g
             id="g3535">
            <g
               id="g3537"
               style="fill:#ffffff">
              <path
                 id="path3539"
                 d="M 0.176,224 0.001,67.963 l 353.55339,353.55339 0.175,156.037 z"
                 inkscape:connector-curvature="0" />
              <path
                 id="path3541"
                 d="m 0.001,67.963 192,-26.072 353.55339,353.55339 -192,26.072 z"
                 inkscape:connector-curvature="0" />
              <path
                 id="path3543"
                 d="m 192.001,41.891 0,182.109 353.55339,353.55339 0,-182.109 z"
                 inkscape:connector-curvature="0" />
              <path
                 id="path3545"
                 d="m 192.001,224 -191.825,0 353.55339,353.55339 191.825,0 z"
                 inkscape:connector-curvature="0" />
              <path
                 id="path3547"
                 d="M 224.001,37.241 479.937,0 l 353.55339,353.55339 -255.936,37.241 z"
                 inkscape:connector-curvature="0" />
              <path
                 id="path3549"
                 d="m 479.937,0 0,224 353.55339,353.55339 0,-224 z"
                 inkscape:connector-curvature="0" />
              <path
                 id="path3551"
                 d="m 479.937,224 -255.936,0 353.55339,353.55339 255.936,0 z"
                 inkscape:connector-curvature="0" />
              <path
                 id="path3553"
                 d="m 224.001,224 0,-186.759 353.55339,353.55339 0,186.759 z"
                 inkscape:connector-curvature="0" />
              <path
                 id="path3555"
                 d="m 479.999,256 -0.062,224 353.55339,353.55339 0.062,-224 z"
                 inkscape:connector-curvature="0" />
              <path
                 id="path3557"
                 d="m 479.937,480 -255.936,-36.008 353.55339,353.55339 255.936,36.008 z"
                 inkscape:connector-curvature="0" />
              <path
                 id="path3559"
                 d="m 224.001,443.992 0,-187.992 353.55339,353.55339 0,187.992 z"
                 inkscape:connector-curvature="0" />
              <path
                 id="path3561"
                 d="m 224.001,256 255.998,0 353.55339,353.55339 -255.998,0 z"
                 inkscape:connector-curvature="0" />
              <path
                 id="path3563"
                 d="M 192.001,439.918 0.157,413.621 l 353.55339,353.55339 191.844,26.297 z"
                 inkscape:connector-curvature="0" />
              <path
                 id="path3565"
                 d="M 0.157,413.621 0.147,256 l 353.55339,353.55339 0.01,157.621 z"
                 inkscape:connector-curvature="0" />
              <path
                 id="path3567"
                 d="m 0.147,256 191.854,0 353.55339,353.55339 -191.854,0 z"
                 inkscape:connector-curvature="0" />
              <path
                 id="path3569"
                 d="m 192.001,256 0,183.918 353.55339,353.55339 0,-183.918 z"
                 inkscape:connector-curvature="0" />
            </g>
            <path
               id="path3571"
               d="M 0.176,224 0.001,67.963 l 192,-26.072 0,182.109 -191.825,0 z M 224.001,37.241 479.937,0 l 0,224 -255.936,0 0,-186.759 z M 479.999,256 l -0.062,224 -255.936,-36.008 0,-187.992 255.998,0 z M 192.001,439.918 0.157,413.621 0.147,256 l 191.854,0 0,183.918 z"
               inkscape:connector-curvature="0"
               style="fill:#ffffff" />
          </g>
        </g>
        <g
           id="g3573"
           style="fill:#ffffff" />
        <g
           id="g3575"
           style="fill:#ffffff" />
        <g
           id="g3577"
           style="fill:#ffffff" />
        <g
           id="g3579"
           style="fill:#ffffff" />
        <g
           id="g3581"
           style="fill:#ffffff" />
        <g
           id="g3583"
           style="fill:#ffffff" />
        <g
           id="g3585"
           style="fill:#ffffff" />
        <g
           id="g3587"
           style="fill:#ffffff" />
        <g
           id="g3589"
           style="fill:#ffffff" />
        <g
           id="g3591"
           style="fill:#ffffff" />
        <g
           id="g3593"
           style="fill:#ffffff" />
        <g
           id="g3595"
           style="fill:#ffffff" />
        <g
           id="g3597"
           style="fill:#ffffff" />
        <g
           id="g3599"
           style="fill:#ffffff" />
        <g
           id="g3601"
           style="fill:#ffffff" />
      </g>
    </clipPath>
    <clipPath
       id="clipPath4174"
       clipPathUnits="userSpaceOnUse">
      <ellipse
         ry="369.23074"
         rx="369.22925"
         style="fill:#1ba1e2;fill-opacity:1"
         cx="258.46146"
         cy="240.00005"
         id="circle4176" />
    </clipPath>
    <clipPath
       clipPathUnits="userSpaceOnUse"
       id="clipPath13707">
      <ellipse
         style="display:inline;fill:#825a2c;fill-opacity:1"
         cx="23.586819"
         cy="22.998592"
         id="circle13709"
         rx="29.483862"
         ry="29.478844" />
    </clipPath>
  </defs>
  <metadata
     id="metadata3571">
    <rdf:RDF>
      <cc:Work
         rdf:about="">
        <dc:format>image/svg+xml</dc:format>
        <dc:type
           rdf:resource="http://purl.org/dc/dcmitype/StillImage" />
        <dc:title />
      </cc:Work>
    </rdf:RDF>
  </metadata>
  <g
     style="display:inline"
     transform="translate(0,-652.36216)"
     id="layer1"
     inkscape:groupmode="layer"
     inkscape:label="Layer 1">
    <circle
       id="circle3527"
       cy="852.36218"
       cx="200"
       r="200"
       style="fill:#1ba1e2;fill-opacity:1"
       clip-path="url(#clipPath3529)" />
    <circle
       style="fill:#1ba1e2;fill-opacity:1"
       r="200"
       cx="200"
       cy="852.36218"
       id="circle3938" />
    <circle
       id="circle3640"
       cy="852.36218"
       cx="200"
       r="200"
       style="fill:#825a2c;fill-opacity:1" />
    <g
       style="fill:#ffffff"
       transform="matrix(0.65450002,0.35997501,-0.36079066,0.65598301,143.8836,680.54659)"
       id="g4400">
      <g
         style="fill:#ffffff"
         id="g4356">
        <g
           style="fill:#ffffff"
           id="g4358">
          <g
             style="fill:#ffffff"
             id="g4360" />
        </g>
      </g>
      <g
         style="fill:#ffffff"
         id="g4364" />
      <g
         style="fill:#ffffff"
         id="g4366" />
      <g
         style="fill:#ffffff"
         id="g4368" />
      <g
         style="fill:#ffffff"
         id="g4370" />
      <g
         style="fill:#ffffff"
         id="g4372" />
      <g
         style="fill:#ffffff"
         id="g4374" />
      <g
         style="fill:#ffffff"
         id="g4376" />
      <g
         style="fill:#ffffff"
         id="g4378" />
      <g
         style="fill:#ffffff"
         id="g4380" />
      <g
         style="fill:#ffffff"
         id="g4382" />
      <g
         style="fill:#ffffff"
         id="g4384" />
      <g
         style="fill:#ffffff"
         id="g4386" />
      <g
         style="fill:#ffffff"
         id="g4388" />
      <g
         style="fill:#ffffff"
         id="g4390" />
      <g
         style="fill:#ffffff"
         id="g4392" />
    </g>
  </g>
  <g
     transform="translate(0,-652.36216)"
     style="display:inline"
     inkscape:label="Layer 2"
     id="layer2"
     inkscape:groupmode="layer">
    <g
       id="g11793"
       transform="matrix(6.7833719,0,0,6.7845266,40.001832,696.32762)"
       style="display:inline;fill:#ffffff">
      <g
         id="g11795"
         style="fill:#ffffff">
        <path
           id="path11797"
           d="M 15.825,40.675 C 11.894,40.676 8.748,38.911 7.907,35.112 6.943,30.759 6.477,26.18 8.638,21.891 c 0.77,-1.529 2.103,-2.543 3.523,-3.391 1.511,-0.903 2.47,-1.979 2.131,-3.891 -0.117,-0.664 0.148,-1.391 0.055,-2.063 -0.046,-0.334 -0.508,-0.611 -0.782,-0.914 -0.222,0.315 -0.665,0.654 -0.633,0.94 0.32,2.874 -1.403,4.319 -3.697,5.303 C 7.942,18.43 6.584,18.881 5.213,19.195 3.914,19.493 2.631,19.17 1.568,18.337 -0.644,16.604 -0.525,13.304 1.982,11.701 3.683,10.613 5.608,9.83 7.51,9.113 12.41,7.264 17.565,6.609 22.746,6.497 c 3.143,-0.068 6.305,0.407 9.448,0.748 4.142,0.45 8.044,1.789 11.747,3.641 1.011,0.505 2.04,1.345 2.605,2.301 1.754,2.965 -0.361,6.261 -3.936,6.052 -2.667,-0.156 -5.136,-1.144 -7.145,-3.02 -0.919,-0.858 -1.383,-1.911 -1.222,-3.199 0.032,-0.257 0.078,-0.586 -0.046,-0.773 -0.174,-0.263 -0.482,-0.531 -0.772,-0.585 -0.147,-0.027 -0.471,0.38 -0.553,0.641 -0.094,0.297 -0.018,0.652 0.003,0.98 0.033,0.526 0.218,1.085 0.101,1.572 -0.438,1.797 0.549,2.706 1.913,3.535 1.948,1.183 3.575,2.687 4.411,4.909 0.696,1.847 0.775,10.117 0.058,11.927 -1.278,3.224 -3.895,5.582 -7.994,5.455 -1.319,-0.042 -12.999,-0.007 -15.539,-0.006 z m 7.723,-8.896 c 3.002,-0.142 5.661,-0.972 7.733,-3.155 2.082,-2.195 2.246,-4.697 0.59,-7.208 -0.97,-1.469 -2.366,-2.338 -3.952,-2.993 -4.039,-1.67 -8.918,-0.841 -11.784,2.03 -2.522,2.527 -2.581,5.808 -0.058,8.338 2.063,2.068 4.688,2.839 7.471,2.988 z m 0.1,-20.985 c 0,0.002 0,0.004 0,0.006 -1.349,0 -2.698,0.025 -4.046,-0.009 -0.848,-0.021 -1.215,0.355 -1.195,1.176 0.006,0.23 -0.046,0.466 -0.009,0.689 0.054,0.334 0.163,0.659 0.249,0.988 0.321,-0.121 0.679,-0.184 0.956,-0.371 2.05,-1.382 5.967,-1.365 8,0.034 0.273,0.189 0.633,0.255 0.952,0.378 0.086,-0.36 0.195,-0.717 0.247,-1.082 0.032,-0.223 -0.032,-0.458 -0.04,-0.688 -0.026,-0.823 -0.443,-1.155 -1.266,-1.131 -1.281,0.037 -2.563,0.01 -3.848,0.01 z"
           inkscape:connector-curvature="0"
           style="fill:#ffffff" />
        <path
           id="path11799"
           d="m 24.112,27.844 c -1.897,-0.097 -3.226,-0.41 -4.329,-1.356 -1.805,-1.55 -1.791,-3.724 0.022,-5.274 1.961,-1.678 5.471,-1.732 7.438,-0.115 2.166,1.781 1.969,4.526 -0.507,5.856 -0.932,0.5 -2.028,0.694 -2.624,0.889 z"
           inkscape:connector-curvature="0"
           style="fill:#ffffff" />
      </g>
      <g
         id="g11801"
         style="fill:#ffffff" />
      <g
         id="g11803"
         style="fill:#ffffff" />
      <g
         id="g11805"
         style="fill:#ffffff" />
      <g
         id="g11807"
         style="fill:#ffffff" />
      <g
         id="g11809"
         style="fill:#ffffff" />
      <g
         id="g11811"
         style="fill:#ffffff" />
      <g
         id="g11813"
         style="fill:#ffffff" />
      <g
         id="g11815"
         style="fill:#ffffff" />
      <g
         id="g11817"
         style="fill:#ffffff" />
      <g
         id="g11819"
         style="fill:#ffffff" />
      <g
         id="g11821"
         style="fill:#ffffff" />
      <g
         id="g11823"
         style="fill:#ffffff" />
      <g
         id="g11825"
         style="fill:#ffffff" />
      <g
         id="g11827"
         style="fill:#ffffff" />
      <g
         id="g11829"
         style="fill:#ffffff" />
    </g>
    <g
       style="display:inline;fill:#4b3419;fill-opacity:1"
       transform="matrix(6.7833719,0,0,6.7845266,40.001833,696.32762)"
       id="g11773"
       clip-path="url(#clipPath13707)">
      <g
         style="fill:#4b3419;fill-opacity:1"
         id="g11731">
        <path
           style="fill:#4b3419;fill-opacity:1"
           inkscape:connector-curvature="0"
           d="m 24.112,27.844 c -1.897,-0.097 -3.226,-0.41 -4.329,-1.356 -1.805,-1.55 -1.791,-3.724 0.022,-5.274 1.961,-1.678 5.471,-1.732 7.438,-0.115 2.166,1.781 1.969,4.526 -0.507,5.856 -0.932,0.5 -2.028,0.694 -2.624,0.889 z"
           id="path11735" />
        <g
           id="g13302"
           style="fill:#4b3419;fill-opacity:1">
          <g
             id="g13304"
             style="fill:#4b3419;fill-opacity:1">
            <path
               id="path13306"
               d="m 15.825,40.675 c -2.480849,6.31e-4 -4.649044,-0.70211 -6.1225209,-2.175587 L 363.25587,392.0528 c 1.47348,1.47348 3.64167,2.17622 6.12252,2.17559 z"
               style="fill:#4b3419;fill-opacity:1"
               inkscape:connector-curvature="0" />
            <path
               id="path13308"
               d="M 9.7024791,38.499413 C 8.8411753,37.638109 8.217246,36.513456 7.907,35.112 l 353.55339,353.55339 c 0.31025,1.40146 0.93418,2.52611 1.79548,3.38741 z"
               style="fill:#4b3419;fill-opacity:1"
               inkscape:connector-curvature="0" />
            <path
               id="path13310"
               d="M 7.907,35.112 C 6.943,30.759 6.477,26.18 8.638,21.891 l 353.55339,353.55339 c -2.161,4.289 -1.695,8.868 -0.731,13.221 z"
               style="fill:#4b3419;fill-opacity:1"
               inkscape:connector-curvature="0" />
            <path
               id="path13312"
               d="m 8.638,21.891 c 0.77,-1.529 2.103,-2.543 3.523,-3.391 l 353.55339,353.55339 c -1.42,0.848 -2.753,1.862 -3.523,3.391 z"
               style="fill:#4b3419;fill-opacity:1"
               inkscape:connector-curvature="0" />
            <path
               id="path13314"
               d="m 12.161,18.5 c 1.511,-0.903 2.47,-1.979 2.131,-3.891 l 353.55339,353.55339 c 0.339,1.912 -0.62,2.988 -2.131,3.891 z"
               style="fill:#4b3419;fill-opacity:1"
               inkscape:connector-curvature="0" />
            <path
               id="path13316"
               d="m 14.292,14.609 c -0.117,-0.664 0.148,-1.391 0.055,-2.063 l 353.55339,353.55339 c 0.093,0.672 -0.172,1.399 -0.055,2.063 z"
               style="fill:#4b3419;fill-opacity:1"
               inkscape:connector-curvature="0" />
            <path
               id="path13318"
               d="M 14.347,12.546 C 14.3261,12.394242 14.219316,12.254251 14.083307,12.118243 L 367.6367,365.67163 c 0.13601,0.13601 0.24279,0.276 0.26369,0.42776 z"
               style="fill:#4b3419;fill-opacity:1"
               inkscape:connector-curvature="0" />
            <path
               id="path13320"
               d="M 14.083307,12.118243 C 13.932614,11.96755 13.746044,11.821745 13.600658,11.670238 L 367.15405,365.22363 c 0.14538,0.15151 0.33195,0.29731 0.48265,0.448 z"
               style="fill:#4b3419;fill-opacity:1"
               inkscape:connector-curvature="0" />
            <path
               id="path13322"
               d="m 13.600658,11.670238 c -0.01219,-0.0127 -0.02409,-0.02545 -0.03566,-0.03824 L 367.11839,365.18539 c 0.0116,0.0128 0.0235,0.0255 0.0357,0.0382 z"
               style="fill:#4b3419;fill-opacity:1"
               inkscape:connector-curvature="0" />
            <path
               id="path13324"
               d="m 13.565,11.632 c -0.222,0.315 -0.665,0.654 -0.633,0.94 l 353.55339,353.55339 c -0.032,-0.286 0.411,-0.625 0.633,-0.94 z"
               style="fill:#4b3419;fill-opacity:1"
               inkscape:connector-curvature="0" />
            <path
               id="path13326"
               d="m 12.932,12.572 c 0.32,2.874 -1.403,4.319 -3.697,5.303 l 353.55339,353.55339 c 2.294,-0.984 4.017,-2.429 3.697,-5.303 z"
               style="fill:#4b3419;fill-opacity:1"
               inkscape:connector-curvature="0" />
            <path
               id="path13328"
               d="m 9.235,17.875 c -1.293,0.555 -2.651,1.006 -4.022,1.32 l 353.55339,353.55339 c 1.371,-0.314 2.729,-0.765 4.022,-1.32 z"
               style="fill:#4b3419;fill-opacity:1"
               inkscape:connector-curvature="0" />
            <path
               id="path13330"
               d="M 5.213,19.195 C 3.914,19.493 2.631,19.17 1.568,18.337 l 353.55339,353.55339 c 1.063,0.833 2.346,1.156 3.645,0.858 z"
               style="fill:#4b3419;fill-opacity:1"
               inkscape:connector-curvature="0" />
            <path
               id="path13332"
               d="M 1.568,18.337 C 1.4284703,18.227685 1.2982153,18.112135 1.1772495,17.991169 L 354.73064,371.54456 c 0.12097,0.12097 0.25122,0.23652 0.39075,0.34583 z"
               style="fill:#4b3419;fill-opacity:1"
               inkscape:connector-curvature="0" />
            <path
               id="path13334"
               d="M 1.1772495,17.991169 C -0.61948569,16.194434 -0.36686209,13.202885 1.982,11.701 l 353.55339,353.55339 c -2.34886,1.50189 -2.60149,4.49343 -0.80475,6.29017 z"
               style="fill:#4b3419;fill-opacity:1"
               inkscape:connector-curvature="0" />
            <path
               id="path13336"
               d="M 1.982,11.701 C 3.683,10.613 5.608,9.83 7.51,9.113 l 353.55339,353.55339 c -1.902,0.717 -3.827,1.5 -5.528,2.588 z"
               style="fill:#4b3419;fill-opacity:1"
               inkscape:connector-curvature="0" />
            <path
               id="path13338"
               d="M 7.51,9.113 C 12.41,7.264 17.565,6.609 22.746,6.497 l 353.55339,353.55339 c -5.181,0.112 -10.336,0.767 -15.236,2.616 z"
               style="fill:#4b3419;fill-opacity:1"
               inkscape:connector-curvature="0" />
            <path
               id="path13340"
               d="m 22.746,6.497 c 3.143,-0.068 6.305,0.407 9.448,0.748 l 353.55339,353.55339 c -3.143,-0.341 -6.305,-0.816 -9.448,-0.748 z"
               style="fill:#4b3419;fill-opacity:1"
               inkscape:connector-curvature="0" />
            <path
               id="path13342"
               d="m 32.194,7.245 c 4.142,0.45 8.044,1.789 11.747,3.641 l 353.55339,353.55339 c -3.703,-1.852 -7.605,-3.191 -11.747,-3.641 z"
               style="fill:#4b3419;fill-opacity:1"
               inkscape:connector-curvature="0" />
            <path
               id="path13344"
               d="m 43.941,10.886 c 0.639228,0.319298 1.285651,0.772518 1.817439,1.304305 L 399.31183,365.7437 c -0.53179,-0.53179 -1.17821,-0.98501 -1.81744,-1.30431 z"
               style="fill:#4b3419;fill-opacity:1"
               inkscape:connector-curvature="0" />
            <path
               id="path13346"
               d="m 45.758439,12.190305 c 0.309285,0.309286 0.579795,0.645148 0.787561,0.996695 l 353.55339,353.55339 c -0.20777,-0.35155 -0.47828,-0.68741 -0.78756,-0.99669 z"
               style="fill:#4b3419;fill-opacity:1"
               inkscape:connector-curvature="0" />
            <path
               id="path13348"
               d="m 46.546,13.187 c 1.754,2.965 -0.361,6.261 -3.936,6.052 l 353.55339,353.55339 c 3.575,0.209 5.69,-3.087 3.936,-6.052 z"
               style="fill:#4b3419;fill-opacity:1"
               inkscape:connector-curvature="0" />
            <path
               id="path13350"
               d="m 42.61,19.239 c -2.667,-0.156 -5.136,-1.144 -7.145,-3.02 l 353.55339,353.55339 c 2.009,1.876 4.478,2.864 7.145,3.02 z"
               style="fill:#4b3419;fill-opacity:1"
               inkscape:connector-curvature="0" />
            <path
               id="path13352"
               d="M 35.465,16.219 C 35.4222,16.17904 35.38039,16.13866 35.339577,16.097849 L 388.89297,369.65124 c 0.0408,0.0408 0.0826,0.0812 0.12542,0.12115 z"
               style="fill:#4b3419;fill-opacity:1"
               inkscape:connector-curvature="0" />
            <path
               id="path13354"
               d="M 35.339577,16.097849 C 34.504136,15.262408 34.089498,14.248014 34.243,13.02 l 353.55339,353.55339 c -0.1535,1.22801 0.26114,2.24241 1.09658,3.07785 z"
               style="fill:#4b3419;fill-opacity:1"
               inkscape:connector-curvature="0" />
            <path
               id="path13356"
               d="m 34.243,13.02 c 0.032,-0.257 0.078,-0.586 -0.046,-0.773 l 353.55339,353.55339 c 0.124,0.187 0.078,0.516 0.046,0.773 z"
               style="fill:#4b3419;fill-opacity:1"
               inkscape:connector-curvature="0" />
            <path
               id="path13358"
               d="M 34.197,12.247 C 34.14156,12.16321 34.072525,12.078908 33.9948,12.001184 L 387.54819,365.55457 c 0.0777,0.0777 0.14676,0.16203 0.2022,0.24582 z"
               style="fill:#4b3419;fill-opacity:1"
               inkscape:connector-curvature="0" />
            <path
               id="path13360"
               d="M 33.9948,12.001184 C 33.828569,11.834952 33.622606,11.698796 33.425,11.662 l 353.55339,353.55339 c 0.19761,0.0368 0.40357,0.17295 0.5698,0.33918 z"
               style="fill:#4b3419;fill-opacity:1"
               inkscape:connector-curvature="0" />
            <path
               id="path13362"
               d="m 33.425,11.662 c -0.147,-0.027 -0.471,0.38 -0.553,0.641 l 353.55339,353.55339 c 0.082,-0.261 0.406,-0.668 0.553,-0.641 z"
               style="fill:#4b3419;fill-opacity:1"
               inkscape:connector-curvature="0" />
            <path
               id="path13364"
               d="m 32.872,12.303 c -0.094,0.297 -0.018,0.652 0.003,0.98 l 353.55339,353.55339 c -0.021,-0.328 -0.097,-0.683 -0.003,-0.98 z"
               style="fill:#4b3419;fill-opacity:1"
               inkscape:connector-curvature="0" />
            <path
               id="path13366"
               d="m 32.875,13.283 c 0.033,0.526 0.218,1.085 0.101,1.572 l 353.55339,353.55339 c 0.117,-0.487 -0.068,-1.046 -0.101,-1.572 z"
               style="fill:#4b3419;fill-opacity:1"
               inkscape:connector-curvature="0" />
            <path
               id="path13368"
               d="m 32.976,14.855 c -0.287138,1.178051 0.03814,1.97447 0.680574,2.616902 L 387.20996,371.02529 c -0.64243,-0.64243 -0.96771,-1.43885 -0.68057,-2.6169 z"
               style="fill:#4b3419;fill-opacity:1"
               inkscape:connector-curvature="0" />
            <path
               id="path13370"
               d="M 33.656574,17.471902 C 33.994108,17.809437 34.419191,18.104464 34.889,18.39 l 353.55339,353.55339 c -0.46981,-0.28554 -0.89489,-0.58056 -1.23243,-0.9181 z"
               style="fill:#4b3419;fill-opacity:1"
               inkscape:connector-curvature="0" />
            <path
               id="path13372"
               d="m 34.889,18.39 c 0.887551,0.539001 1.708466,1.144638 2.418289,1.854462 L 390.86068,373.79785 c -0.70982,-0.70982 -1.53074,-1.31546 -2.41829,-1.85446 z"
               style="fill:#4b3419;fill-opacity:1"
               inkscape:connector-curvature="0" />
            <path
               id="path13374"
               d="M 37.307289,20.244462 C 38.155389,21.092561 38.8449,22.089392 39.3,23.299 l 353.55339,353.55339 c -0.4551,-1.20961 -1.14461,-2.20644 -1.99271,-3.05454 z"
               style="fill:#4b3419;fill-opacity:1"
               inkscape:connector-curvature="0" />
            <path
               id="path13376"
               d="m 39.3,23.299 c 0.696,1.847 0.775,10.117 0.058,11.927 l 353.55339,353.55339 c 0.717,-1.81 0.638,-10.08 -0.058,-11.927 z"
               style="fill:#4b3419;fill-opacity:1"
               inkscape:connector-curvature="0" />
            <path
               id="path13378"
               d="m 39.358,35.226 c -1.278,3.224 -3.895,5.582 -7.994,5.455 l 353.55339,353.55339 c 4.099,0.127 6.716,-2.231 7.994,-5.455 z"
               style="fill:#4b3419;fill-opacity:1"
               inkscape:connector-curvature="0" />
            <path
               id="path13380"
               d="M 31.364,40.681 C 30.045,40.639 18.365,40.674 15.825,40.675 l 353.55339,353.55339 c 2.54,-10e-4 14.22,-0.036 15.539,0.006 z"
               style="fill:#4b3419;fill-opacity:1"
               inkscape:connector-curvature="0" />
            <path
               id="path13382"
               d="m 23.548,31.779 c 3.002,-0.142 5.661,-0.972 7.733,-3.155 l 353.55339,353.55339 c -2.072,2.183 -4.731,3.013 -7.733,3.155 z"
               style="fill:#4b3419;fill-opacity:1"
               inkscape:connector-curvature="0" />
            <path
               id="path13384"
               d="m 31.281,28.624 c 2.082,-2.195 2.246,-4.697 0.59,-7.208 l 353.55339,353.55339 c 1.656,2.511 1.492,5.013 -0.59,7.208 z"
               style="fill:#4b3419;fill-opacity:1"
               inkscape:connector-curvature="0" />
            <path
               id="path13386"
               d="M 31.871,21.416 C 31.614569,21.027653 31.328367,20.681238 31.016753,20.369624 L 384.57014,373.92301 c 0.31162,0.31162 0.59782,0.65803 0.85425,1.04638 z"
               style="fill:#4b3419;fill-opacity:1"
               inkscape:connector-curvature="0" />
            <path
               id="path13388"
               d="M 31.016753,20.369624 C 30.149624,19.502496 29.085723,18.904843 27.919,18.423 l 353.55339,353.55339 c 1.16672,0.48184 2.23062,1.0795 3.09775,1.94662 z"
               style="fill:#4b3419;fill-opacity:1"
               inkscape:connector-curvature="0" />
            <path
               id="path13390"
               d="m 27.919,18.423 c -4.039,-1.67 -8.918,-0.841 -11.784,2.03 l 353.55339,353.55339 c 2.866,-2.871 7.745,-3.7 11.784,-2.03 z"
               style="fill:#4b3419;fill-opacity:1"
               inkscape:connector-curvature="0" />
            <path
               id="path13392"
               d="m 16.135,20.453 c -2.522,2.527 -2.581,5.808 -0.058,8.338 l 353.55339,353.55339 c -2.523,-2.53 -2.464,-5.811 0.058,-8.338 z"
               style="fill:#4b3419;fill-opacity:1"
               inkscape:connector-curvature="0" />
            <path
               id="path13394"
               d="m 16.077,28.791 c 0.0028,0.0028 0.0056,0.0056 0.0083,0.0083 l 353.55342,353.55343 c -0.003,-0.003 -0.006,-0.006 -0.008,-0.008 z"
               style="fill:#4b3419;fill-opacity:1"
               inkscape:connector-curvature="0" />
            <path
               id="path13396"
               d="M 16.085329,28.799339 C 18.147063,30.861073 20.768744,31.6302 23.548,31.779 l 353.55339,353.55339 c -2.77926,-0.1488 -5.40094,-0.91793 -7.46267,-2.97966 z"
               style="fill:#4b3419;fill-opacity:1"
               inkscape:connector-curvature="0" />
            <path
               id="path13398"
               d="m 23.648,10.794 c 0,0.002 0,0.004 0,0.006 l 353.55339,353.55339 c 0,-0.002 0,-0.004 0,-0.006 z"
               style="fill:#4b3419;fill-opacity:1"
               inkscape:connector-curvature="0" />
            <path
               id="path13400"
               d="m 23.648,10.8 c -1.349,0 -2.698,0.025 -4.046,-0.009 l 353.55339,353.55339 c 1.348,0.034 2.697,0.009 4.046,0.009 z"
               style="fill:#4b3419;fill-opacity:1"
               inkscape:connector-curvature="0" />
            <path
               id="path13402"
               d="m 19.602,10.791 c -0.848,-0.021 -1.215,0.355 -1.195,1.176 l 353.55339,353.55339 c -0.02,-0.821 0.347,-1.197 1.195,-1.176 z"
               style="fill:#4b3419;fill-opacity:1"
               inkscape:connector-curvature="0" />
            <path
               id="path13404"
               d="m 18.407,11.967 c 0.006,0.23 -0.046,0.466 -0.009,0.689 l 353.55339,353.55339 c -0.037,-0.223 0.015,-0.459 0.009,-0.689 z"
               style="fill:#4b3419;fill-opacity:1"
               inkscape:connector-curvature="0" />
            <path
               id="path13406"
               d="m 18.398,12.656 c 0.054,0.334 0.163,0.659 0.249,0.988 l 353.55339,353.55339 c -0.086,-0.329 -0.195,-0.654 -0.249,-0.988 z"
               style="fill:#4b3419;fill-opacity:1"
               inkscape:connector-curvature="0" />
            <path
               id="path13408"
               d="m 18.647,13.644 c 0.321,-0.121 0.679,-0.184 0.956,-0.371 l 353.55339,353.55339 c -0.277,0.187 -0.635,0.25 -0.956,0.371 z"
               style="fill:#4b3419;fill-opacity:1"
               inkscape:connector-curvature="0" />
            <path
               id="path13410"
               d="m 19.603,13.273 c 2.05,-1.382 5.967,-1.365 8,0.034 l 353.55339,353.55339 c -2.033,-1.399 -5.95,-1.416 -8,-0.034 z"
               style="fill:#4b3419;fill-opacity:1"
               inkscape:connector-curvature="0" />
            <path
               id="path13412"
               d="m 27.603,13.307 c 0.273,0.189 0.633,0.255 0.952,0.378 l 353.55339,353.55339 c -0.319,-0.123 -0.679,-0.189 -0.952,-0.378 z"
               style="fill:#4b3419;fill-opacity:1"
               inkscape:connector-curvature="0" />
            <path
               id="path13414"
               d="m 28.555,13.685 c 0.086,-0.36 0.195,-0.717 0.247,-1.082 l 353.55339,353.55339 c -0.052,0.365 -0.161,0.722 -0.247,1.082 z"
               style="fill:#4b3419;fill-opacity:1"
               inkscape:connector-curvature="0" />
            <path
               id="path13416"
               d="m 28.802,12.603 c 0.032,-0.223 -0.032,-0.458 -0.04,-0.688 l 353.55339,353.55339 c 0.008,0.23 0.072,0.465 0.04,0.688 z"
               style="fill:#4b3419;fill-opacity:1"
               inkscape:connector-curvature="0" />
            <path
               id="path13418"
               d="M 28.762,11.915 C 28.74987,11.530967 28.652599,11.253843 28.46867,11.069914 L 382.02206,364.6233 c 0.18393,0.18393 0.2812,0.46106 0.29333,0.84509 z"
               style="fill:#4b3419;fill-opacity:1"
               inkscape:connector-curvature="0" />
            <path
               id="path13420"
               d="M 28.46867,11.069914 C 28.258431,10.859676 27.934967,10.771199 27.496,10.784 l 353.55339,353.55339 c 0.43897,-0.0128 0.76243,0.0757 0.97267,0.28591 z"
               style="fill:#4b3419;fill-opacity:1"
               inkscape:connector-curvature="0" />
            <path
               id="path13422"
               d="m 27.496,10.784 c -1.281,0.037 -2.563,0.01 -3.848,0.01 l 353.55339,353.55339 c 1.285,0 2.567,0.027 3.848,-0.01 z"
               style="fill:#4b3419;fill-opacity:1"
               inkscape:connector-curvature="0" />
          </g>
          <path
             style="fill:#4b3419;fill-opacity:1"
             inkscape:connector-curvature="0"
             d="M 15.825,40.675 C 11.894,40.676 8.748,38.911 7.907,35.112 6.943,30.759 6.477,26.18 8.638,21.891 c 0.77,-1.529 2.103,-2.543 3.523,-3.391 1.511,-0.903 2.47,-1.979 2.131,-3.891 -0.117,-0.664 0.148,-1.391 0.055,-2.063 -0.046,-0.334 -0.508,-0.611 -0.782,-0.914 -0.222,0.315 -0.665,0.654 -0.633,0.94 0.32,2.874 -1.403,4.319 -3.697,5.303 C 7.942,18.43 6.584,18.881 5.213,19.195 3.914,19.493 2.631,19.17 1.568,18.337 -0.644,16.604 -0.525,13.304 1.982,11.701 3.683,10.613 5.608,9.83 7.51,9.113 12.41,7.264 17.565,6.609 22.746,6.497 c 3.143,-0.068 6.305,0.407 9.448,0.748 4.142,0.45 8.044,1.789 11.747,3.641 1.011,0.505 2.04,1.345 2.605,2.301 1.754,2.965 -0.361,6.261 -3.936,6.052 -2.667,-0.156 -5.136,-1.144 -7.145,-3.02 -0.919,-0.858 -1.383,-1.911 -1.222,-3.199 0.032,-0.257 0.078,-0.586 -0.046,-0.773 -0.174,-0.263 -0.482,-0.531 -0.772,-0.585 -0.147,-0.027 -0.471,0.38 -0.553,0.641 -0.094,0.297 -0.018,0.652 0.003,0.98 0.033,0.526 0.218,1.085 0.101,1.572 -0.438,1.797 0.549,2.706 1.913,3.535 1.948,1.183 3.575,2.687 4.411,4.909 0.696,1.847 0.775,10.117 0.058,11.927 -1.278,3.224 -3.895,5.582 -7.994,5.455 -1.319,-0.042 -12.999,-0.007 -15.539,-0.006 z m 7.723,-8.896 c 3.002,-0.142 5.661,-0.972 7.733,-3.155 2.082,-2.195 2.246,-4.697 0.59,-7.208 -0.97,-1.469 -2.366,-2.338 -3.952,-2.993 -4.039,-1.67 -8.918,-0.841 -11.784,2.03 -2.522,2.527 -2.581,5.808 -0.058,8.338 2.063,2.068 4.688,2.839 7.471,2.988 z m 0.1,-20.985 c 0,0.002 0,0.004 0,0.006 -1.349,0 -2.698,0.025 -4.046,-0.009 -0.848,-0.021 -1.215,0.355 -1.195,1.176 0.006,0.23 -0.046,0.466 -0.009,0.689 0.054,0.334 0.163,0.659 0.249,0.988 0.321,-0.121 0.679,-0.184 0.956,-0.371 2.05,-1.382 5.967,-1.365 8,0.034 0.273,0.189 0.633,0.255 0.952,0.378 0.086,-0.36 0.195,-0.717 0.247,-1.082 0.032,-0.223 -0.032,-0.458 -0.04,-0.688 -0.026,-0.823 -0.443,-1.155 -1.266,-1.131 -1.281,0.037 -2.563,0.01 -3.848,0.01 z"
             id="path11733" />
        </g>
      </g>
      <g
         style="fill:#4b3419;fill-opacity:1"
         id="g11737" />
      <g
         style="fill:#4b3419;fill-opacity:1"
         id="g11739" />
      <g
         style="fill:#4b3419;fill-opacity:1"
         id="g11741" />
      <g
         style="fill:#4b3419;fill-opacity:1"
         id="g11743" />
      <g
         style="fill:#4b3419;fill-opacity:1"
         id="g11745" />
      <g
         style="fill:#4b3419;fill-opacity:1"
         id="g11747" />
      <g
         style="fill:#4b3419;fill-opacity:1"
         id="g11749" />
      <g
         style="fill:#4b3419;fill-opacity:1"
         id="g11751" />
      <g
         style="fill:#4b3419;fill-opacity:1"
         id="g11753" />
      <g
         style="fill:#4b3419;fill-opacity:1"
         id="g11755" />
      <g
         style="fill:#4b3419;fill-opacity:1"
         id="g11757" />
      <g
         style="fill:#4b3419;fill-opacity:1"
         id="g11759" />
      <g
         style="fill:#4b3419;fill-opacity:1"
         id="g11761" />
      <g
         style="fill:#4b3419;fill-opacity:1"
         id="g11763" />
      <g
         style="fill:#4b3419;fill-opacity:1"
         id="g11765" />
    </g>
  </g>
  <g
     inkscape:groupmode="layer"
     id="layer4"
     inkscape:label="Layer 3"
     style="display:inline">
    <g
       id="g13136"
       transform="matrix(6.7833719,0,0,6.7845266,40.001832,43.96546)"
       style="display:inline;fill:#ffffff">
      <g
         id="g13138"
         style="fill:#ffffff">
        <path
           id="path13140"
           d="M 15.825,40.675 C 11.894,40.676 8.748,38.911 7.907,35.112 6.943,30.759 6.477,26.18 8.638,21.891 c 0.77,-1.529 2.103,-2.543 3.523,-3.391 1.511,-0.903 2.47,-1.979 2.131,-3.891 -0.117,-0.664 0.148,-1.391 0.055,-2.063 -0.046,-0.334 -0.508,-0.611 -0.782,-0.914 -0.222,0.315 -0.665,0.654 -0.633,0.94 0.32,2.874 -1.403,4.319 -3.697,5.303 C 7.942,18.43 6.584,18.881 5.213,19.195 3.914,19.493 2.631,19.17 1.568,18.337 -0.644,16.604 -0.525,13.304 1.982,11.701 3.683,10.613 5.608,9.83 7.51,9.113 12.41,7.264 17.565,6.609 22.746,6.497 c 3.143,-0.068 6.305,0.407 9.448,0.748 4.142,0.45 8.044,1.789 11.747,3.641 1.011,0.505 2.04,1.345 2.605,2.301 1.754,2.965 -0.361,6.261 -3.936,6.052 -2.667,-0.156 -5.136,-1.144 -7.145,-3.02 -0.919,-0.858 -1.383,-1.911 -1.222,-3.199 0.032,-0.257 0.078,-0.586 -0.046,-0.773 -0.174,-0.263 -0.482,-0.531 -0.772,-0.585 -0.147,-0.027 -0.471,0.38 -0.553,0.641 -0.094,0.297 -0.018,0.652 0.003,0.98 0.033,0.526 0.218,1.085 0.101,1.572 -0.438,1.797 0.549,2.706 1.913,3.535 1.948,1.183 3.575,2.687 4.411,4.909 0.696,1.847 0.775,10.117 0.058,11.927 -1.278,3.224 -3.895,5.582 -7.994,5.455 -1.319,-0.042 -12.999,-0.007 -15.539,-0.006 z m 7.723,-8.896 c 3.002,-0.142 5.661,-0.972 7.733,-3.155 2.082,-2.195 2.246,-4.697 0.59,-7.208 -0.97,-1.469 -2.366,-2.338 -3.952,-2.993 -4.039,-1.67 -8.918,-0.841 -11.784,2.03 -2.522,2.527 -2.581,5.808 -0.058,8.338 2.063,2.068 4.688,2.839 7.471,2.988 z m 0.1,-20.985 c 0,0.002 0,0.004 0,0.006 -1.349,0 -2.698,0.025 -4.046,-0.009 -0.848,-0.021 -1.215,0.355 -1.195,1.176 0.006,0.23 -0.046,0.466 -0.009,0.689 0.054,0.334 0.163,0.659 0.249,0.988 0.321,-0.121 0.679,-0.184 0.956,-0.371 2.05,-1.382 5.967,-1.365 8,0.034 0.273,0.189 0.633,0.255 0.952,0.378 0.086,-0.36 0.195,-0.717 0.247,-1.082 0.032,-0.223 -0.032,-0.458 -0.04,-0.688 -0.026,-0.823 -0.443,-1.155 -1.266,-1.131 -1.281,0.037 -2.563,0.01 -3.848,0.01 z"
           inkscape:connector-curvature="0"
           style="fill:#ffffff" />
        <path
           id="path13142"
           d="m 24.112,27.844 c -1.897,-0.097 -3.226,-0.41 -4.329,-1.356 -1.805,-1.55 -1.791,-3.724 0.022,-5.274 1.961,-1.678 5.471,-1.732 7.438,-0.115 2.166,1.781 1.969,4.526 -0.507,5.856 -0.932,0.5 -2.028,0.694 -2.624,0.889 z"
           inkscape:connector-curvature="0"
           style="fill:#ffffff" />
      </g>
      <g
         id="g13144"
         style="fill:#ffffff" />
      <g
         id="g13146"
         style="fill:#ffffff" />
      <g
         id="g13148"
         style="fill:#ffffff" />
      <g
         id="g13150"
         style="fill:#ffffff" />
      <g
         id="g13152"
         style="fill:#ffffff" />
      <g
         id="g13154"
         style="fill:#ffffff" />
      <g
         id="g13156"
         style="fill:#ffffff" />
      <g
         id="g13158"
         style="fill:#ffffff" />
      <g
         id="g13160"
         style="fill:#ffffff" />
      <g
         id="g13162"
         style="fill:#ffffff" />
      <g
         id="g13164"
         style="fill:#ffffff" />
      <g
         id="g13166"
         style="fill:#ffffff" />
      <g
         id="g13168"
         style="fill:#ffffff" />
      <g
         id="g13170"
         style="fill:#ffffff" />
      <g
         id="g13172"
         style="fill:#ffffff" />
    </g>
  </g>
</svg>
