<?xml version="1.0" encoding="UTF-8" standalone="no"?>
<!-- Created with Inkscape (http://www.inkscape.org/) -->

<svg
   xmlns:dc="http://purl.org/dc/elements/1.1/"
   xmlns:cc="http://creativecommons.org/ns#"
   xmlns:rdf="http://www.w3.org/1999/02/22-rdf-syntax-ns#"
   xmlns:svg="http://www.w3.org/2000/svg"
   xmlns="http://www.w3.org/2000/svg"
   xmlns:sodipodi="http://sodipodi.sourceforge.net/DTD/sodipodi-0.dtd"
   xmlns:inkscape="http://www.inkscape.org/namespaces/inkscape"
   sodipodi:docname="casecategory_vpn.svg"
   inkscape:version="0.91 r13725"
   version="1.1"
   id="svg3566"
   viewBox="0 0 399.99999 400.00001"
   height="400"
   width="400">
  <sodipodi:namedview
     inkscape:window-maximized="1"
     inkscape:window-y="-8"
     inkscape:window-x="3832"
     inkscape:window-height="1137"
     inkscape:window-width="1920"
     units="px"
     showgrid="false"
     inkscape:current-layer="layer1"
     inkscape:document-units="px"
     inkscape:cy="245.73298"
     inkscape:cx="92.211676"
     inkscape:zoom="1.4142136"
     inkscape:pageshadow="2"
     inkscape:pageopacity="0.0"
     borderopacity="1.0"
     bordercolor="#666666"
     pagecolor="#ffffff"
     id="base" />
  <defs
     id="defs3568">
    <clipPath
       id="clipPath5130"
       clipPathUnits="userSpaceOnUse">
      <ellipse
         ry="212.5"
         rx="213.23529"
         style="display:inline;fill:#a4c639;fill-opacity:1"
         cx="494.71536"
         cy="580.85931"
         id="circle5132" />
    </clipPath>
    <clipPath
       clipPathUnits="userSpaceOnUse"
       id="clipPath4730">
      <circle
         style="display:inline;fill:#1f0068;fill-opacity:1"
         r="400.71429"
         cx="300.53571"
         cy="280.50006"
         id="circle4732" />
    </clipPath>
  </defs>
  <metadata
     id="metadata3571">
    <rdf:RDF>
      <cc:Work
         rdf:about="">
        <dc:format>image/svg+xml</dc:format>
        <dc:type
           rdf:resource="http://purl.org/dc/dcmitype/StillImage" />
        <dc:title />
      </cc:Work>
    </rdf:RDF>
  </metadata>
  <g
     inkscape:label="Layer 1"
     inkscape:groupmode="layer"
     id="layer1"
     transform="translate(0,-652.36216)"
     style="display:inline">
    <circle
       id="circle3938"
       cy="852.36218"
       cx="200"
       r="200"
       style="fill:#240078;fill-opacity:1" />
  </g>
  <g
     inkscape:groupmode="layer"
     id="layer2"
     inkscape:label="Layer 2"
     style="display:inline"
     transform="translate(0,-652.36216)">
    <g
       id="g4426"
       transform="matrix(0.49910873,0,0,0.49910873,50,712.36216)"
       style="display:inline;fill:#0f0032;fill-opacity:1"
       clip-path="url(#clipPath4730)">
      <g
         id="g4428"
         style="fill:#0f0032;fill-opacity:1">
        <g
           id="g4430"
           style="fill:#0f0032;fill-opacity:1">
          <g
             id="g4495"
             style="fill:#0f0032;fill-opacity:1">
            <g
               id="g4497"
               style="fill:#0f0032;fill-opacity:1">
              <path
                 id="path4499"
                 d="M535.5 76.5L535.5 63.75L889.053390593 417.303390593L889.053390593 430.053390593Z"
                 style="fill:#0f0032;fill-opacity:1" />
              <path
                 id="path4501"
                 d="M535.5 63.75C535.5 44.2772727273 527.154545455 27.0805785124 513.774229902 15.4705108941L867.327620496 369.023901487C880.707936048 380.633969106 889.053390593 397.830663321 889.053390593 417.303390593Z"
                 style="fill:#0f0032;fill-opacity:1" />
              <path
                 id="path4503"
                 d="M513.774229902 15.4705108941C502.623966942 5.79545454545 487.977272727 0.0 471.75 0.0L825.303390593 353.553390593C841.530663321 353.553390593 856.177357535 359.348845139 867.327620496 369.023901487Z"
                 style="fill:#0f0032;fill-opacity:1" />
              <path
                 id="path4505"
                 d="M471.75 0.0C436.05 0.0 408.0 28.05 408.0 63.75L761.553390593 417.303390593C761.553390593 381.603390593 789.603390593 353.553390593 825.303390593 353.553390593Z"
                 style="fill:#0f0032;fill-opacity:1" />
              <path
                 id="path4507"
                 d="M408.0 63.75L408.0 76.5L761.553390593 430.053390593L761.553390593 417.303390593Z"
                 style="fill:#0f0032;fill-opacity:1" />
              <path
                 id="path4509"
                 d="M408.0 76.5C392.7 76.5 382.5 86.7 382.5 102.0L736.053390593 455.553390593C736.053390593 440.253390593 746.253390593 430.053390593 761.553390593 430.053390593Z"
                 style="fill:#0f0032;fill-opacity:1" />
              <path
                 id="path4511"
                 d="M382.5 102.0L382.5 204.0L736.053390593 557.553390593L736.053390593 455.553390593Z"
                 style="fill:#0f0032;fill-opacity:1" />
              <path
                 id="path4513"
                 d="M382.5 204.0C382.5 219.3 392.7 229.5 408.0 229.5L761.553390593 583.053390593C746.253390593 583.053390593 736.053390593 572.853390593 736.053390593 557.553390593Z"
                 style="fill:#0f0032;fill-opacity:1" />
              <path
                 id="path4515"
                 d="M408.0 229.5L535.5 229.5L889.053390593 583.053390593L761.553390593 583.053390593Z"
                 style="fill:#0f0032;fill-opacity:1" />
              <path
                 id="path4517"
                 d="M535.5 229.5C550.8 229.5 561.0 219.3 561.0 204.0L914.553390593 557.553390593C914.553390593 572.853390593 904.353390593 583.053390593 889.053390593 583.053390593Z"
                 style="fill:#0f0032;fill-opacity:1" />
              <path
                 id="path4519"
                 d="M561.0 204.0L561.0 102.0L914.553390593 455.553390593L914.553390593 557.553390593Z"
                 style="fill:#0f0032;fill-opacity:1" />
              <path
                 id="path4521"
                 d="M561.0 102.0C561.0 94.3144186047 558.426223905 87.9157252569 553.925108501 83.4503567434L907.478499094 437.003747337C911.979614498 441.46911585 914.553390593 447.867809198 914.553390593 455.553390593Z"
                 style="fill:#0f0032;fill-opacity:1" />
              <path
                 id="path4523"
                 d="M553.925108501 83.4503567434C549.465670092 79.0263342347 543.114418605 76.5 535.5 76.5L889.053390593 430.053390593C896.667809198 430.053390593 903.019060685 432.579724828 907.478499094 437.003747337Z"
                 style="fill:#0f0032;fill-opacity:1" />
              <path
                 id="path4525"
                 d="M515.1 76.5L428.4 76.5L781.953390593 430.053390593L868.653390593 430.053390593Z"
                 style="fill:#0f0032;fill-opacity:1" />
              <path
                 id="path4527"
                 d="M428.4 76.5L428.4 63.75L781.953390593 417.303390593L781.953390593 430.053390593Z"
                 style="fill:#0f0032;fill-opacity:1" />
              <path
                 id="path4529"
                 d="M428.4 63.75C428.4 40.8 448.799 20.4 471.75 20.4L825.303390593 373.953390593C802.352390593 373.953390593 781.953390593 394.353390593 781.953390593 417.303390593Z"
                 style="fill:#0f0032;fill-opacity:1" />
              <path
                 id="path4531"
                 d="M471.75 20.4C483.225374997 20.4 494.062763894 25.4998888919 502.031364592 33.46848959L855.584755185 387.021880183C847.616154487 379.053279485 836.778765591 373.953390593 825.303390593 373.953390593Z"
                 style="fill:#0f0032;fill-opacity:1" />
              <path
                 id="path4533"
                 d="M502.031364592 33.46848959C510.000138896 41.4372638941 515.1 52.2748750027 515.1 63.75L868.653390593 417.303390593C868.653390593 405.828265596 863.553529489 394.990654487 855.584755185 387.021880183Z"
                 style="fill:#0f0032;fill-opacity:1" />
              <path
                 id="path4535"
                 d="M515.1 63.75L515.1 76.5L868.653390593 430.053390593L868.653390593 417.303390593Z"
                 style="fill:#0f0032;fill-opacity:1" />
              <path
                 id="path4537"
                 d="M515.1 76.5L515.1 76.5L868.653390593 430.053390593L868.653390593 430.053390593Z"
                 style="fill:#0f0032;fill-opacity:1" />
              <path
                 id="path4539"
                 d="M456.45 280.5C456.45 288.15 459.0 298.35 459.0 306.0L812.553390593 659.553390593C812.553390593 651.903390593 810.003390593 641.703390593 810.003390593 634.053390593Z"
                 style="fill:#0f0032;fill-opacity:1" />
              <path
                 id="path4541"
                 d="M459.0 306.0C459.0 359.55 438.6 408.0 405.45 443.7L759.003390593 797.253390593C792.153390593 761.553390593 812.553390593 713.103390593 812.553390593 659.553390593Z"
                 style="fill:#0f0032;fill-opacity:1" />
              <path
                 id="path4543"
                 d="M405.45 443.7C402.457587815 435.720234172 397.904473113 428.520819602 392.095901988 422.712248478L745.649292581 776.265639071C751.457863706 782.074210196 756.010978408 789.273624765 759.003390593 797.253390593Z"
                 style="fill:#0f0032;fill-opacity:1" />
              <path
                 id="path4545"
                 d="M392.095901988 422.712248478C383.055058543 413.671405033 370.972763444 408.0 357.0 408.0L710.553390593 761.553390593C724.526154037 761.553390593 736.608449136 767.224795626 745.649292581 776.265639071Z"
                 style="fill:#0f0032;fill-opacity:1" />
              <path
                 id="path4547"
                 d="M357.0 408.0L331.5 408.0L685.053390593 761.553390593L710.553390593 761.553390593Z"
                 style="fill:#0f0032;fill-opacity:1" />
              <path
                 id="path4549"
                 d="M331.5 408.0L331.5 331.5L685.053390593 685.053390593L685.053390593 761.553390593Z"
                 style="fill:#0f0032;fill-opacity:1" />
              <path
                 id="path4551"
                 d="M331.5 331.5C331.5 316.2 321.3 306.0 306.0 306.0L659.553390593 659.553390593C674.853390593 659.553390593 685.053390593 669.753390593 685.053390593 685.053390593Z"
                 style="fill:#0f0032;fill-opacity:1" />
              <path
                 id="path4553"
                 d="M306.0 306.0L153.0 306.0L506.553390593 659.553390593L659.553390593 659.553390593Z"
                 style="fill:#0f0032;fill-opacity:1" />
              <path
                 id="path4555"
                 d="M153.0 306.0L153.0 255.0L506.553390593 608.553390593L506.553390593 659.553390593Z"
                 style="fill:#0f0032;fill-opacity:1" />
              <path
                 id="path4557"
                 d="M153.0 255.0L204.0 255.0L557.553390593 608.553390593L506.553390593 608.553390593Z"
                 style="fill:#0f0032;fill-opacity:1" />
              <path
                 id="path4559"
                 d="M204.0 255.0C219.3 255.0 229.5 244.8 229.5 229.5L583.053390593 583.053390593C583.053390593 598.353390593 572.853390593 608.553390593 557.553390593 608.553390593Z"
                 style="fill:#0f0032;fill-opacity:1" />
              <path
                 id="path4561"
                 d="M229.5 229.5L229.5 178.5L583.053390593 532.053390593L583.053390593 583.053390593Z"
                 style="fill:#0f0032;fill-opacity:1" />
              <path
                 id="path4563"
                 d="M229.5 178.5L280.5 178.5L634.053390593 532.053390593L583.053390593 532.053390593Z"
                 style="fill:#0f0032;fill-opacity:1" />
              <path
                 id="path4565"
                 d="M280.5 178.5C308.55 178.5 331.5 155.55 331.5 127.5L685.053390593 481.053390593C685.053390593 509.103390593 662.103390593 532.053390593 634.053390593 532.053390593Z"
                 style="fill:#0f0032;fill-opacity:1" />
              <path
                 id="path4567"
                 d="M331.5 127.5L331.5 63.75L685.053390593 417.303390593L685.053390593 481.053390593Z"
                 style="fill:#0f0032;fill-opacity:1" />
              <path
                 id="path4569"
                 d="M331.5 63.75C308.55 56.1 280.5 51.0 255.0 51.0L608.553390593 404.553390593C634.053390593 404.553390593 662.103390593 409.653390593 685.053390593 417.303390593Z"
                 style="fill:#0f0032;fill-opacity:1" />
              <path
                 id="path4571"
                 d="M255.0 51.0C114.75 51.0 0.0 165.75 0.0 306.0L353.553390593 659.553390593C353.553390593 519.303390593 468.303390593 404.553390593 608.553390593 404.553390593Z"
                 style="fill:#0f0032;fill-opacity:1" />
              <path
                 id="path4573"
                 d="M0.0 306.0C0.0 446.25 114.75 561.0 255.0 561.0L608.553390593 914.553390593C468.303390593 914.553390593 353.553390593 799.803390593 353.553390593 659.553390593Z"
                 style="fill:#0f0032;fill-opacity:1" />
              <path
                 id="path4575"
                 d="M255.0 561.0C395.25 561.0 510.0 446.25 510.0 306.0L863.553390593 659.553390593C863.553390593 799.803390593 748.803390593 914.553390593 608.553390593 914.553390593Z"
                 style="fill:#0f0032;fill-opacity:1" />
              <path
                 id="path4577"
                 d="M510.0 306.0C510.0 298.35 510.0 288.15 507.45 280.5L861.003390593 634.053390593C863.553390593 641.703390593 863.553390593 651.903390593 863.553390593 659.553390593Z"
                 style="fill:#0f0032;fill-opacity:1" />
              <path
                 id="path4579"
                 d="M507.45 280.5L456.45 280.5L810.003390593 634.053390593L861.003390593 634.053390593Z"
                 style="fill:#0f0032;fill-opacity:1" />
              <path
                 id="path4581"
                 d="M229.5 507.45C149.94 497.25 83.436 439.722 60.0168 364.8948L413.570190593 718.448190593C436.989390593 793.275390593 503.493390593 850.803390593 583.053390593 861.003390593Z"
                 style="fill:#0f0032;fill-opacity:1" />
              <path
                 id="path4583"
                 d="M60.0168 364.8948C54.162 346.188 51.0 326.4 51.0 306.0L404.553390593 659.553390593C404.553390593 679.953390593 407.715390593 699.741390593 413.570190593 718.448190593Z"
                 style="fill:#0f0032;fill-opacity:1" />
              <path
                 id="path4585"
                 d="M51.0 306.0C51.0 290.7 53.55 275.4 56.1 260.1L409.653390593 613.653390593C407.103390593 628.953390593 404.553390593 644.253390593 404.553390593 659.553390593Z"
                 style="fill:#0f0032;fill-opacity:1" />
              <path
                 id="path4587"
                 d="M56.1 260.1L178.5 382.5L532.053390593 736.053390593L409.653390593 613.653390593Z"
                 style="fill:#0f0032;fill-opacity:1" />
              <path
                 id="path4589"
                 d="M178.5 382.5L178.5 408.0L532.053390593 761.553390593L532.053390593 736.053390593Z"
                 style="fill:#0f0032;fill-opacity:1" />
              <path
                 id="path4591"
                 d="M178.5 408.0C178.5 436.05 201.45 459.0 229.5 459.0L583.053390593 812.553390593C555.003390593 812.553390593 532.053390593 789.603390593 532.053390593 761.553390593Z"
                 style="fill:#0f0032;fill-opacity:1" />
              <path
                 id="path4593"
                 d="M229.5 459.0L229.5 507.45L583.053390593 861.003390593L583.053390593 812.553390593Z"
                 style="fill:#0f0032;fill-opacity:1" />
            </g>
            <path
               id="path4432"
               d="m 535.5,76.5 0,-12.75 C 535.5,28.05 507.45,0 471.75,0 436.05,0 408,28.05 408,63.75 l 0,12.75 c -15.3,0 -25.5,10.2 -25.5,25.5 l 0,102 c 0,15.3 10.2,25.5 25.5,25.5 l 127.5,0 c 15.3,0 25.5,-10.2 25.5,-25.5 l 0,-102 C 561,86.7 550.8,76.5 535.5,76.5 Z m -20.4,0 -86.7,0 0,-12.75 c 0,-22.95 20.399,-43.35 43.35,-43.35 22.951,0 43.35,20.4 43.35,43.35 l 0,12.75 0,0 z m -58.65,204 c 0,7.65 2.55,17.85 2.55,25.5 0,53.55 -20.4,102 -53.55,137.7 C 397.8,423.3 379.95,408 357,408 l -25.5,0 0,-76.5 C 331.5,316.2 321.3,306 306,306 l -153,0 0,-51 51,0 c 15.3,0 25.5,-10.2 25.5,-25.5 l 0,-51 51,0 c 28.05,0 51,-22.95 51,-51 l 0,-63.75 C 308.55,56.1 280.5,51 255,51 114.75,51 0,165.75 0,306 c 0,140.25 114.75,255 255,255 140.25,0 255,-114.75 255,-255 0,-7.65 0,-17.85 -2.55,-25.5 l -51,0 z M 229.5,507.45 C 130.05,494.7 51,408 51,306 c 0,-15.3 2.55,-30.6 5.1,-45.9 l 122.4,122.4 0,25.5 c 0,28.05 22.95,51 51,51 l 0,48.45 z"
               inkscape:connector-curvature="0"
               style="fill:#0f0032;fill-opacity:1" />
          </g>
        </g>
      </g>
      <g
         id="g4434"
         style="fill:#0f0032;fill-opacity:1" />
      <g
         id="g4436"
         style="fill:#0f0032;fill-opacity:1" />
      <g
         id="g4438"
         style="fill:#0f0032;fill-opacity:1" />
      <g
         id="g4440"
         style="fill:#0f0032;fill-opacity:1" />
      <g
         id="g4442"
         style="fill:#0f0032;fill-opacity:1" />
      <g
         id="g4444"
         style="fill:#0f0032;fill-opacity:1" />
      <g
         id="g4446"
         style="fill:#0f0032;fill-opacity:1" />
      <g
         id="g4448"
         style="fill:#0f0032;fill-opacity:1" />
      <g
         id="g4450"
         style="fill:#0f0032;fill-opacity:1" />
      <g
         id="g4452"
         style="fill:#0f0032;fill-opacity:1" />
      <g
         id="g4454"
         style="fill:#0f0032;fill-opacity:1" />
      <g
         id="g4456"
         style="fill:#0f0032;fill-opacity:1" />
      <g
         id="g4458"
         style="fill:#0f0032;fill-opacity:1" />
      <g
         id="g4460"
         style="fill:#0f0032;fill-opacity:1" />
      <g
         id="g4462"
         style="fill:#0f0032;fill-opacity:1" />
    </g>
  </g>
  <g
     inkscape:groupmode="layer"
     id="layer4"
     inkscape:label="Layer 3"
     style="display:inline">
    <g
       style="display:inline;fill:#ffffff"
       transform="matrix(0.49910873,0,0,0.49910873,50,60)"
       id="g4385">
      <g
         style="fill:#ffffff"
         id="g4344">
        <g
           style="fill:#ffffff"
           id="vpn">
          <path
             style="fill:#ffffff"
             inkscape:connector-curvature="0"
             d="m 535.5,76.5 0,-12.75 C 535.5,28.05 507.45,0 471.75,0 436.05,0 408,28.05 408,63.75 l 0,12.75 c -15.3,0 -25.5,10.2 -25.5,25.5 l 0,102 c 0,15.3 10.2,25.5 25.5,25.5 l 127.5,0 c 15.3,0 25.5,-10.2 25.5,-25.5 l 0,-102 C 561,86.7 550.8,76.5 535.5,76.5 Z m -20.4,0 -86.7,0 0,-12.75 c 0,-22.95 20.399,-43.35 43.35,-43.35 22.951,0 43.35,20.4 43.35,43.35 l 0,12.75 0,0 z m -58.65,204 c 0,7.65 2.55,17.85 2.55,25.5 0,53.55 -20.4,102 -53.55,137.7 C 397.8,423.3 379.95,408 357,408 l -25.5,0 0,-76.5 C 331.5,316.2 321.3,306 306,306 l -153,0 0,-51 51,0 c 15.3,0 25.5,-10.2 25.5,-25.5 l 0,-51 51,0 c 28.05,0 51,-22.95 51,-51 l 0,-63.75 C 308.55,56.1 280.5,51 255,51 114.75,51 0,165.75 0,306 c 0,140.25 114.75,255 255,255 140.25,0 255,-114.75 255,-255 0,-7.65 0,-17.85 -2.55,-25.5 l -51,0 z M 229.5,507.45 C 130.05,494.7 51,408 51,306 c 0,-15.3 2.55,-30.6 5.1,-45.9 l 122.4,122.4 0,25.5 c 0,28.05 22.95,51 51,51 l 0,48.45 z"
             id="path4347" />
        </g>
      </g>
      <g
         style="fill:#ffffff"
         id="g4349" />
      <g
         style="fill:#ffffff"
         id="g4351" />
      <g
         style="fill:#ffffff"
         id="g4353" />
      <g
         style="fill:#ffffff"
         id="g4355" />
      <g
         style="fill:#ffffff"
         id="g4357" />
      <g
         style="fill:#ffffff"
         id="g4359" />
      <g
         style="fill:#ffffff"
         id="g4361" />
      <g
         style="fill:#ffffff"
         id="g4363" />
      <g
         style="fill:#ffffff"
         id="g4365" />
      <g
         style="fill:#ffffff"
         id="g4367" />
      <g
         style="fill:#ffffff"
         id="g4369" />
      <g
         style="fill:#ffffff"
         id="g4371" />
      <g
         style="fill:#ffffff"
         id="g4373" />
      <g
         style="fill:#ffffff"
         id="g4375" />
      <g
         style="fill:#ffffff"
         id="g4377" />
    </g>
  </g>
</svg>
